<svg width="218" height="84" viewBox="0 0 218 84" fill="none" xmlns="http://www.w3.org/2000/svg">
<path d="M121.38 73.8879H119.67V61.9514H105.492V73.8879H103.799V49.6165H105.492V60.3909H119.67V49.6165H121.38V73.8879ZM148.673 61.719C148.673 65.5706 147.71 68.6197 145.784 70.8665C143.859 73.1021 141.202 74.22 137.816 74.22C134.44 74.22 131.789 73.1021 129.863 70.8665C127.938 68.6197 126.975 65.5595 126.975 61.6858C126.975 57.8232 127.943 54.7851 129.88 52.5715C131.828 50.3469 134.484 49.2346 137.849 49.2346C141.236 49.2346 143.886 50.3525 145.801 52.5881C147.716 54.8127 148.673 57.8564 148.673 61.719ZM128.818 61.719C128.818 65.1943 129.592 67.8837 131.142 69.7874C132.691 71.6799 134.916 72.6262 137.816 72.6262C140.737 72.6262 142.968 71.6855 144.506 69.804C146.056 67.9224 146.83 65.2275 146.83 61.719C146.83 58.2216 146.056 55.5432 144.506 53.6838C142.968 51.8134 140.749 50.8782 137.849 50.8782C134.96 50.8782 132.73 51.8189 131.158 53.7004C129.598 55.5819 128.818 58.2548 128.818 61.719ZM172.114 49.6165V65.3215C172.114 68.1106 171.306 70.2909 169.691 71.8625C168.075 73.4342 165.822 74.22 162.934 74.22C160.123 74.22 157.926 73.4342 156.343 71.8625C154.771 70.2799 153.986 68.0774 153.986 65.2551V49.6165H155.695V65.3215C155.695 67.6568 156.343 69.4775 157.638 70.7834C158.933 72.0784 160.765 72.7258 163.133 72.7258C165.446 72.7258 167.239 72.0894 168.512 70.8167C169.785 69.5328 170.421 67.7564 170.421 65.4875V49.6165H172.114ZM192.136 67.6292C192.136 69.6545 191.389 71.2594 189.895 72.4436C188.412 73.6278 186.436 74.22 183.968 74.22C181.002 74.22 178.727 73.8935 177.145 73.2405V71.5471C178.893 72.2887 181.124 72.6594 183.835 72.6594C185.827 72.6594 187.404 72.2056 188.567 71.2981C189.74 70.3795 190.326 69.1786 190.326 67.6956C190.326 66.7769 190.133 66.0188 189.745 65.4211C189.358 64.8124 188.727 64.259 187.853 63.761C186.978 63.2629 185.695 62.7262 184.001 62.1506C181.522 61.2984 179.806 60.3798 178.855 59.3948C177.914 58.3987 177.444 57.0761 177.444 55.427C177.444 53.6119 178.152 52.1344 179.569 50.9944C180.996 49.8433 182.828 49.2678 185.064 49.2678C187.344 49.2678 189.485 49.6995 191.488 50.5627L190.874 52.0237C188.86 51.1825 186.934 50.762 185.097 50.762C183.304 50.762 181.876 51.177 180.814 52.0071C179.751 52.8372 179.22 53.9661 179.22 55.3938C179.22 56.2903 179.38 57.0263 179.701 57.6018C180.033 58.1773 180.57 58.6975 181.312 59.1624C182.053 59.6161 183.326 60.164 185.13 60.8059C187.023 61.4589 188.445 62.0953 189.397 62.7151C190.348 63.3238 191.04 64.0211 191.472 64.8069C191.915 65.5816 192.136 66.5224 192.136 67.6292ZM210.53 73.8879H197.266V49.6165H210.53V51.177H198.959V60.3577H209.883V61.9182H198.959V72.3274H210.53V73.8879Z" fill="#828282"/>
<path d="M4.20193 49.0547H24.6805V53.127H8.84549V59.1182H22.2928V62.9414H8.84549V71.9502H4.20193V49.0547ZM30.3769 49.0547H35.0498V71.9502H30.3769V49.0547ZM42.7824 49.0547H47.426V67.8779H60.7414V71.9502H42.7824V49.0547ZM67.0678 49.0547H71.7113L80.0316 57.4043L88.3519 49.0547H92.9955V71.9502H88.3519V55.4854L80.0316 63.498L71.7113 55.4854V71.9502H67.0678V49.0547Z" fill="#FFBB3B"/>
<path d="M108.733 0.311523L66.2208 38.351L70.6916 40.621L108.899 6.43031L148.504 42.0424L151.575 38.351L109.072 0.311523L108.907 0.504842L108.733 0.311523Z" fill="#535461"/>
<path d="M78.9325 5.78711H89.7094L89.6155 12.2374L78.9325 21.9901V5.78711Z" fill="#535461"/>
<path d="M138.821 39.1361L108.865 12.3264L78.8906 39.1477C80.1785 40.8288 82.9301 36.3658 84.2181 38.0469C84.2181 36.2478 82.2996 40.0131 85.096 36.2712L78.9251 39.2116L81.1454 41.5985L108.865 16.7375C110.396 18.411 127.919 33.9151 136.015 41.5985C136.015 41.0056 135.576 41.5985 138.821 39.1361Z" fill="#535461"/>
</svg>
