<svg width="88" height="109" viewBox="0 0 88 109" fill="none" xmlns="http://www.w3.org/2000/svg">
<g opacity="0.3">
<mask id="mask0" style="mask-type:alpha" maskUnits="userSpaceOnUse" x="16" y="0" width="12" height="11">
<path d="M21.7905 10.425C24.6781 10.425 27.0189 8.09121 27.0189 5.21245C27.0189 2.33368 24.6781 0 21.7905 0C18.903 0 16.5621 2.33368 16.5621 5.21245C16.5621 8.09121 18.903 10.425 21.7905 10.425Z" fill="url(#paint0_linear)"/>
</mask>
<g mask="url(#mask0)">
<path d="M21.7905 10.425C24.6781 10.425 27.0189 8.09121 27.0189 5.21245C27.0189 2.33368 24.6781 0 21.7905 0C18.903 0 16.5621 2.33368 16.5621 5.21245C16.5621 8.09121 18.903 10.425 21.7905 10.425Z" fill="url(#paint1_linear)"/>
</g>
<mask id="mask1" style="mask-type:alpha" maskUnits="userSpaceOnUse" x="46" y="0" width="12" height="11">
<path d="M52.0716 10.425C54.9592 10.425 57.3 8.09121 57.3 5.21245C57.3 2.33368 54.9592 0 52.0716 0C49.184 0 46.8432 2.33368 46.8432 5.21245C46.8432 8.09121 49.184 10.425 52.0716 10.425Z" fill="url(#paint2_linear)"/>
</mask>
<g mask="url(#mask1)">
<path d="M52.0716 10.425C54.9592 10.425 57.3 8.09121 57.3 5.21245C57.3 2.33368 54.9592 0 52.0716 0C49.184 0 46.8432 2.33368 46.8432 5.21245C46.8432 8.09121 49.184 10.425 52.0716 10.425Z" fill="url(#paint3_linear)"/>
</g>
<mask id="mask2" style="mask-type:alpha" maskUnits="userSpaceOnUse" x="77" y="0" width="11" height="11">
<path d="M82.3526 10.425C85.2402 10.425 87.581 8.09121 87.581 5.21245C87.581 2.33368 85.2402 0 82.3526 0C79.4651 0 77.1243 2.33368 77.1243 5.21245C77.1243 8.09121 79.4651 10.425 82.3526 10.425Z" fill="url(#paint4_linear)"/>
</mask>
<g mask="url(#mask2)">
<path d="M82.3526 10.425C85.2402 10.425 87.581 8.09121 87.581 5.21245C87.581 2.33368 85.2402 0 82.3526 0C79.4651 0 77.1243 2.33368 77.1243 5.21245C77.1243 8.09121 79.4651 10.425 82.3526 10.425Z" fill="url(#paint5_linear)"/>
</g>
<mask id="mask3" style="mask-type:alpha" maskUnits="userSpaceOnUse" x="16" y="24" width="12" height="11">
<path d="M21.7905 34.8498C24.6781 34.8498 27.0189 32.5161 27.0189 29.6374C27.0189 26.7586 24.6781 24.425 21.7905 24.425C18.903 24.425 16.5621 26.7586 16.5621 29.6374C16.5621 32.5161 18.903 34.8498 21.7905 34.8498Z" fill="url(#paint6_linear)"/>
</mask>
<g mask="url(#mask3)">
<path d="M21.7905 34.8498C24.6781 34.8498 27.0189 32.5161 27.0189 29.6374C27.0189 26.7586 24.6781 24.425 21.7905 24.425C18.903 24.425 16.5621 26.7586 16.5621 29.6374C16.5621 32.5161 18.903 34.8498 21.7905 34.8498Z" fill="url(#paint7_linear)"/>
</g>
<mask id="mask4" style="mask-type:alpha" maskUnits="userSpaceOnUse" x="46" y="24" width="12" height="11">
<path d="M52.0716 34.8498C54.9592 34.8498 57.3 32.5161 57.3 29.6374C57.3 26.7586 54.9592 24.425 52.0716 24.425C49.184 24.425 46.8432 26.7586 46.8432 29.6374C46.8432 32.5161 49.184 34.8498 52.0716 34.8498Z" fill="url(#paint8_linear)"/>
</mask>
<g mask="url(#mask4)">
<path d="M52.0716 34.8498C54.9592 34.8498 57.3 32.5161 57.3 29.6374C57.3 26.7586 54.9592 24.425 52.0716 24.425C49.184 24.425 46.8432 26.7586 46.8432 29.6374C46.8432 32.5161 49.184 34.8498 52.0716 34.8498Z" fill="url(#paint9_linear)"/>
</g>
<mask id="mask5" style="mask-type:alpha" maskUnits="userSpaceOnUse" x="77" y="24" width="11" height="11">
<path d="M82.3526 34.8498C85.2402 34.8498 87.581 32.5161 87.581 29.6374C87.581 26.7586 85.2402 24.425 82.3526 24.425C79.4651 24.425 77.1243 26.7586 77.1243 29.6374C77.1243 32.5161 79.4651 34.8498 82.3526 34.8498Z" fill="url(#paint10_linear)"/>
</mask>
<g mask="url(#mask5)">
<path d="M82.3526 34.8498C85.2402 34.8498 87.581 32.5161 87.581 29.6374C87.581 26.7586 85.2402 24.425 82.3526 24.425C79.4651 24.425 77.1243 26.7586 77.1243 29.6374C77.1243 32.5161 79.4651 34.8498 82.3526 34.8498Z" fill="url(#paint11_linear)"/>
</g>
<mask id="mask6" style="mask-type:alpha" maskUnits="userSpaceOnUse" x="16" y="48" width="12" height="12">
<path d="M21.7905 59.2748C24.6781 59.2748 27.0189 56.9411 27.0189 54.0623C27.0189 51.1835 24.6781 48.8498 21.7905 48.8498C18.903 48.8498 16.5621 51.1835 16.5621 54.0623C16.5621 56.9411 18.903 59.2748 21.7905 59.2748Z" fill="url(#paint12_linear)"/>
</mask>
<g mask="url(#mask6)">
<path d="M21.7905 59.2748C24.6781 59.2748 27.0189 56.9411 27.0189 54.0623C27.0189 51.1835 24.6781 48.8498 21.7905 48.8498C18.903 48.8498 16.5621 51.1835 16.5621 54.0623C16.5621 56.9411 18.903 59.2748 21.7905 59.2748Z" fill="url(#paint13_linear)"/>
</g>
<mask id="mask7" style="mask-type:alpha" maskUnits="userSpaceOnUse" x="46" y="48" width="12" height="12">
<path d="M52.0716 59.2748C54.9592 59.2748 57.3 56.9411 57.3 54.0623C57.3 51.1835 54.9592 48.8498 52.0716 48.8498C49.184 48.8498 46.8432 51.1835 46.8432 54.0623C46.8432 56.9411 49.184 59.2748 52.0716 59.2748Z" fill="url(#paint14_linear)"/>
</mask>
<g mask="url(#mask7)">
<path d="M52.0716 59.2748C54.9592 59.2748 57.3 56.9411 57.3 54.0623C57.3 51.1835 54.9592 48.8498 52.0716 48.8498C49.184 48.8498 46.8432 51.1835 46.8432 54.0623C46.8432 56.9411 49.184 59.2748 52.0716 59.2748Z" fill="url(#paint15_linear)"/>
</g>
<mask id="mask8" style="mask-type:alpha" maskUnits="userSpaceOnUse" x="77" y="48" width="11" height="12">
<path d="M82.3526 59.2748C85.2402 59.2748 87.581 56.9411 87.581 54.0623C87.581 51.1835 85.2402 48.8498 82.3526 48.8498C79.4651 48.8498 77.1243 51.1835 77.1243 54.0623C77.1243 56.9411 79.4651 59.2748 82.3526 59.2748Z" fill="url(#paint16_linear)"/>
</mask>
<g mask="url(#mask8)">
<path d="M82.3526 59.2748C85.2402 59.2748 87.581 56.9411 87.581 54.0623C87.581 51.1835 85.2402 48.8498 82.3526 48.8498C79.4651 48.8498 77.1243 51.1835 77.1243 54.0623C77.1243 56.9411 79.4651 59.2748 82.3526 59.2748Z" fill="url(#paint17_linear)"/>
</g>
<mask id="mask9" style="mask-type:alpha" maskUnits="userSpaceOnUse" x="16" y="73" width="12" height="11">
<path d="M21.7905 83.6997C24.6781 83.6997 27.0189 81.366 27.0189 78.4872C27.0189 75.6085 24.6781 73.2748 21.7905 73.2748C18.903 73.2748 16.5621 75.6085 16.5621 78.4872C16.5621 81.366 18.903 83.6997 21.7905 83.6997Z" fill="url(#paint18_linear)"/>
</mask>
<g mask="url(#mask9)">
<path d="M21.7905 83.6997C24.6781 83.6997 27.0189 81.366 27.0189 78.4872C27.0189 75.6085 24.6781 73.2748 21.7905 73.2748C18.903 73.2748 16.5621 75.6085 16.5621 78.4872C16.5621 81.366 18.903 83.6997 21.7905 83.6997Z" fill="url(#paint19_linear)"/>
</g>
<mask id="mask10" style="mask-type:alpha" maskUnits="userSpaceOnUse" x="46" y="73" width="12" height="11">
<path d="M52.0716 83.6997C54.9592 83.6997 57.3 81.366 57.3 78.4872C57.3 75.6085 54.9592 73.2748 52.0716 73.2748C49.184 73.2748 46.8432 75.6085 46.8432 78.4872C46.8432 81.366 49.184 83.6997 52.0716 83.6997Z" fill="url(#paint20_linear)"/>
</mask>
<g mask="url(#mask10)">
<path d="M52.0716 83.6997C54.9592 83.6997 57.3 81.366 57.3 78.4872C57.3 75.6085 54.9592 73.2748 52.0716 73.2748C49.184 73.2748 46.8432 75.6085 46.8432 78.4872C46.8432 81.366 49.184 83.6997 52.0716 83.6997Z" fill="url(#paint21_linear)"/>
</g>
<mask id="mask11" style="mask-type:alpha" maskUnits="userSpaceOnUse" x="77" y="73" width="11" height="11">
<path d="M82.3526 83.6997C85.2402 83.6997 87.581 81.366 87.581 78.4872C87.581 75.6085 85.2402 73.2748 82.3526 73.2748C79.4651 73.2748 77.1243 75.6085 77.1243 78.4872C77.1243 81.366 79.4651 83.6997 82.3526 83.6997Z" fill="url(#paint22_linear)"/>
</mask>
<g mask="url(#mask11)">
<path d="M82.3526 83.6997C85.2402 83.6997 87.581 81.366 87.581 78.4872C87.581 75.6085 85.2402 73.2748 82.3526 73.2748C79.4651 73.2748 77.1243 75.6085 77.1243 78.4872C77.1243 81.366 79.4651 83.6997 82.3526 83.6997Z" fill="url(#paint23_linear)"/>
</g>
<mask id="mask12" style="mask-type:alpha" maskUnits="userSpaceOnUse" x="16" y="97" width="12" height="12">
<path d="M21.7905 108.125C24.6781 108.125 27.0189 105.791 27.0189 102.912C27.0189 100.033 24.6781 97.6997 21.7905 97.6997C18.903 97.6997 16.5621 100.033 16.5621 102.912C16.5621 105.791 18.903 108.125 21.7905 108.125Z" fill="url(#paint24_linear)"/>
</mask>
<g mask="url(#mask12)">
<path d="M21.7905 108.125C24.6781 108.125 27.0189 105.791 27.0189 102.912C27.0189 100.033 24.6781 97.6997 21.7905 97.6997C18.903 97.6997 16.5621 100.033 16.5621 102.912C16.5621 105.791 18.903 108.125 21.7905 108.125Z" fill="url(#paint25_linear)"/>
</g>
<mask id="mask13" style="mask-type:alpha" maskUnits="userSpaceOnUse" x="46" y="97" width="12" height="12">
<path d="M52.0716 108.125C54.9592 108.125 57.3 105.791 57.3 102.912C57.3 100.033 54.9592 97.6997 52.0716 97.6997C49.184 97.6997 46.8432 100.033 46.8432 102.912C46.8432 105.791 49.184 108.125 52.0716 108.125Z" fill="url(#paint26_linear)"/>
</mask>
<g mask="url(#mask13)">
<path d="M52.0716 108.125C54.9592 108.125 57.3 105.791 57.3 102.912C57.3 100.033 54.9592 97.6997 52.0716 97.6997C49.184 97.6997 46.8432 100.033 46.8432 102.912C46.8432 105.791 49.184 108.125 52.0716 108.125Z" fill="url(#paint27_linear)"/>
</g>
<mask id="mask14" style="mask-type:alpha" maskUnits="userSpaceOnUse" x="77" y="97" width="11" height="12">
<path d="M82.3526 108.125C85.2402 108.125 87.581 105.791 87.581 102.912C87.581 100.033 85.2402 97.6997 82.3526 97.6997C79.4651 97.6997 77.1243 100.033 77.1243 102.912C77.1243 105.791 79.4651 108.125 82.3526 108.125Z" fill="url(#paint28_linear)"/>
</mask>
<g mask="url(#mask14)">
<path d="M82.3526 108.125C85.2402 108.125 87.581 105.791 87.581 102.912C87.581 100.033 85.2402 97.6997 82.3526 97.6997C79.4651 97.6997 77.1243 100.033 77.1243 102.912C77.1243 105.791 79.4651 108.125 82.3526 108.125Z" fill="url(#paint29_linear)"/>
</g>
</g>
<defs>
<linearGradient id="paint0_linear" x1="63.4049" y1="110.551" x2="-7.99666" y2="-71.2526" gradientUnits="userSpaceOnUse">
<stop/>
<stop offset="1" stop-color="white"/>
</linearGradient>
<linearGradient id="paint1_linear" x1="63.4049" y1="110.551" x2="-7.99666" y2="-71.2526" gradientUnits="userSpaceOnUse">
<stop stop-color="#97C3F9"/>
<stop offset="1" stop-color="#93C1F9"/>
</linearGradient>
<linearGradient id="paint2_linear" x1="89.6091" y1="100.259" x2="18.2075" y2="-81.5444" gradientUnits="userSpaceOnUse">
<stop/>
<stop offset="1" stop-color="white"/>
</linearGradient>
<linearGradient id="paint3_linear" x1="89.6091" y1="100.259" x2="18.2075" y2="-81.5444" gradientUnits="userSpaceOnUse">
<stop stop-color="#97C3F9"/>
<stop offset="1" stop-color="#93C1F9"/>
</linearGradient>
<linearGradient id="paint4_linear" x1="115.813" y1="89.9679" x2="44.4119" y2="-91.8359" gradientUnits="userSpaceOnUse">
<stop/>
<stop offset="1" stop-color="white"/>
</linearGradient>
<linearGradient id="paint5_linear" x1="115.813" y1="89.9679" x2="44.4119" y2="-91.8359" gradientUnits="userSpaceOnUse">
<stop stop-color="#97C3F9"/>
<stop offset="1" stop-color="#93C1F9"/>
</linearGradient>
<linearGradient id="paint6_linear" x1="54.4624" y1="112.316" x2="-16.9379" y2="-69.4863" gradientUnits="userSpaceOnUse">
<stop/>
<stop offset="1" stop-color="white"/>
</linearGradient>
<linearGradient id="paint7_linear" x1="54.4624" y1="112.316" x2="-16.9379" y2="-69.4863" gradientUnits="userSpaceOnUse">
<stop stop-color="#97C3F9"/>
<stop offset="1" stop-color="#93C1F9"/>
</linearGradient>
<linearGradient id="paint8_linear" x1="80.6667" y1="102.025" x2="9.26634" y2="-79.7778" gradientUnits="userSpaceOnUse">
<stop/>
<stop offset="1" stop-color="white"/>
</linearGradient>
<linearGradient id="paint9_linear" x1="80.6667" y1="102.025" x2="9.26634" y2="-79.7778" gradientUnits="userSpaceOnUse">
<stop stop-color="#97C3F9"/>
<stop offset="1" stop-color="#93C1F9"/>
</linearGradient>
<linearGradient id="paint10_linear" x1="106.871" y1="91.7334" x2="35.4707" y2="-90.0691" gradientUnits="userSpaceOnUse">
<stop/>
<stop offset="1" stop-color="white"/>
</linearGradient>
<linearGradient id="paint11_linear" x1="106.871" y1="91.7334" x2="35.4707" y2="-90.0691" gradientUnits="userSpaceOnUse">
<stop stop-color="#97C3F9"/>
<stop offset="1" stop-color="#93C1F9"/>
</linearGradient>
<linearGradient id="paint12_linear" x1="45.5201" y1="114.137" x2="-25.8815" y2="-67.6665" gradientUnits="userSpaceOnUse">
<stop/>
<stop offset="1" stop-color="white"/>
</linearGradient>
<linearGradient id="paint13_linear" x1="45.5201" y1="114.137" x2="-25.8815" y2="-67.6665" gradientUnits="userSpaceOnUse">
<stop stop-color="#97C3F9"/>
<stop offset="1" stop-color="#93C1F9"/>
</linearGradient>
<linearGradient id="paint14_linear" x1="71.7243" y1="103.846" x2="0.322722" y2="-77.9581" gradientUnits="userSpaceOnUse">
<stop/>
<stop offset="1" stop-color="white"/>
</linearGradient>
<linearGradient id="paint15_linear" x1="71.7243" y1="103.846" x2="0.322722" y2="-77.9581" gradientUnits="userSpaceOnUse">
<stop stop-color="#97C3F9"/>
<stop offset="1" stop-color="#93C1F9"/>
</linearGradient>
<linearGradient id="paint16_linear" x1="97.9287" y1="93.5542" x2="26.5271" y2="-88.2496" gradientUnits="userSpaceOnUse">
<stop/>
<stop offset="1" stop-color="white"/>
</linearGradient>
<linearGradient id="paint17_linear" x1="97.9287" y1="93.5542" x2="26.5271" y2="-88.2496" gradientUnits="userSpaceOnUse">
<stop stop-color="#97C3F9"/>
<stop offset="1" stop-color="#93C1F9"/>
</linearGradient>
<linearGradient id="paint18_linear" x1="36.5777" y1="115.903" x2="-34.8239" y2="-65.9004" gradientUnits="userSpaceOnUse">
<stop/>
<stop offset="1" stop-color="white"/>
</linearGradient>
<linearGradient id="paint19_linear" x1="36.5777" y1="115.903" x2="-34.8239" y2="-65.9004" gradientUnits="userSpaceOnUse">
<stop stop-color="#97C3F9"/>
<stop offset="1" stop-color="#93C1F9"/>
</linearGradient>
<linearGradient id="paint20_linear" x1="62.782" y1="105.612" x2="-8.61963" y2="-76.1921" gradientUnits="userSpaceOnUse">
<stop/>
<stop offset="1" stop-color="white"/>
</linearGradient>
<linearGradient id="paint21_linear" x1="62.782" y1="105.612" x2="-8.61963" y2="-76.1921" gradientUnits="userSpaceOnUse">
<stop stop-color="#97C3F9"/>
<stop offset="1" stop-color="#93C1F9"/>
</linearGradient>
<linearGradient id="paint22_linear" x1="88.9863" y1="95.3203" x2="17.5847" y2="-86.4836" gradientUnits="userSpaceOnUse">
<stop/>
<stop offset="1" stop-color="white"/>
</linearGradient>
<linearGradient id="paint23_linear" x1="88.9863" y1="95.3203" x2="17.5847" y2="-86.4836" gradientUnits="userSpaceOnUse">
<stop stop-color="#97C3F9"/>
<stop offset="1" stop-color="#93C1F9"/>
</linearGradient>
<linearGradient id="paint24_linear" x1="27.6353" y1="117.724" x2="-43.7663" y2="-64.08" gradientUnits="userSpaceOnUse">
<stop/>
<stop offset="1" stop-color="white"/>
</linearGradient>
<linearGradient id="paint25_linear" x1="27.6353" y1="117.724" x2="-43.7663" y2="-64.08" gradientUnits="userSpaceOnUse">
<stop stop-color="#97C3F9"/>
<stop offset="1" stop-color="#93C1F9"/>
</linearGradient>
<linearGradient id="paint26_linear" x1="53.8397" y1="107.432" x2="-17.562" y2="-74.3717" gradientUnits="userSpaceOnUse">
<stop/>
<stop offset="1" stop-color="white"/>
</linearGradient>
<linearGradient id="paint27_linear" x1="53.8397" y1="107.432" x2="-17.562" y2="-74.3717" gradientUnits="userSpaceOnUse">
<stop stop-color="#97C3F9"/>
<stop offset="1" stop-color="#93C1F9"/>
</linearGradient>
<linearGradient id="paint28_linear" x1="80.044" y1="97.1406" x2="8.64237" y2="-84.6632" gradientUnits="userSpaceOnUse">
<stop/>
<stop offset="1" stop-color="white"/>
</linearGradient>
<linearGradient id="paint29_linear" x1="80.044" y1="97.1406" x2="8.64237" y2="-84.6632" gradientUnits="userSpaceOnUse">
<stop stop-color="#97C3F9"/>
<stop offset="1" stop-color="#93C1F9"/>
</linearGradient>
</defs>
</svg>
