<svg width="530" height="370" viewBox="0 0 530 370" fill="none" xmlns="http://www.w3.org/2000/svg">
<g clip-path="url(#clip0)">
<path opacity="0.1" d="M420.821 323.054C481.119 323.054 530 313.566 530 301.862C530 290.157 481.119 280.669 420.821 280.669C360.523 280.669 311.642 290.157 311.642 301.862C311.642 313.566 360.523 323.054 420.821 323.054Z" fill="#6C63FF"/>
<g opacity="0.5">
<path opacity="0.5" d="M327.304 53.3789C325.832 53.7968 324.029 54.8853 323.141 57.862C321.4 63.6967 325.445 67.6638 324.112 73.7462C323.741 75.3592 323.037 76.8773 322.046 78.2034C320.419 80.4063 318.652 81.4484 316.937 82.9909C314.762 84.9619 313.203 87.5182 312.448 90.3526C311.623 93.4815 311.553 96.7616 312.247 99.9223C312.856 102.564 313.894 104.488 314.804 106.629C315.935 109.359 316.819 112.186 317.443 115.074C317.788 116.48 317.982 117.919 318.022 119.366C317.997 121.289 317.824 123.207 317.505 125.103L315.031 142.339C314.653 144.593 314.427 146.869 314.354 149.154C314.387 151.443 314.652 153.722 315.145 155.958C316.012 160.519 316.947 165.244 318.936 167.658C320.925 170.073 324.313 169.206 326.395 164.321C328.373 159.647 328.42 153.41 330.166 148.416C332.919 140.549 338.389 139.491 341.427 131.985C344.34 124.762 343.446 115.951 344.924 107.738C345.957 101.852 348.235 96.4865 349.573 90.6724C351.494 82.2996 351.303 73.6069 349.769 67.1686C348.6 61.8794 346.076 56.9839 342.444 52.961C341.158 51.5424 339.779 50.2784 338.162 50.1495C336.442 50.0153 334.939 52.1769 333.239 52.8269C331.276 53.6059 329.303 52.8114 327.304 53.3789Z" fill="#6C63FF"/>
<path opacity="0.5" d="M336.618 50.5931C336.618 50.5931 333.699 125.056 321.452 168.964" stroke="#535461" stroke-width="2" stroke-miterlimit="10"/>
<path opacity="0.5" d="M323.068 58.2128C323.068 58.2128 336.163 70.1195 333.678 92.7773" stroke="#535461" stroke-width="2" stroke-miterlimit="10"/>
<path opacity="0.5" d="M312.081 92.0963C312.081 92.0963 333.575 96.4143 331.979 109.255" stroke="#535461" stroke-width="2" stroke-miterlimit="10"/>
<path opacity="0.5" d="M349.805 67.019C349.805 67.019 341.107 74.6232 333.358 96.1615" stroke="#535461" stroke-width="2" stroke-miterlimit="10"/>
<path opacity="0.5" d="M341.308 132.114C341.308 132.114 335.373 136.757 330.61 120.501" stroke="#535461" stroke-width="2" stroke-miterlimit="10"/>
<path opacity="0.5" d="M315.697 141.611C315.697 141.611 327.8 140.033 328.916 132.465" stroke="#535461" stroke-width="2" stroke-miterlimit="10"/>
</g>
<path d="M356.562 3.43582C353.566 3.87948 349.96 5.26722 348.478 9.54393C345.569 17.9323 354.408 24.2829 352.373 33.0478C351.763 35.46 350.482 37.6509 348.679 39.3674C345.58 42.4163 342.036 43.7473 338.679 45.816C335.321 47.8847 331.834 51.14 330.259 56.1338C328.745 60.9367 329.401 66.24 330.977 70.202C332.552 74.1641 334.934 77.1201 337.062 80.3805C339.648 84.3938 341.81 88.6641 343.514 93.1229C344.372 95.1556 344.949 97.2956 345.229 99.4838C345.502 102.166 345.156 105.05 344.81 107.872L341.711 133.017C341.303 136.36 340.89 139.754 341.122 142.973C341.385 146.682 342.486 149.922 343.57 153.085C345.905 159.905 348.405 167.014 352.812 170.769C357.218 174.525 364.129 173.72 367.854 166.735C371.397 160.085 370.746 150.908 373.768 143.763C378.531 132.501 389.73 131.588 395.117 120.898C400.283 110.643 397.395 97.5235 399.472 85.6065C400.96 77.0685 404.989 69.4334 407.055 61.0296C410.035 48.9217 408.605 36.1018 404.668 26.4651C400.732 16.8283 394.508 9.95664 387.829 4.67911C384.998 2.435 381.997 0.407558 378.634 0.0361185C375.065 -0.361115 372.208 2.64135 368.82 3.39971C364.801 4.23029 360.627 2.83223 356.562 3.43582Z" fill="#6C63FF"/>
<path d="M375.509 0.43335C375.509 0.43335 378.329 109.745 358.173 172.957" stroke="#535461" stroke-width="2" stroke-miterlimit="10"/>
<path d="M348.364 10.0701C348.364 10.0701 376.878 29.158 374.435 62.2574" stroke="#535461" stroke-width="2" stroke-miterlimit="10"/>
<path d="M329.649 58.6513C329.649 58.6513 374.652 67.5555 372.875 86.2719" stroke="#535461" stroke-width="2" stroke-miterlimit="10"/>
<path d="M404.751 26.1865C404.751 26.1865 387.648 36.3546 374.176 67.1531" stroke="#535461" stroke-width="2" stroke-miterlimit="10"/>
<path d="M394.88 121.043C394.88 121.043 383.154 127.233 371.361 102.672" stroke="#535461" stroke-width="2" stroke-miterlimit="10"/>
<path d="M342.997 131.985C342.997 131.985 367.859 131.092 369.274 120.078" stroke="#535461" stroke-width="2" stroke-miterlimit="10"/>
<path d="M34.7434 298.441C34.7434 298.441 39.0721 304.116 32.7444 312.628C26.4166 321.14 21.1839 328.373 23.3121 333.697C23.3121 333.697 32.858 317.844 40.627 317.622C48.3959 317.4 43.2924 307.985 34.7434 298.441Z" fill="#6C63FF"/>
<path opacity="0.1" d="M34.7435 298.441C35.1255 298.983 35.4298 299.575 35.6474 300.2C43.2304 309.094 47.2647 317.395 39.9813 317.606C33.1938 317.802 25.0529 329.921 23.1003 332.985C23.1622 333.222 23.2399 333.455 23.3328 333.681C23.3328 333.681 32.8787 317.828 40.6477 317.606C48.4166 317.385 43.2924 307.985 34.7435 298.441Z" fill="black"/>
<path d="M42.7913 305.648C42.7913 307.639 42.5692 309.259 42.2748 309.259C41.9803 309.259 41.7582 307.645 41.7582 305.648C41.7582 303.652 42.0372 304.616 42.3109 304.616C42.5847 304.616 42.7913 303.657 42.7913 305.648Z" fill="#FFD037"/>
<path d="M45.5549 308.021C43.8038 308.976 42.28 309.569 42.1508 309.306C42.0217 309.043 43.3286 308.093 45.0797 307.144C46.8308 306.195 46.1128 306.886 46.2729 307.144C46.4331 307.402 47.3009 307.067 45.5549 308.021Z" fill="#FFD037"/>
<path d="M11.8859 298.441C11.8859 298.441 7.55719 304.116 13.885 312.628C20.2128 321.14 25.43 328.368 23.3173 333.692C23.3173 333.692 13.7713 317.839 6.00237 317.617C-1.76661 317.395 3.33178 307.985 11.8859 298.441Z" fill="#6C63FF"/>
<path opacity="0.1" d="M11.8859 298.441C11.51 298.982 11.2142 299.575 11.0078 300.2C3.42474 309.094 -0.609543 317.395 6.67387 317.606C13.4614 317.802 21.6023 329.921 23.5549 332.985C23.493 333.222 23.4153 333.455 23.3224 333.681C23.3224 333.681 13.7765 317.844 6.00751 317.622C-1.76146 317.4 3.33176 307.985 11.8859 298.441Z" fill="black"/>
<path d="M3.83285 305.648C3.83285 307.639 4.05497 309.259 4.3494 309.259C4.64384 309.259 4.86596 307.645 4.86596 305.648C4.86596 303.652 4.58702 304.616 4.31324 304.616C4.03947 304.616 3.83285 303.657 3.83285 305.648Z" fill="#FFD037"/>
<path d="M1.06927 308.021C2.82039 308.976 4.34423 309.569 4.47337 309.306C4.6025 309.043 3.29562 308.093 1.55484 307.144C-0.185951 306.195 0.521728 306.886 0.361596 307.144C0.201464 307.402 -0.676678 307.067 1.06927 308.021Z" fill="#FFD037"/>
<path d="M5.21201 332.954C5.21201 332.954 17.3149 332.583 20.9617 329.988C24.6086 327.393 39.5577 324.313 40.4823 328.44C41.407 332.567 58.6702 349.132 45.0073 349.241C31.3445 349.349 13.2599 347.115 9.61821 344.902C5.97651 342.689 5.21201 332.954 5.21201 332.954Z" fill="#A8A8A8"/>
<path opacity="0.2" d="M45.2501 347.807C31.5873 347.915 13.5027 345.681 9.86099 343.468C7.0871 341.781 5.98167 335.73 5.61492 332.939H5.21201C5.21201 332.939 5.97651 342.689 9.61821 344.902C13.2599 347.115 31.3445 349.354 45.0073 349.241C48.9538 349.21 50.3123 347.807 50.24 345.733C49.6925 347.002 48.1893 347.786 45.2501 347.807Z" fill="black"/>
<path d="M507.447 296.073C508.394 295.303 509.084 294.263 509.426 293.091C509.684 291.905 509.178 290.512 508.041 290.053C506.771 289.568 505.412 290.445 504.384 291.337C503.356 292.23 502.173 293.241 500.825 293.05C501.518 292.423 502.037 291.627 502.33 290.74C502.624 289.853 502.682 288.905 502.499 287.989C502.443 287.609 502.282 287.251 502.034 286.957C501.326 286.204 500.05 286.529 499.203 287.123C496.517 289.011 495.768 292.653 495.752 295.934C495.484 294.753 495.711 293.52 495.701 292.323C495.69 291.126 495.36 289.743 494.337 289.114C493.703 288.774 492.991 288.605 492.271 288.624C491.062 288.577 489.719 288.701 488.893 289.583C487.86 290.677 488.133 292.519 489.027 293.71C489.921 294.902 491.274 295.671 492.524 296.507C493.526 297.101 494.38 297.914 495.024 298.885C495.102 299.018 495.164 299.16 495.21 299.308H502.778C504.473 298.445 506.044 297.357 507.447 296.073Z" fill="#6C63FF"/>
<path opacity="0.1" d="M285.324 247.735C407.332 247.735 506.239 238.246 506.239 226.542C506.239 214.837 407.332 205.349 285.324 205.349C163.316 205.349 64.4091 214.837 64.4091 226.542C64.4091 238.246 163.316 247.735 285.324 247.735Z" fill="#6C63FF"/>
<path opacity="0.1" d="M115.538 370C175.835 370 224.717 360.512 224.717 348.807C224.717 337.103 175.835 327.615 115.538 327.615C55.2398 327.615 6.35878 337.103 6.35878 348.807C6.35878 360.512 55.2398 370 115.538 370Z" fill="#6C63FF"/>
<path d="M227.144 219.933L225.414 222.446C225.414 222.446 227.299 224.958 227.48 225.273C227.661 225.587 232.981 225.118 232.981 225.118L233.451 223.235L232.666 221.037L227.144 219.933Z" fill="#E6E6F0"/>
<path d="M168.965 218.52L165.504 219.144L167.704 223.39L170.065 224.643L172.266 226.212L172.896 224.489L171.32 221.187L168.965 218.52Z" fill="#FDC2CC"/>
<path d="M225.574 177.687C225.574 177.687 243.974 182.083 247.429 186.973C247.429 186.973 250.575 189.646 247.429 194.51C244.284 199.375 239.883 210.374 239.883 210.374C239.883 210.374 236.737 221.053 235.482 221.837C234.226 222.621 226.989 223.251 226.359 220.289C226.359 220.289 230.445 213.851 230.445 210.864C230.445 207.877 237.207 193.747 237.207 193.747C237.207 193.747 221.798 192.019 216.922 193.117C212.045 194.216 219.127 175.959 225.574 177.687Z" fill="#565171"/>
<path opacity="0.1" d="M225.574 177.687C225.574 177.687 243.974 182.083 247.429 186.973C247.429 186.973 250.575 189.646 247.429 194.51C244.284 199.375 239.883 210.374 239.883 210.374C239.883 210.374 236.737 221.053 235.482 221.837C234.226 222.621 226.989 223.251 226.359 220.289C226.359 220.289 230.445 213.851 230.445 210.864C230.445 207.877 237.207 193.747 237.207 193.747C237.207 193.747 221.798 192.019 216.922 193.117C212.045 194.216 219.127 175.959 225.574 177.687Z" fill="black"/>
<path d="M221.798 181.928C221.762 182.841 221.664 183.868 221.524 184.972C220.517 192.968 217.237 204.859 217.237 204.859C217.237 204.859 213.936 211.927 212.991 216.482C212.045 221.037 205.599 222.157 205.599 222.157C205.599 222.157 187.984 224.22 184.368 223.416C180.753 222.611 175.071 225.773 172.26 225.299C169.45 224.824 167.699 218.231 167.699 218.231C172.576 218.26 177.403 217.243 181.853 215.249C189.085 211.953 199.467 213.521 199.467 213.521C200.242 213.296 200.962 212.916 201.584 212.403C202.206 211.89 202.716 211.256 203.083 210.539C204.184 208.181 204.183 193.891 203.868 192.947C201.802 186.757 201.973 182.784 202.567 180.468C202.764 179.456 203.212 178.509 203.868 177.713L221.798 181.928Z" fill="#565171"/>
<path opacity="0.1" d="M221.798 181.928C221.762 182.841 221.664 183.868 221.524 184.972C219.944 185.095 215.512 185.214 212.226 183.187C209.127 181.288 204.617 180.643 202.587 180.442C202.785 179.43 203.232 178.483 203.889 177.687L221.798 181.928Z" fill="black"/>
<path d="M223.973 179.962C223.239 182.026 222.113 184.445 222.113 184.445C222.113 184.445 216.297 185.23 212.206 182.717C208.114 180.205 201.513 179.89 201.513 179.89C202.582 179.235 203.305 177.244 203.755 175.5C204.008 174.514 204.204 173.515 204.344 172.508C204.344 172.508 223.683 176.434 224.489 177.063C224.789 177.311 224.469 178.559 223.973 179.962Z" fill="#E6E6F0"/>
<path d="M258.437 113.769L234.98 127.894L232.651 129.297V122.405L234.268 121.631L254.036 112.195C254.036 112.195 254.981 95.0782 257.497 97.7505C260.013 100.423 258.437 113.769 258.437 113.769Z" fill="#FDC2CC"/>
<path opacity="0.1" d="M234.98 127.894L232.651 129.297V122.405L234.268 121.631C234.376 123.731 234.614 125.823 234.98 127.894Z" fill="black"/>
<path d="M216.927 130.437L233.751 120.718C233.751 120.718 234.066 130.143 235.952 131.551C235.952 131.551 229.035 133.615 226.359 137.99L216.927 130.437Z" fill="#B45181"/>
<path opacity="0.1" d="M216.927 130.437L233.751 120.718C233.751 120.718 234.066 130.143 235.952 131.551C235.952 131.551 229.035 133.615 226.359 137.99L216.927 130.437Z" fill="black"/>
<path d="M258.282 138.727C258.282 138.727 250.281 142.21 244.981 143.489C243.788 143.848 242.541 143.992 241.298 143.912C237.682 143.283 242.243 138.753 242.243 138.753L244.144 138.459L254.351 136.87C254.351 136.87 255.452 121.167 257.337 122.425C259.222 123.684 258.282 138.727 258.282 138.727Z" fill="#FDC2CC"/>
<path d="M224.474 124.602C224.474 124.602 217.712 129.627 220.228 135.911C222.743 142.194 207.174 132.14 207.174 132.14C207.174 132.14 212.206 124.602 213.306 118.948C214.406 113.294 224.474 124.602 224.474 124.602Z" fill="#FDC2CC"/>
<path opacity="0.1" d="M223.973 179.962C221.048 178.863 217.991 178.152 214.881 177.847C210.336 177.331 206.172 176.459 203.76 175.5C204.013 174.514 204.209 173.515 204.349 172.508C204.349 172.508 223.689 176.434 224.494 177.063C224.789 177.311 224.469 178.559 223.973 179.962Z" fill="black"/>
<path opacity="0.1" d="M244.981 143.499C243.788 143.859 242.541 144.002 241.298 143.922C237.682 143.293 242.243 138.764 242.243 138.764L244.144 138.469C244.94 139.692 245.751 141.601 244.981 143.499Z" fill="black"/>
<path d="M213.466 127.424C213.466 127.424 207.334 127.27 205.134 129.782C202.933 132.294 203.403 139.068 203.403 139.068C203.403 139.068 202.944 152.631 206.389 160.219C206.503 160.464 206.516 160.744 206.425 160.998C206.389 161.091 206.389 161.034 206.389 161.034C206.389 161.034 204.189 170.929 201.988 172.657C199.788 174.386 206.704 176.429 214.902 177.367C223.1 178.306 226.38 180.664 226.38 180.664C226.38 180.664 227.795 179.116 227.929 175.639C228.064 172.162 225.739 146.904 225.739 146.904C225.739 146.904 234.386 149.102 239.578 146.435C239.578 146.435 241.938 147.694 244.139 144.237C246.339 140.781 242.589 137.015 242.589 137.015C242.589 137.015 239.128 140.471 229.536 135.916C219.944 131.361 216.441 127.275 213.466 127.424Z" fill="#B45181"/>
<path d="M166.449 218.835H164.564V221.507L166.449 225.747C166.449 225.747 168.965 226.217 169.125 226.217C169.285 226.217 171.326 225.747 171.326 225.747L171.956 224.649C171.956 224.649 165.034 221.971 166.449 218.835Z" fill="#E6E6F0"/>
<path d="M225.574 221.347L222.743 227.63L234.696 233.305L244.134 233.62C244.134 233.62 244.919 231.422 241.773 230.323L239.258 229.854C239.258 229.854 235.957 223.885 235.642 221.084C235.642 221.084 232.496 221.713 232.026 224.066C232.021 224.014 227.62 226.212 225.574 221.347Z" fill="#B45181"/>
<path d="M165.034 218.221L164.073 219.005L159.848 222.461L169.595 235.358C169.595 235.358 175.096 237.716 177.617 235.358C177.617 235.358 179.167 233.811 175.732 232.531C175.732 232.531 173.056 233.001 173.056 230.334C173.056 227.667 173.686 224.839 174.606 224.21C174.606 224.21 172.245 223.426 171.62 224.055C171.14 224.585 170.717 225.164 170.36 225.784C170.36 225.784 164.719 223.545 165.034 218.221Z" fill="#B45181"/>
<path opacity="0.1" d="M212.996 119.263C212.835 120.059 212.625 120.845 212.366 121.615C213.183 123.578 214.733 125.145 216.688 125.984C218.643 126.823 220.849 126.868 222.836 126.109C223.25 125.681 223.694 125.283 224.164 124.917C224.164 124.917 214.096 113.609 212.996 119.263Z" fill="black"/>
<path opacity="0.1" d="M212.128 140.239C212.128 140.239 217.004 146.677 224.081 146.837L212.128 140.239Z" fill="black"/>
<g opacity="0.1">
<path opacity="0.1" d="M241.272 146.543C241.172 146.517 241.075 146.481 240.983 146.435C240.833 146.512 240.678 146.59 240.518 146.657C240.773 146.652 241.027 146.614 241.272 146.543Z" fill="black"/>
<path opacity="0.1" d="M242.946 137.66C242.775 137.443 242.589 137.231 242.398 137.03C242.398 137.03 241.365 138.062 238.813 138.258C240.219 138.397 241.637 138.191 242.946 137.66Z" fill="black"/>
<path opacity="0.1" d="M227.144 146.904L227.175 147.24C229.25 147.622 231.358 147.795 233.467 147.755C231.337 147.679 229.219 147.393 227.144 146.904Z" fill="black"/>
<path opacity="0.1" d="M216.297 177.383C208.12 176.439 201.203 174.401 203.383 172.673C205.563 170.945 207.784 161.05 207.784 161.05C207.784 161.05 207.784 161.107 207.82 161.014C207.911 160.759 207.898 160.48 207.784 160.235C204.338 152.625 204.798 139.083 204.798 139.083C204.798 139.083 204.328 132.33 206.529 129.797C208.166 127.925 211.983 127.538 213.828 127.46C213.656 127.445 213.483 127.445 213.311 127.46C213.311 127.46 207.18 127.306 204.979 129.818C202.778 132.33 203.249 139.104 203.249 139.104C203.249 139.104 202.789 152.667 206.234 160.255C206.348 160.5 206.361 160.78 206.27 161.034C206.234 161.127 206.234 161.071 206.234 161.071C206.234 161.071 204.049 170.934 201.828 172.663C199.607 174.391 206.544 176.434 214.742 177.373C222.94 178.312 226.22 180.669 226.22 180.669C226.385 180.473 226.531 180.26 226.654 180.035C225.057 179.266 221.772 177.981 216.297 177.383Z" fill="black"/>
</g>
<path d="M220.228 126.331C224.744 126.331 228.405 122.674 228.405 118.164C228.405 113.654 224.744 109.998 220.228 109.998C215.712 109.998 212.051 113.654 212.051 118.164C212.051 122.674 215.712 126.331 220.228 126.331Z" fill="#FDC2CC"/>
<path opacity="0.1" d="M231.866 114.527C231.189 116.219 229.169 116.859 227.397 117.297C224.866 117.916 222.139 118.525 219.716 117.566C219.402 117.39 219.04 117.319 218.683 117.365C218.395 117.479 218.155 117.689 218.001 117.958C215.331 121.755 215.765 126.816 215.072 131.407C214.856 132.836 214.489 134.311 213.523 135.379C211.643 137.443 208.094 137.365 206.363 139.558C205.222 141.002 205.211 143.009 205.222 144.851C205.222 146.818 205.205 148.784 205.17 150.748C205.139 152.037 205.077 153.373 204.493 154.519C203.502 156.458 201.291 157.382 199.25 158.13C197.98 158.605 196.668 159.084 195.304 158.955C193.94 158.826 192.577 157.924 192.401 156.562C192.158 154.715 194.064 153.425 195.376 152.094C197.473 149.974 198.336 146.889 198.414 143.907C198.486 142.703 198.31 141.497 197.897 140.363C197.417 139.192 196.559 138.206 196.043 137.051C194.452 133.491 196.415 129.374 198.765 126.258C201.115 123.142 204.003 120.104 204.504 116.24C204.548 115.404 204.667 114.573 204.86 113.758C205.222 112.634 206.079 109.528 207.025 108.816C208.537 107.677 210.314 106.938 212.19 106.67C213.642 106.459 215.124 106.536 216.565 106.257C218.249 105.932 219.814 105.133 221.498 104.834C225.114 104.189 229.092 108.414 230.688 111.746C231.127 112.752 232.279 113.495 231.866 114.527Z" fill="black"/>
<path d="M231.866 114.197C231.189 115.889 229.169 116.529 227.397 116.967C224.866 117.586 222.139 118.195 219.716 117.236C219.402 117.06 219.04 116.989 218.683 117.034C218.391 117.144 218.147 117.352 217.991 117.622C215.32 121.419 215.754 126.48 215.062 131.072C214.845 132.501 214.478 133.976 213.512 135.044C211.632 137.108 208.084 137.03 206.353 139.223C205.211 140.667 205.201 142.674 205.211 144.516C205.211 146.483 205.194 148.448 205.16 150.412C205.129 151.702 205.067 153.038 204.483 154.183C203.491 156.123 201.281 157.047 199.24 157.795C197.969 158.269 196.657 158.749 195.294 158.62C193.93 158.491 192.566 157.588 192.391 156.226C192.148 154.379 194.054 153.09 195.366 151.759C197.463 149.638 198.326 146.553 198.403 143.572C198.475 142.367 198.3 141.161 197.887 140.027C197.406 138.856 196.549 137.871 196.032 136.715C194.441 133.156 196.404 129.039 198.755 125.923C201.105 122.807 203.992 119.769 204.493 115.905C204.537 115.068 204.656 114.238 204.85 113.423C205.211 112.298 206.069 109.193 207.014 108.481C208.527 107.341 210.304 106.603 212.18 106.335C213.631 106.123 215.114 106.201 216.555 105.922C218.239 105.597 219.804 104.797 221.488 104.498C225.104 103.853 229.081 108.079 230.678 111.411C231.127 112.417 232.279 113.16 231.866 114.197Z" fill="#F569BC"/>
<path d="M258.582 98.158H394.518V233.909H258.582V98.158Z" fill="#F7DF1E"/>
<path d="M294.038 211.947L304.441 205.659C306.451 209.213 308.274 212.221 312.655 212.221C316.854 212.221 319.499 210.58 319.499 204.204V160.823H332.273V204.379C332.273 217.591 324.525 223.606 313.202 223.606C302.985 223.606 297.055 218.319 294.043 211.942L294.038 211.947ZM339.211 210.575L349.609 204.56C352.347 209.027 355.906 212.298 362.203 212.298C367.497 212.298 370.87 209.657 370.87 206.01C370.87 201.635 367.404 200.087 361.572 197.533L358.38 196.166C349.165 192.251 343.049 187.329 343.049 176.939C343.049 167.37 350.348 160.08 361.753 160.08C369.873 160.08 375.7 162.907 379.91 170.284L369.966 176.666C367.776 172.745 365.405 171.197 361.753 171.197C358.013 171.197 355.637 173.565 355.637 176.666C355.637 180.494 358.008 182.041 363.484 184.404L366.676 185.771C377.524 190.414 383.65 195.155 383.65 205.819C383.65 217.302 374.615 223.591 362.471 223.591C350.59 223.591 342.945 217.916 339.226 210.56" fill="black"/>
<path d="M453.86 309.595C453.86 309.595 448.555 309.966 445.28 304.291C444.642 303.148 443.885 302.074 443.023 301.088C441.965 299.356 441.416 297.363 441.437 295.336C441.618 291.131 437.227 268.102 437.227 268.102C437.227 268.102 437.774 259.332 433.384 253.848C430.491 250.237 426.333 239.919 423.827 233.254C423.996 233.403 424.198 233.509 424.416 233.563L424.313 232.99H424.416L423.12 225.876C421.244 223.713 419.662 221.312 418.414 218.736L418.708 218.675L422.593 217.859C422.593 217.859 428.905 208.898 429.308 204.493H430.553C436.396 204.462 442.236 204.766 448.044 205.406L447.951 205.086C447.705 204.199 447.515 203.298 447.382 202.388H447.744L451.36 202.151C451.36 202.151 463.757 188.273 459.222 185.694C454.686 183.114 449.888 197.208 449.888 197.208L448.338 197.487L447.92 197.564C447.961 197.503 448.002 197.446 448.049 197.389C448.095 197.332 427.738 196.481 424.602 191.539C424.602 191.539 415.635 184.409 415.268 179.673C415.202 178.691 414.866 177.746 414.297 176.942C413.729 176.137 412.949 175.505 412.045 175.113C410.937 174.585 409.71 174.356 408.486 174.447L404.286 174.736L404.581 175.252H404.467C404.203 174.65 403.982 174.029 403.806 173.395H403.894C403.863 173.266 403.837 173.137 403.811 173.008C406.36 172.406 408.566 170.819 409.944 168.594C411.322 166.369 411.76 163.69 411.162 161.143C411.15 161.045 411.125 160.95 411.089 160.859C411.5 160.912 411.917 160.899 412.324 160.823C413.873 160.508 414.963 158.94 415.005 157.372V157.005C414.987 156.215 414.792 155.439 414.435 154.733C414.077 154.028 413.566 153.412 412.939 152.93C412.102 152.233 411.1 151.738 410.356 150.964C409.452 150.041 408.956 148.803 408.253 147.714C407.076 145.914 405.331 144.558 403.294 143.86C401.781 143.345 399.921 143.293 398.759 144.376C398.16 144.939 397.814 145.754 397.142 146.228C396.176 146.92 394.864 146.713 393.681 146.853C392.61 147.018 391.596 147.443 390.729 148.092C389.861 148.741 389.167 149.592 388.707 150.572C388.129 151.8 387.849 153.147 387.891 154.503C387.879 155.434 387.99 156.362 388.221 157.263C388.449 158.161 388.784 159.028 389.032 159.925C389.549 161.782 389.668 163.738 390.262 165.569C390.662 166.928 391.459 168.137 392.55 169.041L392.375 169.794C392.261 169.794 389.409 170.429 387.441 174.726C385.892 178.115 380.618 181.613 378.298 183.027C377.867 183.292 377.492 183.64 377.196 184.051C376.9 184.462 376.688 184.927 376.573 185.42C376.351 186.418 376.252 187.438 376.279 188.459C376.237 190.662 376.697 193.711 378.469 197.575C382.493 206.345 385.422 210.183 385.422 210.183C385.422 210.183 385.644 212.871 385.659 215.703C385.659 217.813 385.504 219.913 385.055 220.965C384.673 221.852 384.538 224.117 384.569 226.707C384.569 231.67 385.055 238.144 385.055 238.144C385.055 238.144 386.455 238.412 388.619 238.727L389.967 262.417C390.137 265.286 389.214 268.112 387.385 270.33C386.44 271.498 385.348 272.538 384.135 273.426C380.292 276.165 372.058 305.045 372.058 305.045C372.414 305.05 372.77 305.075 373.123 305.122L370.591 312.174C370.591 312.174 380.706 319.912 386.858 317.797C387.524 317.58 388.224 317.483 388.924 317.508C390.138 317.508 392.736 316.549 391.29 315.285C388.496 312.717 385.862 309.981 383.402 307.093C383.6 307.189 383.79 307.301 383.97 307.428V307.371L384.058 307.428C384.065 307.177 384.087 306.928 384.125 306.68L384.037 306.649C384.223 304.75 384.812 299.942 385.98 299.385C387.421 298.653 398.268 277.254 398.268 277.254L409.064 249.473C409.064 249.473 417.665 264.279 424.985 266.833V273.023C424.985 273.023 429.008 291.301 430.476 293.308C431.943 295.315 430.476 303.358 430.476 303.358C430.764 303.689 431.096 303.981 431.462 304.224L430.295 310.848C430.295 310.848 438.715 310.482 452.987 314.867C452.946 314.893 458.437 312.52 453.86 309.595ZM420.191 214.011L418.409 214.455L418.058 214.542C418.021 214.32 417.996 214.192 417.996 214.192C417.587 214.376 417.147 214.483 416.699 214.506C416.068 212.508 415.703 210.435 415.614 208.341C415.014 205.836 414.649 203.28 414.524 200.706C414.524 199.375 414.746 198.214 415.248 197.559L415.831 197.585L416.244 197.977L416.275 198.003L416.487 198.194L416.709 198.39L416.746 198.421L416.983 198.632L417.024 198.668L417.267 198.875L417.541 199.102L417.603 199.153L417.892 199.386L418.176 199.613L418.244 199.664L418.559 199.901L418.626 199.948L418.925 200.17L418.977 200.206L419.318 200.448L419.401 200.505L419.762 200.753H419.793L420.144 200.985L420.227 201.042L420.604 201.284L420.687 201.336L421.038 201.552L421.105 201.594L421.508 201.831L421.606 201.888L422.025 202.12H422.056L422.464 202.336L422.562 202.388L422.996 202.605L423.084 202.646L423.487 202.832L423.564 202.868L424.019 203.064L424.127 203.11L424.597 203.301C421.689 206.531 420.191 214.011 420.191 214.011Z" fill="url(#paint0_linear)"/>
<path d="M375.054 300.763L371.661 310.219C371.661 310.219 380.959 317.338 387.002 315.863C387.913 315.636 388.841 315.486 389.776 315.414C391.026 315.321 393.18 314.382 391.842 313.252C387.555 309.507 381.837 302.548 381.837 302.548L375.054 300.763Z" fill="#4F4D59"/>
<path d="M431.509 299.87L429.902 308.97C429.902 308.97 438.121 308.615 452.057 312.896C452.057 312.896 457.419 310.575 452.951 307.738C452.951 307.738 447.785 308.093 444.557 302.579C441.328 297.064 439.391 297.76 439.391 297.76L431.509 299.87Z" fill="#4F4D59"/>
<path d="M388.97 233.857L390.52 261.555C390.69 264.506 389.711 267.408 387.788 269.655C386.918 270.681 385.928 271.599 384.838 272.389C381.088 275.066 373.045 303.254 373.045 303.254C373.045 303.254 382.157 303.77 384.657 305.576C384.657 305.576 385.174 298.441 386.62 297.724C388.066 297.007 398.589 276.134 398.589 276.134L409.116 249.024C409.116 249.024 417.51 263.469 424.659 265.976V272.043C424.659 272.043 428.59 289.888 430.021 291.848C431.452 293.808 430.021 301.65 430.021 301.65C430.021 301.65 434.153 306.809 443.596 301.294C443.596 301.294 440.559 297.905 440.739 293.798C440.92 289.692 436.607 267.214 436.607 267.214C436.607 267.214 437.124 258.651 432.857 253.285C428.59 247.92 421.493 227.424 421.493 227.424L416.575 216.859L388.97 233.857Z" fill="#C48C96"/>
<g opacity="0.1">
<path opacity="0.1" d="M374.786 303.26C374.786 303.26 382.823 275.071 386.579 272.389C387.732 271.547 388.773 270.563 389.678 269.459C391.511 267.243 392.434 264.414 392.261 261.545L390.711 233.847L417.055 217.627L416.699 216.859L389.079 233.852L390.629 261.55C390.802 264.419 389.879 267.248 388.046 269.464C387.141 270.568 386.1 271.552 384.946 272.394C381.201 275.066 373.154 303.254 373.154 303.254C373.154 303.254 382.266 303.77 384.766 305.576C384.772 305.329 384.796 305.082 384.838 304.838C381.341 303.646 374.786 303.26 374.786 303.26Z" fill="black"/>
<path opacity="0.1" d="M431.777 301.655C431.777 301.655 433.208 293.803 431.777 291.853C430.346 289.903 426.415 272.048 426.415 272.048V265.971C419.271 263.474 410.872 249.019 410.872 249.019L410.252 250.639C412.675 254.477 419.137 264.001 424.814 265.982V272.048C424.814 272.048 428.745 289.883 430.176 291.853C431.607 293.824 430.176 301.655 430.176 301.655C430.176 301.655 432.17 304.162 436.571 303.822C433.28 303.548 431.777 301.655 431.777 301.655Z" fill="black"/>
</g>
<path d="M450.44 202.811L446.933 203.043L445.084 203.167V198.705L447.511 198.266L449.015 197.993C449.015 197.993 453.664 184.255 458.127 186.751C462.59 189.248 450.44 202.811 450.44 202.811Z" fill="#714B4F"/>
<path d="M394.172 166.033C394.172 166.033 391.848 174.953 391.135 180.478C390.422 186.003 407.747 181.546 407.747 181.546C407.747 181.546 401.135 173.519 404.891 169.237L394.172 166.033Z" fill="#714B4F"/>
<path d="M412.928 203.177L413.285 206.567L407.747 206.211L402.21 201.392L396.672 185.864L393.103 180.329L390.422 176.95L391.496 172.822C391.496 172.822 392.013 173.251 392.814 173.854C395.536 175.918 401.915 180.256 406.58 179.06C406.795 179.003 407.007 178.936 407.215 178.858L414.189 190.817L412.928 203.177Z" fill="#E6E6F0"/>
<path opacity="0.1" d="M392.922 171.744C392.922 171.744 390.065 172.26 388.097 176.563C386.589 179.854 381.486 183.269 379.208 184.647C378.773 184.912 378.396 185.261 378.099 185.674C377.801 186.087 377.59 186.555 377.477 187.051C377.017 189.083 376.842 192.875 379.342 198.328C383.288 206.871 386.129 210.637 386.129 210.637C386.129 210.637 386.842 219.201 385.773 221.698C384.704 224.195 385.773 237.933 385.773 237.933C385.773 237.933 404.529 241.503 410.784 237.933C417.04 234.363 416.146 220.625 416.146 220.625C416.146 220.625 422.03 233.135 424.184 233.491L422.934 226.532C422.934 226.532 415.966 219.036 415.609 209.404C415.609 209.404 413.465 200.634 415.253 198.343C415.253 198.343 445.445 200.84 447.233 198.699C447.233 198.699 427.402 197.807 424.365 192.989C424.365 192.989 415.609 186.029 415.253 181.391C415.201 180.521 414.927 179.678 414.458 178.942C413.989 178.206 413.34 177.602 412.572 177.187C411.357 176.496 409.962 176.185 408.568 176.294L404.534 176.573C404.534 176.573 411.502 188.882 411.146 190.502C410.79 192.122 411.502 205.133 411.502 205.133C411.502 205.133 403.434 187.825 399.89 185.864C396.347 183.904 392.204 175.835 392.204 175.835L392.917 171.76" fill="black"/>
<path opacity="0.1" d="M412.928 203.177L413.285 206.567L407.747 206.211L402.21 201.392L396.672 185.864L393.103 180.329L390.422 176.95L391.496 172.822C391.496 172.822 392.013 173.251 392.814 173.854L392.566 175.263C392.566 175.263 396.698 183.321 400.247 185.286C403.796 187.252 411.859 204.555 411.859 204.555C411.859 204.555 411.146 191.529 411.503 189.924C411.745 188.836 408.615 182.82 406.58 179.06C406.795 179.003 407.007 178.936 407.215 178.858L414.189 190.817L412.928 203.177Z" fill="black"/>
<path opacity="0.1" d="M446.938 203.043L445.089 203.167V198.705L447.517 198.266C446.67 199.386 446.701 201.367 446.938 203.043Z" fill="black"/>
<path d="M392.922 171.228C392.922 171.228 390.065 171.744 388.097 176.047C386.589 179.338 381.486 182.753 379.208 184.131C378.773 184.396 378.396 184.745 378.099 185.158C377.801 185.571 377.59 186.039 377.477 186.535C377.017 188.567 376.842 192.359 379.342 197.812C383.288 206.355 386.129 210.121 386.129 210.121C386.129 210.121 386.842 218.685 385.773 221.182C384.704 223.679 385.773 237.417 385.773 237.417C385.773 237.417 404.529 240.987 410.784 237.417C417.04 233.847 416.146 220.109 416.146 220.109C416.146 220.109 422.035 232.578 424.184 232.96L422.934 226C422.934 226 415.966 218.504 415.609 208.873C415.609 208.873 413.465 200.103 415.253 197.812C415.253 197.812 422.221 205.308 430.083 205.127C435.812 205.092 441.538 205.39 447.233 206.02C447.233 206.02 445.445 200.309 447.233 198.168C447.233 198.168 427.402 197.276 424.365 192.457C424.365 192.457 415.609 185.498 415.253 180.86C415.201 179.989 414.927 179.146 414.458 178.411C413.989 177.675 413.34 177.071 412.572 176.656C411.357 175.965 409.962 175.654 408.568 175.763L404.534 176.042C404.534 176.042 411.502 188.351 411.146 189.971C410.79 191.59 411.502 204.601 411.502 204.601C411.502 204.601 403.434 187.267 399.89 185.328C396.347 183.388 392.204 175.319 392.204 175.319L392.917 171.244" fill="#C48C96"/>
<path opacity="0.1" d="M388.97 189.965C388.97 189.965 393.258 204.41 395.758 206.2C398.258 207.991 413.445 217.086 417.913 214.945C417.913 214.945 418.987 220.3 417.396 221.548C417.396 221.548 400.738 220.898 400.603 220.836C400.603 220.836 389.704 219.407 387.917 214.057C386.129 208.708 383.986 199.613 383.986 199.613L388.97 189.965Z" fill="black"/>
<path d="M411.859 206.293C412.204 206.293 412.484 205.894 412.484 205.401C412.484 204.908 412.204 204.508 411.859 204.508C411.514 204.508 411.234 204.908 411.234 205.401C411.234 205.894 411.514 206.293 411.859 206.293Z" fill="#BA7855"/>
<path d="M413.641 212.536C413.986 212.536 414.266 212.136 414.266 211.643C414.266 211.15 413.986 210.751 413.641 210.751C413.296 210.751 413.016 211.15 413.016 211.643C413.016 212.136 413.296 212.536 413.641 212.536Z" fill="#BA7855"/>
<g opacity="0.1">
<path opacity="0.1" d="M387.028 237.226C387.028 237.226 385.954 223.488 387.028 220.991C388.103 218.494 387.385 209.93 387.385 209.93C387.385 209.93 384.528 206.185 380.597 197.621C378.092 192.168 378.273 188.376 378.732 186.344C378.845 185.848 379.057 185.38 379.354 184.967C379.651 184.554 380.028 184.205 380.463 183.94C382.741 182.547 387.839 179.147 389.353 175.856C390.463 173.442 391.853 172.219 392.855 171.61L392.922 171.218C392.922 171.218 390.065 171.734 388.097 176.036C386.589 179.328 381.486 182.743 379.208 184.12C378.773 184.385 378.396 184.735 378.099 185.148C377.801 185.56 377.59 186.029 377.477 186.524C377.017 188.557 376.842 192.349 379.342 197.802C383.288 206.355 386.129 210.111 386.129 210.111C386.129 210.111 386.842 218.675 385.773 221.171C384.704 223.668 385.773 237.406 385.773 237.406C385.773 237.406 399.172 239.955 407.096 238.588C399.095 239.542 387.028 237.226 387.028 237.226Z" fill="black"/>
<path opacity="0.1" d="M411.141 189.965C410.898 191.064 411.141 197.528 411.342 201.49C412.215 203.26 412.732 204.421 412.732 204.421C412.732 204.421 412.019 191.394 412.375 189.79C412.732 188.186 406.44 177.068 405.815 175.964L404.514 176.052C404.514 176.052 411.502 188.361 411.141 189.965Z" fill="black"/>
<path opacity="0.1" d="M431.328 204.952C423.466 205.132 416.498 197.637 416.498 197.637C416.289 197.928 416.137 198.255 416.048 198.601C418.114 200.52 423.796 205.272 430.078 205.127C435.807 205.092 441.533 205.39 447.227 206.02C447.227 206.02 447.191 205.901 447.134 205.7C441.883 205.159 436.606 204.91 431.328 204.952Z" fill="black"/>
<path opacity="0.1" d="M417.381 219.938C417.381 219.938 417.453 221.053 417.412 222.724C419.271 226.408 422.655 232.707 424.168 232.96L423.905 231.494C421.312 228.234 417.381 219.938 417.381 219.938Z" fill="black"/>
</g>
<path d="M422.397 218.138L418.6 218.938L415.604 219.567L417.21 215.105L418.331 214.826L420.072 214.393C420.072 214.393 422.572 201.903 427.578 202.796C432.583 203.688 422.397 218.138 422.397 218.138Z" fill="#714B4F"/>
<path opacity="0.1" d="M418.605 218.953L415.609 219.583L417.216 215.12L418.336 214.842C418.586 216.197 418.676 217.577 418.605 218.953Z" fill="black"/>
<path d="M388.97 189.609C388.97 189.609 393.258 204.054 395.758 205.844C398.258 207.635 413.445 216.73 417.897 214.609C417.897 214.609 418.972 219.964 417.381 221.213C417.381 221.213 400.722 220.563 400.588 220.501C400.588 220.501 389.688 219.072 387.901 213.722C386.114 208.372 383.97 199.277 383.97 199.277L388.97 189.609Z" fill="#C48C96"/>
<path opacity="0.1" d="M394.348 166.415C394.348 166.415 393.986 167.813 393.501 169.846C394.49 171.717 396.068 173.211 397.992 174.097C399.917 174.983 402.08 175.211 404.147 174.747C403.718 172.915 403.811 171.063 405.066 169.629L394.348 166.415Z" fill="black"/>
<path d="M401.853 174.623C407.182 174.623 411.503 170.308 411.503 164.986C411.503 159.664 407.182 155.349 401.853 155.349C396.524 155.349 392.204 159.664 392.204 164.986C392.204 170.308 396.524 174.623 401.853 174.623Z" fill="#714B4F"/>
<path opacity="0.1" d="M410.232 162.334C410.93 162.531 411.663 162.577 412.381 162.469C413.124 162.268 413.781 161.83 414.253 161.222C414.725 160.614 414.985 159.869 414.994 159.1C414.981 158.331 414.795 157.574 414.451 156.886C414.107 156.198 413.613 155.595 413.006 155.122C412.19 154.441 411.213 153.962 410.464 153.203C409.581 152.3 409.095 151.093 408.398 150.031C407.25 148.272 405.546 146.949 403.558 146.27C402.081 145.754 400.267 145.713 399.131 146.786C398.547 147.338 398.206 148.127 397.581 148.596C396.636 149.267 395.355 149.071 394.203 149.205C393.159 149.364 392.171 149.776 391.324 150.406C390.477 151.035 389.799 151.863 389.347 152.816C388.466 154.76 388.297 156.952 388.872 159.007C389.094 159.884 389.425 160.73 389.663 161.586C390.179 163.402 390.282 165.306 390.861 167.096C391.439 168.886 392.633 170.64 394.441 171.177C394.296 169.167 394.694 167.156 395.593 165.352C395.742 164.959 396.033 164.635 396.409 164.444C396.731 164.362 397.068 164.362 397.39 164.444C399.664 164.785 401.986 164.318 403.95 163.124C404.637 162.711 405.707 161.287 406.435 161.148C407.324 160.988 409.25 162.118 410.232 162.334Z" fill="black"/>
<path d="M410.232 161.989C410.93 162.185 411.663 162.231 412.381 162.123C413.124 161.922 413.781 161.484 414.253 160.876C414.725 160.268 414.985 159.523 414.994 158.754C414.981 157.985 414.795 157.229 414.451 156.541C414.107 155.852 413.613 155.25 413.006 154.777C412.19 154.096 411.213 153.616 410.464 152.858C409.581 151.955 409.095 150.748 408.398 149.685C407.25 147.927 405.546 146.603 403.558 145.924C402.081 145.408 400.267 145.367 399.131 146.44C398.547 146.992 398.206 147.781 397.581 148.251C396.636 148.921 395.355 148.725 394.203 148.859C393.159 149.018 392.171 149.43 391.324 150.06C390.477 150.69 389.799 151.517 389.347 152.471C388.466 154.414 388.297 156.606 388.872 158.661C389.094 159.538 389.425 160.384 389.663 161.241C390.179 163.057 390.282 164.96 390.861 166.75C391.439 168.541 392.633 170.295 394.441 170.831C394.302 168.823 394.703 166.814 395.603 165.012C395.752 164.618 396.043 164.295 396.419 164.104C396.741 164.021 397.079 164.021 397.401 164.104C399.673 164.439 401.99 163.968 403.95 162.773C404.637 162.36 405.707 160.936 406.435 160.797C407.324 160.632 409.25 161.762 410.232 161.989Z" fill="#503F43"/>
<path d="M506.492 130.174L498.619 218.221L463.235 228.023L427.95 218.221L420.088 130.159L506.492 130.174Z" fill="#E44D26"/>
<path d="M463.287 220.547L491.878 212.634L498.594 137.376H463.287V220.547Z" fill="#F16529"/>
<path d="M447.987 158.981H463.287V148.179H436.168L436.426 151.078L439.087 180.845H463.292V170.042H448.979L447.987 158.981ZM450.44 186.236H439.593L441.111 203.203L463.241 209.363H463.292V198.101H463.246L451.2 194.851L450.44 186.236Z" fill="#EBEBEB"/>
<path d="M428.13 106.226H433.627V111.648H438.653V106.226H444.149V122.652H438.653V117.163H433.627V122.663H428.13V106.226ZM451.375 111.674H446.535V106.226H461.712V111.674H456.871V122.652H451.38V111.685L451.375 111.674ZM464.124 106.226H469.858L473.386 111.999L476.909 106.226H482.642V122.652H477.167V114.527L473.386 120.367H473.293L469.506 114.527V122.668H464.124V106.226ZM485.375 106.226H490.871V117.22H498.619V122.647H485.39V106.226H485.375Z" fill="black"/>
<path d="M463.251 180.845H476.568L475.312 194.856L463.251 198.101V209.363L485.427 203.208L485.587 201.382L488.169 172.957L488.433 170.057H463.251V180.839V180.845ZM463.251 158.955V158.981H489.378L489.595 156.551L490.112 151.073L490.37 148.173H463.251V158.95V158.955Z" fill="white"/>
<path d="M189.441 195.186C188.408 192.24 186.982 188.48 185.825 187.623C185.757 187.566 185.68 187.519 185.598 187.484H185.448V183.847L182.731 184.28C182.297 182.965 181.967 181.618 181.744 180.251C182.008 180.518 182.346 180.699 182.715 180.772C183.083 180.845 183.465 180.805 183.811 180.659C183.764 180.587 183.728 180.509 183.687 180.432L183.811 180.38C183.381 179.627 183.155 178.776 183.155 177.909C183.177 177.119 183.303 176.335 183.532 175.577C184.017 173.901 184.839 172.332 185.298 170.651C185.593 169.565 185.732 168.443 185.712 167.318C185.717 165.41 185.273 163.528 184.415 161.824C184.203 161.333 183.873 160.902 183.454 160.57C183.072 160.359 182.679 160.167 182.276 159.997C181.603 159.544 181.023 158.966 180.567 158.295C178.637 155.948 176.054 154.227 173.144 153.348C172.386 153.068 171.565 153.003 170.773 153.162C168.949 153.678 168.283 155.912 166.806 157.093C165.499 158.125 163.706 158.243 162.074 158.594C160.399 158.88 158.856 159.687 157.668 160.9C156.895 161.782 156.473 162.917 156.485 164.088C156.439 164.635 156.535 165.185 156.764 165.684C156.993 166.183 157.347 166.614 157.792 166.936C158.295 167.272 158.866 167.492 159.464 167.581C160.063 167.67 160.673 167.626 161.253 167.452C160.384 170.447 160.743 173.664 162.249 176.395C163.755 179.126 166.286 181.148 169.285 182.016C169.574 182.098 169.869 182.17 170.163 182.232L170.484 182.8C171.461 184.619 172.202 186.556 172.689 188.562C170.189 189.981 167.457 191.307 165.809 191.431C165.742 192.074 165.623 192.71 165.452 193.334C165.065 194.897 164.325 196.352 163.288 197.585C161.046 200.103 150.958 219.139 150.958 219.139C150.958 219.139 150.637 219.897 150.121 221.202C143.855 221.971 133.633 223.08 130.776 222.508L119.567 211.87C119.567 211.87 115.951 214.63 116.261 217.983L114.241 216.064C114.241 216.064 103.59 224.179 120.409 229.477L145.999 232.444C143.561 239.79 141.288 248.338 141.99 252.991H142.202C142.692 252.99 143.18 252.952 143.664 252.878L143.618 253.703L141.154 297.776C141.154 297.776 140.591 305.87 148.158 309.533C148.158 309.533 157.41 336.684 153.763 339.764C153.763 339.764 154.197 339.991 154.925 340.311L147.316 347.017C147.316 347.017 141.711 348.415 138.628 348.137C138.088 348.062 137.541 348.187 137.087 348.488C136.634 348.79 136.308 349.246 136.169 349.772C136.174 349.832 136.164 349.893 136.138 349.947V350.463C136.132 350.526 136.144 350.589 136.174 350.644V350.732C136.189 350.797 136.21 350.861 136.236 350.922V350.984C136.236 351.046 136.293 351.108 136.324 351.17V351.211C136.36 351.273 136.396 351.335 136.437 351.397L136.474 351.449C136.52 351.516 136.567 351.578 136.623 351.645L136.665 351.696C136.722 351.763 136.784 351.825 136.851 351.892H136.892L137.099 352.068L137.145 352.104L137.398 352.284L137.46 352.326L137.755 352.496H137.801L138.116 352.651H138.163L138.529 352.8L138.607 352.831L139.015 352.965H139.082L139.521 353.079H139.557L140.074 353.177H140.172L140.689 353.254H140.787L141.381 353.311C142.533 353.399 144.088 353.43 145.885 353.424V353.713C145.879 353.776 145.892 353.839 145.921 353.894V353.961C145.937 354.026 145.957 354.09 145.983 354.152V354.214C145.983 354.276 146.04 354.338 146.071 354.399V354.441C146.107 354.503 146.143 354.565 146.185 354.626L146.221 354.678C146.267 354.745 146.314 354.807 146.371 354.874L146.412 354.926C146.469 354.993 146.531 355.055 146.598 355.122L146.805 355.297L146.851 355.333L147.104 355.514L147.166 355.555L147.456 355.725H147.502L147.817 355.88H147.864L148.23 356.03L148.308 356.061L148.716 356.195H148.783L149.222 356.308H149.289L149.806 356.406H149.904L150.421 356.484H150.519L151.113 356.54C158.401 357.103 181.662 355.421 181.662 355.421V355.354V355.271C181.894 354.188 183.01 347.889 179.043 343.231C179.16 343.107 179.274 342.978 179.384 342.844C179.544 342.642 176.284 337.525 177.984 335.848C179.683 334.172 169.776 305.318 169.776 305.318C169.776 305.318 164.45 296.919 167.534 287.401C170.618 277.883 167.255 267.529 167.255 267.529C167.255 267.529 174.616 265.352 174.75 256.309V255.447C174.904 255.468 175.06 255.478 175.215 255.478H175.525C175.525 255.478 174.125 250.438 175.804 246.801C177.483 243.164 181.13 246.522 184.492 231.685C186.925 220.95 189.064 208.604 190.066 202.594C190.471 200.111 190.257 197.567 189.441 195.186ZM125.481 226.655L122.924 224.231C123.772 224.581 124.712 224.922 125.76 225.262L135.394 226.392C131.096 226.779 127.083 226.996 125.481 226.671V226.655Z" fill="url(#paint1_linear)"/>
<path d="M149.878 225.242C149.878 225.242 130.053 227.992 125.92 227.166L114.907 216.714C114.907 216.714 104.442 224.69 120.967 229.916L151.805 233.491L149.878 225.242Z" fill="#FDC2CC"/>
<path opacity="0.05" d="M149.878 225.242C149.878 225.242 130.053 227.992 125.92 227.166L114.907 216.714C114.907 216.714 104.442 224.69 120.967 229.916L151.805 233.491L149.878 225.242Z" fill="black"/>
<path d="M111.064 232.18L68.2213 220.315L58.6754 113.372H163.587L154.031 220.284L111.064 232.18Z" fill="#264DE4"/>
<path d="M145.849 213.495L154.016 122.121H111.142V223.085L145.849 213.495Z" fill="#2965F1"/>
<path d="M80.5876 161.767L81.7653 174.886H111.157V161.767H80.5876ZM78.2218 135.219L79.415 148.333H111.152V135.219H78.2218ZM111.152 195.831H111.095L96.4716 191.864L95.5367 181.402H82.3284L84.1673 201.996L111.064 209.492H111.126L111.152 195.831Z" fill="#EBEBEB"/>
<path d="M83.3718 84.2961H99.2765V90.9407H90.0199V97.5854H99.2765V104.209H83.3718V84.2961ZM102.484 84.2961H118.389V90.074H109.091V91.2296H118.348V104.519H102.438V98.4521H111.694V97.2965H102.458V84.2961H102.484ZM121.597 84.2961H137.501V90.074H128.204V91.2296H137.46V104.519H121.55V98.4521H130.807V97.2965H121.545V84.2961H121.597Z" fill="black"/>
<path d="M141.618 161.767L143.989 135.219H111.064V148.333H129.572L128.379 161.746H111.064V174.84H127.238L125.688 191.864L111.064 195.841V209.487L137.987 202.032L138.183 199.814L141.283 165.28L141.603 161.757L141.618 161.767Z" fill="white"/>
<path d="M157.038 336.875L147.399 345.397C147.399 345.397 141.892 346.775 138.865 346.496C135.838 346.218 134.459 351.17 141.618 351.722C148.778 352.274 171.63 350.623 171.63 350.623C171.63 350.623 173.831 341.822 167.224 336.875H157.038Z" fill="#47465A"/>
<path opacity="0.05" d="M157.038 336.875L147.399 345.397C147.399 345.397 141.892 346.775 138.865 346.496C135.838 346.218 134.459 351.17 141.618 351.722C148.778 352.274 171.63 350.623 171.63 350.623C171.63 350.623 173.831 341.822 167.224 336.875H157.038Z" fill="black"/>
<path opacity="0.3" d="M171.976 346.837C171.959 347.84 171.843 348.838 171.63 349.818C171.63 349.818 148.778 351.469 141.618 350.917C138.173 350.654 136.711 349.37 136.453 348.142C136.138 349.555 137.388 351.418 141.618 351.753C148.778 352.305 171.63 350.654 171.63 350.654C171.9 349.4 172.016 348.118 171.976 346.837Z" fill="white"/>
<path d="M168.324 180.994C168.324 180.994 174.384 189.517 172.178 195.294C169.972 201.072 183.743 189.243 183.743 189.243C183.743 189.243 179.337 181.505 181.543 173.251L168.324 180.994Z" fill="#FDC2CC"/>
<path d="M166.671 340.192L157.038 348.694C157.038 348.694 151.531 350.071 148.504 349.793C145.477 349.514 144.098 354.467 151.257 355.019C158.417 355.571 181.269 353.92 181.269 353.92C181.269 353.92 183.47 345.119 176.863 340.171L166.671 340.192Z" fill="#47465A"/>
<path d="M169.435 338.268C167.999 340.037 165.974 340.718 163.856 340.847C159.042 341.074 153.742 338.268 153.742 338.268C157.322 335.245 148.236 308.568 148.236 308.568C140.802 304.993 141.35 297.017 141.35 297.017L143.757 253.734L144.367 242.859L152.079 238.185L158.153 242.828L163.918 247.244C164.296 248.649 164.538 250.086 164.641 251.537C165.313 261.643 157.311 264.021 157.311 264.021C157.311 264.021 160.617 274.194 157.585 283.547C154.553 292.901 159.786 301.15 159.786 301.15C159.786 301.15 169.698 329.75 168.051 331.401C166.403 333.052 169.435 338.268 169.435 338.268Z" fill="#565171"/>
<path opacity="0.05" d="M169.435 338.268C167.999 340.037 165.974 340.718 163.856 340.847C159.042 341.074 153.742 338.268 153.742 338.268C157.322 335.245 148.236 308.568 148.236 308.568C140.802 304.993 141.35 297.017 141.35 297.017L143.757 253.734L144.367 242.859L152.079 238.185L158.153 242.828L163.918 247.244C164.296 248.649 164.538 250.086 164.641 251.537C165.313 261.643 157.311 264.021 157.311 264.021C157.311 264.021 160.617 274.194 157.585 283.547C154.553 292.901 159.786 301.15 159.786 301.15C159.786 301.15 169.698 329.75 168.051 331.401C166.403 333.052 169.435 338.268 169.435 338.268Z" fill="black"/>
<path d="M179.063 341.564C174.384 347.337 163.371 341.564 163.371 341.564C163.593 341.36 163.758 341.103 163.851 340.816C165.871 335.327 157.038 309.115 157.038 309.115C149.604 305.54 148.773 297.017 148.773 297.017L146.825 252.95L146.572 247.244L158.159 242.828L161.718 241.472L173.567 250.546C174.078 252.426 174.328 254.366 174.311 256.314C174.161 265.192 166.945 267.338 166.945 267.338C166.945 267.338 170.251 277.512 167.219 286.865C164.187 296.218 169.435 304.441 169.435 304.441C169.435 304.441 179.348 333.042 177.7 334.693C176.052 336.343 179.063 341.564 179.063 341.564Z" fill="#565171"/>
<path opacity="0.1" d="M174.316 256.314C171.935 255.973 167.116 253.11 164.641 251.557C163.696 250.964 163.092 250.567 163.092 250.567C163.092 250.567 160.612 243.69 154.005 248.916C151.857 250.66 149.429 252.031 146.825 252.971C145.83 253.322 144.805 253.579 143.762 253.739L144.372 242.865L152.084 238.191L158.159 242.834L161.718 241.477L173.567 250.546C174.08 252.425 174.332 254.366 174.316 256.314Z" fill="black"/>
<path d="M189.219 203.544C188.237 209.445 186.12 221.6 183.743 232.119C180.438 246.692 176.858 243.391 175.21 246.966C173.562 250.541 174.936 255.488 174.936 255.488C172.183 255.762 163.097 249.716 163.097 249.716C163.097 249.716 160.617 242.839 154.011 248.065C147.404 253.291 142.171 253.012 142.171 253.012C140.792 243.938 150.984 219.737 150.984 219.737C150.984 219.737 160.896 201.036 163.097 198.586C164.119 197.375 164.847 195.945 165.225 194.407C165.393 193.795 165.511 193.171 165.576 192.54C169.156 192.266 177.974 186.215 177.974 186.215L184.859 185.116V188.691C184.941 188.726 185.018 188.773 185.086 188.83C186.218 189.692 187.669 193.365 188.635 196.259C189.426 198.603 189.627 201.104 189.219 203.544Z" fill="#E1A0A7"/>
<path d="M157.038 229.369L153.478 228.956L126.199 225.794C109.67 220.568 120.14 212.592 120.14 212.592L131.153 223.044C134.33 223.679 146.794 222.198 152.378 221.496L155.111 221.135L157.038 229.369Z" fill="#FDC2CC"/>
<path opacity="0.1" d="M183.743 192.246C183.743 192.246 176.584 186.473 165.819 205.169C155.054 223.864 152.6 220.841 152.6 220.841C152.6 220.841 154.801 229.095 153.701 230.741C153.701 230.741 161.134 230.189 163.887 230.741C166.64 231.293 183.712 209.843 183.712 209.843C183.712 209.843 192.556 197.745 183.743 192.246Z" fill="black"/>
<path opacity="0.1" d="M183.47 191.147C183.47 191.147 176.31 185.374 165.571 204.07C154.832 222.766 152.352 219.722 152.352 219.722C152.352 219.722 160.886 229.054 163.639 229.622C166.392 230.189 183.465 208.723 183.465 208.723C183.465 208.723 192.282 196.646 183.47 191.147Z" fill="black"/>
<path opacity="0.1" d="M153.479 228.972C153.592 226.934 152.823 223.354 152.378 221.496L155.111 221.135L157.038 229.39L153.479 228.972Z" fill="black"/>
<path d="M183.743 191.694C183.743 191.694 176.584 185.921 165.819 204.622C155.054 223.323 152.6 220.284 152.6 220.284C152.6 220.284 154.801 228.538 153.701 230.184C153.701 230.184 161.134 229.632 163.887 230.184C166.64 230.736 183.712 209.285 183.712 209.285C183.712 209.285 192.556 197.193 183.743 191.694Z" fill="#E1A0A7"/>
<path opacity="0.1" d="M181.832 173.808L168.593 181.5C169.156 182.31 169.673 183.15 170.143 184.017C170.904 184.172 171.68 184.25 172.457 184.249C175.985 184.249 177.622 180.55 179.756 178.059C179.606 176.088 181.228 176.036 181.832 173.808Z" fill="black"/>
<path d="M172.178 183.723C178.565 183.723 183.743 178.552 183.743 172.172C183.743 165.793 178.565 160.622 172.178 160.622C165.79 160.622 160.612 165.793 160.612 172.172C160.612 178.552 165.79 183.723 172.178 183.723Z" fill="#FDC2CC"/>
<path opacity="0.1" d="M157.554 162.83C158.719 161.634 160.235 160.839 161.883 160.56C163.489 160.214 165.251 160.111 166.532 159.084C167.983 157.924 168.634 155.716 170.427 155.22C171.205 155.064 172.012 155.129 172.756 155.406C175.616 156.268 178.155 157.959 180.05 160.266C180.501 160.926 181.072 161.494 181.734 161.942C182.13 162.109 182.516 162.297 182.891 162.505C183.304 162.829 183.628 163.254 183.831 163.738C185.121 166.341 185.418 169.325 184.668 172.131C184.219 173.787 183.413 175.325 182.932 176.975C182.452 178.626 182.333 180.494 183.206 181.969C182.359 182.403 181.29 181.856 180.758 181.066C180.226 180.277 180.066 179.307 179.787 178.394C179.239 176.601 178.205 174.995 176.801 173.751C175.933 172.988 174.384 172.472 173.779 173.457C173.547 173.839 173.562 174.329 173.361 174.726C172.968 175.505 171.811 175.66 171.072 175.242C170.344 174.741 169.833 173.984 169.642 173.122C168.51 169.289 166.573 166.879 162.472 168.515C160.922 169.124 159.14 169.547 157.668 168.515C155.788 167.148 156.165 164.393 157.554 162.83Z" fill="black"/>
<path d="M157.554 162.551C158.719 161.355 160.235 160.56 161.883 160.281C163.489 159.936 165.251 159.832 166.532 158.806C167.983 157.645 168.634 155.437 170.427 154.942C171.205 154.786 172.012 154.85 172.756 155.128C175.616 155.989 178.155 157.681 180.05 159.987C180.501 160.647 181.072 161.216 181.734 161.664C182.13 161.83 182.516 162.018 182.891 162.226C183.304 162.551 183.628 162.975 183.831 163.459C185.121 166.063 185.418 169.046 184.668 171.853C184.219 173.509 183.413 175.046 182.932 176.697C182.452 178.348 182.333 180.215 183.206 181.691C182.359 182.124 181.29 181.577 180.758 180.788C180.226 179.998 180.066 179.029 179.787 178.115C179.239 176.323 178.205 174.716 176.801 173.472C175.933 172.709 174.384 172.193 173.779 173.178C173.547 173.56 173.562 174.05 173.361 174.448C172.968 175.227 171.811 175.381 171.072 174.963C170.34 174.458 169.828 173.692 169.642 172.822C168.51 168.989 166.573 166.58 162.472 168.216C160.922 168.824 159.14 169.247 157.668 168.216C155.788 166.859 156.165 164.119 157.554 162.551Z" fill="#8F5A6A"/>
<path opacity="0.05" d="M185.071 188.815H179.477C179.477 188.815 168.464 194.314 168.19 194.041C168.004 193.855 166.299 194.175 165.22 194.397C165.388 193.785 165.505 193.16 165.571 192.529C169.151 192.256 177.968 186.205 177.968 186.205L184.854 185.106V188.681C184.931 188.718 185.004 188.762 185.071 188.815Z" fill="black"/>
<path opacity="0.3" d="M181.61 350.133C181.593 351.136 181.477 352.135 181.264 353.115C181.264 353.115 158.412 354.766 151.252 354.214C147.807 353.951 146.345 352.666 146.087 351.438C145.772 352.852 147.022 354.714 151.252 355.05C158.412 355.602 181.264 353.951 181.264 353.951C181.534 352.697 181.65 351.415 181.61 350.133Z" fill="white"/>
<g opacity="0.05">
<path opacity="0.05" d="M151.392 247.791C148.718 249.993 145.591 251.578 142.233 252.434C142.242 252.637 142.266 252.839 142.305 253.038C142.305 253.038 147.538 253.311 154.145 248.091C155.168 247.214 156.378 246.582 157.683 246.244C156.242 245.516 154.186 245.563 151.392 247.791Z" fill="black"/>
<path opacity="0.05" d="M188.759 196.233C187.773 193.339 186.342 189.671 185.21 188.805C185.142 188.748 185.065 188.701 184.983 188.665C184.983 188.665 182.705 188.743 182.783 188.805C183.914 189.666 185.019 193.066 186.006 195.955C186.807 198.303 187.013 200.813 186.605 203.26C185.624 209.162 183.506 221.316 181.13 231.835C177.824 246.409 174.244 243.107 172.596 246.682C171.243 249.612 171.92 253.461 172.214 254.756C173.105 255.2 174.081 255.448 175.076 255.483C175.076 255.483 173.696 250.536 175.349 246.961C177.002 243.386 180.582 246.687 183.898 232.103C186.29 221.558 188.392 209.404 189.374 203.528C189.777 201.083 189.566 198.577 188.759 196.233Z" fill="black"/>
</g>
<path d="M220.76 247.58C221.707 246.809 222.397 245.769 222.738 244.598C222.996 243.411 222.49 241.993 221.354 241.559C220.083 241.074 218.725 241.951 217.697 242.844C216.669 243.736 215.486 244.748 214.138 244.557C214.831 243.93 215.35 243.134 215.643 242.247C215.936 241.36 215.994 240.412 215.811 239.496C215.755 239.115 215.594 238.758 215.346 238.464C214.639 237.711 213.363 238.036 212.516 238.629C209.829 240.517 209.08 244.159 209.065 247.44C208.796 246.259 209.024 245.026 209.013 243.829C209.003 242.632 208.672 241.25 207.65 240.62C207.015 240.28 206.303 240.111 205.583 240.13C204.375 240.084 203.032 240.208 202.205 241.09C201.172 242.184 201.446 244.025 202.339 245.217C203.233 246.409 204.586 247.177 205.836 248.013C206.838 248.608 207.693 249.421 208.337 250.391C208.414 250.525 208.477 250.667 208.523 250.814H216.09C217.786 249.952 219.356 248.863 220.76 247.58Z" fill="#6C63FF"/>
<path d="M234.66 344.469C235.864 343.349 236.995 342.029 237.346 340.424C237.698 338.82 237.011 336.89 235.471 336.297C233.751 335.637 231.907 336.813 230.512 338.036C229.118 339.258 227.516 340.615 225.693 340.357C226.632 339.506 227.334 338.427 227.732 337.225C228.129 336.022 228.208 334.738 227.96 333.496C227.881 332.983 227.663 332.502 227.33 332.103C226.375 331.071 224.639 331.52 223.497 332.325C219.882 334.904 218.848 339.821 218.823 344.268C218.456 342.663 218.766 340.992 218.756 339.346C218.745 337.7 218.296 335.879 216.906 334.992C216.04 334.528 215.068 334.301 214.086 334.332C212.448 334.27 210.625 334.435 209.509 335.632C208.12 337.117 208.476 339.609 209.69 341.244C210.904 342.88 212.738 343.906 214.427 345.036C215.785 345.841 216.942 346.944 217.81 348.26C217.912 348.445 217.997 348.638 218.063 348.838H228.322C230.621 347.672 232.753 346.202 234.66 344.469Z" fill="#6C63FF"/>
<path fill-rule="evenodd" clip-rule="evenodd" d="M192.892 16.2969C188.201 16.2969 184.73 20.5375 184.885 25.1444C185.035 29.5655 184.839 35.2919 183.444 39.9658C182.049 44.6398 179.678 47.6165 175.814 47.9776V52.2801C179.678 52.6618 182.044 55.6282 183.444 60.3125C184.844 64.9967 185.035 70.7128 184.885 75.1339C184.73 79.7356 188.201 83.9814 192.892 83.9814H240.967C245.658 83.9814 249.129 79.7356 248.974 75.1339C248.824 70.7128 249.02 64.9813 250.415 60.3125C251.81 55.6437 254.176 52.6618 258.039 52.2801V47.9776C254.176 47.5958 251.841 44.6295 250.415 39.9452C248.989 35.2609 248.824 29.5655 248.984 25.1444C249.139 20.5427 245.668 16.2969 240.978 16.2969H192.892ZM231.561 57.9755C231.561 64.3106 226.984 68.154 219.396 68.154H206.482C206.106 68.1472 205.748 67.9919 205.487 67.7221C205.226 67.4523 205.082 67.09 205.087 66.7146V33.5843C205.084 33.398 205.117 33.2128 205.186 33.0394C205.254 32.866 205.356 32.7077 205.485 32.5735C205.615 32.4394 205.769 32.332 205.94 32.2576C206.112 32.1832 206.296 32.1432 206.482 32.1398H219.329C225.657 32.1398 229.81 35.684 229.81 41.1266C229.81 44.9442 227.015 48.349 223.456 48.9629V49.1641C228.301 49.711 231.566 53.1829 231.566 57.9755H231.561ZM217.991 36.7054H210.62V47.4617H216.818C221.617 47.4617 224.262 45.4652 224.262 41.8953C224.262 38.5472 221.989 36.7003 217.981 36.7003L217.991 36.7054ZM210.625 51.7332V63.5987H218.265C223.26 63.5987 225.905 61.5351 225.905 57.635C225.905 53.7349 223.182 51.7436 217.939 51.7436L210.625 51.7332Z" fill="#7952B3"/>
</g>
<defs>
<linearGradient id="paint0_linear" x1="415.408" y1="318.143" x2="415.408" y2="143.484" gradientUnits="userSpaceOnUse">
<stop stop-color="#808080" stop-opacity="0.25"/>
<stop offset="0.54" stop-color="#808080" stop-opacity="0.12"/>
<stop offset="1" stop-color="#808080" stop-opacity="0.1"/>
</linearGradient>
<linearGradient id="paint1_linear" x1="29987.1" y1="229191" x2="29987.1" y2="148735" gradientUnits="userSpaceOnUse">
<stop stop-color="#808080" stop-opacity="0.25"/>
<stop offset="0.54" stop-color="#808080" stop-opacity="0.12"/>
<stop offset="1" stop-color="#808080" stop-opacity="0.1"/>
</linearGradient>
<clipPath id="clip0">
<rect width="530" height="370" fill="white"/>
</clipPath>
</defs>
</svg>
