<svg width="70" height="109" viewBox="0 0 70 109" fill="none" xmlns="http://www.w3.org/2000/svg">
<g opacity="0.3">
<mask id="mask0" style="mask-type:alpha" maskUnits="userSpaceOnUse" x="0" y="0" width="11" height="11">
<path d="M5.22838 10.425C8.11594 10.425 10.4568 8.09121 10.4568 5.21245C10.4568 2.33368 8.11594 0 5.22838 0C2.34082 0 0 2.33368 0 5.21245C0 8.09121 2.34082 10.425 5.22838 10.425Z" fill="url(#paint0_linear)"/>
</mask>
<g mask="url(#mask0)">
<path d="M5.22838 10.425C8.11594 10.425 10.4568 8.09121 10.4568 5.21245C10.4568 2.33368 8.11594 0 5.22838 0C2.34082 0 0 2.33368 0 5.21245C0 8.09121 2.34082 10.425 5.22838 10.425Z" fill="url(#paint1_linear)"/>
</g>
<mask id="mask1" style="mask-type:alpha" maskUnits="userSpaceOnUse" x="30" y="0" width="11" height="11">
<path d="M35.5095 10.425C38.397 10.425 40.7378 8.09121 40.7378 5.21245C40.7378 2.33368 38.397 0 35.5095 0C32.6219 0 30.2811 2.33368 30.2811 5.21245C30.2811 8.09121 32.6219 10.425 35.5095 10.425Z" fill="url(#paint2_linear)"/>
</mask>
<g mask="url(#mask1)">
<path d="M35.5095 10.425C38.397 10.425 40.7378 8.09121 40.7378 5.21245C40.7378 2.33368 38.397 0 35.5095 0C32.6219 0 30.2811 2.33368 30.2811 5.21245C30.2811 8.09121 32.6219 10.425 35.5095 10.425Z" fill="url(#paint3_linear)"/>
</g>
<mask id="mask2" style="mask-type:alpha" maskUnits="userSpaceOnUse" x="60" y="0" width="12" height="11">
<path d="M65.7905 10.425C68.6781 10.425 71.0189 8.09121 71.0189 5.21245C71.0189 2.33368 68.6781 0 65.7905 0C62.903 0 60.5621 2.33368 60.5621 5.21245C60.5621 8.09121 62.903 10.425 65.7905 10.425Z" fill="url(#paint4_linear)"/>
</mask>
<g mask="url(#mask2)">
<path d="M65.7905 10.425C68.6781 10.425 71.0189 8.09121 71.0189 5.21245C71.0189 2.33368 68.6781 0 65.7905 0C62.903 0 60.5621 2.33368 60.5621 5.21245C60.5621 8.09121 62.903 10.425 65.7905 10.425Z" fill="url(#paint5_linear)"/>
</g>
<mask id="mask3" style="mask-type:alpha" maskUnits="userSpaceOnUse" x="0" y="24" width="11" height="11">
<path d="M5.22838 34.8498C8.11594 34.8498 10.4568 32.5161 10.4568 29.6374C10.4568 26.7586 8.11594 24.425 5.22838 24.425C2.34082 24.425 0 26.7586 0 29.6374C0 32.5161 2.34082 34.8498 5.22838 34.8498Z" fill="url(#paint6_linear)"/>
</mask>
<g mask="url(#mask3)">
<path d="M5.22838 34.8498C8.11594 34.8498 10.4568 32.5161 10.4568 29.6374C10.4568 26.7586 8.11594 24.425 5.22838 24.425C2.34082 24.425 0 26.7586 0 29.6374C0 32.5161 2.34082 34.8498 5.22838 34.8498Z" fill="url(#paint7_linear)"/>
</g>
<mask id="mask4" style="mask-type:alpha" maskUnits="userSpaceOnUse" x="30" y="24" width="11" height="11">
<path d="M35.5095 34.8498C38.397 34.8498 40.7378 32.5161 40.7378 29.6374C40.7378 26.7586 38.397 24.425 35.5095 24.425C32.6219 24.425 30.2811 26.7586 30.2811 29.6374C30.2811 32.5161 32.6219 34.8498 35.5095 34.8498Z" fill="url(#paint8_linear)"/>
</mask>
<g mask="url(#mask4)">
<path d="M35.5095 34.8498C38.397 34.8498 40.7378 32.5161 40.7378 29.6374C40.7378 26.7586 38.397 24.425 35.5095 24.425C32.6219 24.425 30.2811 26.7586 30.2811 29.6374C30.2811 32.5161 32.6219 34.8498 35.5095 34.8498Z" fill="url(#paint9_linear)"/>
</g>
<mask id="mask5" style="mask-type:alpha" maskUnits="userSpaceOnUse" x="60" y="24" width="12" height="11">
<path d="M65.7905 34.8498C68.6781 34.8498 71.0189 32.5161 71.0189 29.6374C71.0189 26.7586 68.6781 24.425 65.7905 24.425C62.903 24.425 60.5621 26.7586 60.5621 29.6374C60.5621 32.5161 62.903 34.8498 65.7905 34.8498Z" fill="url(#paint10_linear)"/>
</mask>
<g mask="url(#mask5)">
<path d="M65.7905 34.8498C68.6781 34.8498 71.0189 32.5161 71.0189 29.6374C71.0189 26.7586 68.6781 24.425 65.7905 24.425C62.903 24.425 60.5621 26.7586 60.5621 29.6374C60.5621 32.5161 62.903 34.8498 65.7905 34.8498Z" fill="url(#paint11_linear)"/>
</g>
<mask id="mask6" style="mask-type:alpha" maskUnits="userSpaceOnUse" x="0" y="48" width="11" height="12">
<path d="M5.22838 59.2748C8.11594 59.2748 10.4568 56.9411 10.4568 54.0623C10.4568 51.1835 8.11594 48.8498 5.22838 48.8498C2.34082 48.8498 0 51.1835 0 54.0623C0 56.9411 2.34082 59.2748 5.22838 59.2748Z" fill="url(#paint12_linear)"/>
</mask>
<g mask="url(#mask6)">
<path d="M5.22838 59.2748C8.11594 59.2748 10.4568 56.9411 10.4568 54.0623C10.4568 51.1835 8.11594 48.8498 5.22838 48.8498C2.34082 48.8498 0 51.1835 0 54.0623C0 56.9411 2.34082 59.2748 5.22838 59.2748Z" fill="url(#paint13_linear)"/>
</g>
<mask id="mask7" style="mask-type:alpha" maskUnits="userSpaceOnUse" x="30" y="48" width="11" height="12">
<path d="M35.5095 59.2748C38.397 59.2748 40.7378 56.9411 40.7378 54.0623C40.7378 51.1835 38.397 48.8498 35.5095 48.8498C32.6219 48.8498 30.2811 51.1835 30.2811 54.0623C30.2811 56.9411 32.6219 59.2748 35.5095 59.2748Z" fill="url(#paint14_linear)"/>
</mask>
<g mask="url(#mask7)">
<path d="M35.5095 59.2748C38.397 59.2748 40.7378 56.9411 40.7378 54.0623C40.7378 51.1835 38.397 48.8498 35.5095 48.8498C32.6219 48.8498 30.2811 51.1835 30.2811 54.0623C30.2811 56.9411 32.6219 59.2748 35.5095 59.2748Z" fill="url(#paint15_linear)"/>
</g>
<mask id="mask8" style="mask-type:alpha" maskUnits="userSpaceOnUse" x="60" y="48" width="12" height="12">
<path d="M65.7905 59.2748C68.6781 59.2748 71.0189 56.9411 71.0189 54.0623C71.0189 51.1835 68.6781 48.8498 65.7905 48.8498C62.903 48.8498 60.5621 51.1835 60.5621 54.0623C60.5621 56.9411 62.903 59.2748 65.7905 59.2748Z" fill="url(#paint16_linear)"/>
</mask>
<g mask="url(#mask8)">
<path d="M65.7905 59.2748C68.6781 59.2748 71.0189 56.9411 71.0189 54.0623C71.0189 51.1835 68.6781 48.8498 65.7905 48.8498C62.903 48.8498 60.5621 51.1835 60.5621 54.0623C60.5621 56.9411 62.903 59.2748 65.7905 59.2748Z" fill="url(#paint17_linear)"/>
</g>
<mask id="mask9" style="mask-type:alpha" maskUnits="userSpaceOnUse" x="0" y="73" width="11" height="11">
<path d="M5.22838 83.6997C8.11594 83.6997 10.4568 81.366 10.4568 78.4872C10.4568 75.6085 8.11594 73.2748 5.22838 73.2748C2.34082 73.2748 0 75.6085 0 78.4872C0 81.366 2.34082 83.6997 5.22838 83.6997Z" fill="url(#paint18_linear)"/>
</mask>
<g mask="url(#mask9)">
<path d="M5.22838 83.6997C8.11594 83.6997 10.4568 81.366 10.4568 78.4872C10.4568 75.6085 8.11594 73.2748 5.22838 73.2748C2.34082 73.2748 0 75.6085 0 78.4872C0 81.366 2.34082 83.6997 5.22838 83.6997Z" fill="url(#paint19_linear)"/>
</g>
<mask id="mask10" style="mask-type:alpha" maskUnits="userSpaceOnUse" x="30" y="73" width="11" height="11">
<path d="M35.5095 83.6997C38.397 83.6997 40.7378 81.366 40.7378 78.4872C40.7378 75.6085 38.397 73.2748 35.5095 73.2748C32.6219 73.2748 30.2811 75.6085 30.2811 78.4872C30.2811 81.366 32.6219 83.6997 35.5095 83.6997Z" fill="url(#paint20_linear)"/>
</mask>
<g mask="url(#mask10)">
<path d="M35.5095 83.6997C38.397 83.6997 40.7378 81.366 40.7378 78.4872C40.7378 75.6085 38.397 73.2748 35.5095 73.2748C32.6219 73.2748 30.2811 75.6085 30.2811 78.4872C30.2811 81.366 32.6219 83.6997 35.5095 83.6997Z" fill="url(#paint21_linear)"/>
</g>
<mask id="mask11" style="mask-type:alpha" maskUnits="userSpaceOnUse" x="60" y="73" width="12" height="11">
<path d="M65.7905 83.6997C68.6781 83.6997 71.0189 81.366 71.0189 78.4872C71.0189 75.6085 68.6781 73.2748 65.7905 73.2748C62.903 73.2748 60.5621 75.6085 60.5621 78.4872C60.5621 81.366 62.903 83.6997 65.7905 83.6997Z" fill="url(#paint22_linear)"/>
</mask>
<g mask="url(#mask11)">
<path d="M65.7905 83.6997C68.6781 83.6997 71.0189 81.366 71.0189 78.4872C71.0189 75.6085 68.6781 73.2748 65.7905 73.2748C62.903 73.2748 60.5621 75.6085 60.5621 78.4872C60.5621 81.366 62.903 83.6997 65.7905 83.6997Z" fill="url(#paint23_linear)"/>
</g>
<mask id="mask12" style="mask-type:alpha" maskUnits="userSpaceOnUse" x="0" y="97" width="11" height="12">
<path d="M5.22838 108.125C8.11594 108.125 10.4568 105.791 10.4568 102.912C10.4568 100.033 8.11594 97.6997 5.22838 97.6997C2.34082 97.6997 0 100.033 0 102.912C0 105.791 2.34082 108.125 5.22838 108.125Z" fill="url(#paint24_linear)"/>
</mask>
<g mask="url(#mask12)">
<path d="M5.22838 108.125C8.11594 108.125 10.4568 105.791 10.4568 102.912C10.4568 100.033 8.11594 97.6997 5.22838 97.6997C2.34082 97.6997 0 100.033 0 102.912C0 105.791 2.34082 108.125 5.22838 108.125Z" fill="url(#paint25_linear)"/>
</g>
<mask id="mask13" style="mask-type:alpha" maskUnits="userSpaceOnUse" x="30" y="97" width="11" height="12">
<path d="M35.5095 108.125C38.397 108.125 40.7378 105.791 40.7378 102.912C40.7378 100.033 38.397 97.6997 35.5095 97.6997C32.6219 97.6997 30.2811 100.033 30.2811 102.912C30.2811 105.791 32.6219 108.125 35.5095 108.125Z" fill="url(#paint26_linear)"/>
</mask>
<g mask="url(#mask13)">
<path d="M35.5095 108.125C38.397 108.125 40.7378 105.791 40.7378 102.912C40.7378 100.033 38.397 97.6997 35.5095 97.6997C32.6219 97.6997 30.2811 100.033 30.2811 102.912C30.2811 105.791 32.6219 108.125 35.5095 108.125Z" fill="url(#paint27_linear)"/>
</g>
<mask id="mask14" style="mask-type:alpha" maskUnits="userSpaceOnUse" x="60" y="97" width="12" height="12">
<path d="M65.7905 108.125C68.6781 108.125 71.0189 105.791 71.0189 102.912C71.0189 100.033 68.6781 97.6997 65.7905 97.6997C62.903 97.6997 60.5621 100.033 60.5621 102.912C60.5621 105.791 62.903 108.125 65.7905 108.125Z" fill="url(#paint28_linear)"/>
</mask>
<g mask="url(#mask14)">
<path d="M65.7905 108.125C68.6781 108.125 71.0189 105.791 71.0189 102.912C71.0189 100.033 68.6781 97.6997 65.7905 97.6997C62.903 97.6997 60.5621 100.033 60.5621 102.912C60.5621 105.791 62.903 108.125 65.7905 108.125Z" fill="url(#paint29_linear)"/>
</g>
</g>
<defs>
<linearGradient id="paint0_linear" x1="54.996" y1="131.134" x2="-16.4057" y2="-50.67" gradientUnits="userSpaceOnUse">
<stop/>
<stop offset="1" stop-color="white"/>
</linearGradient>
<linearGradient id="paint1_linear" x1="54.996" y1="131.134" x2="-16.4057" y2="-50.67" gradientUnits="userSpaceOnUse">
<stop stop-color="#97C3F9"/>
<stop offset="1" stop-color="#93C1F9"/>
</linearGradient>
<linearGradient id="paint2_linear" x1="81.2005" y1="120.843" x2="9.79889" y2="-60.9613" gradientUnits="userSpaceOnUse">
<stop/>
<stop offset="1" stop-color="white"/>
</linearGradient>
<linearGradient id="paint3_linear" x1="81.2005" y1="120.843" x2="9.79889" y2="-60.9613" gradientUnits="userSpaceOnUse">
<stop stop-color="#97C3F9"/>
<stop offset="1" stop-color="#93C1F9"/>
</linearGradient>
<linearGradient id="paint4_linear" x1="107.405" y1="110.551" x2="36.0033" y2="-71.2526" gradientUnits="userSpaceOnUse">
<stop/>
<stop offset="1" stop-color="white"/>
</linearGradient>
<linearGradient id="paint5_linear" x1="107.405" y1="110.551" x2="36.0033" y2="-71.2526" gradientUnits="userSpaceOnUse">
<stop stop-color="#97C3F9"/>
<stop offset="1" stop-color="#93C1F9"/>
</linearGradient>
<linearGradient id="paint6_linear" x1="46.0538" y1="132.899" x2="-25.3466" y2="-48.9031" gradientUnits="userSpaceOnUse">
<stop/>
<stop offset="1" stop-color="white"/>
</linearGradient>
<linearGradient id="paint7_linear" x1="46.0538" y1="132.899" x2="-25.3466" y2="-48.9031" gradientUnits="userSpaceOnUse">
<stop stop-color="#97C3F9"/>
<stop offset="1" stop-color="#93C1F9"/>
</linearGradient>
<linearGradient id="paint8_linear" x1="72.2581" y1="122.608" x2="0.857718" y2="-59.195" gradientUnits="userSpaceOnUse">
<stop/>
<stop offset="1" stop-color="white"/>
</linearGradient>
<linearGradient id="paint9_linear" x1="72.2581" y1="122.608" x2="0.857718" y2="-59.195" gradientUnits="userSpaceOnUse">
<stop stop-color="#97C3F9"/>
<stop offset="1" stop-color="#93C1F9"/>
</linearGradient>
<linearGradient id="paint10_linear" x1="98.4624" y1="112.316" x2="27.0621" y2="-69.4863" gradientUnits="userSpaceOnUse">
<stop/>
<stop offset="1" stop-color="white"/>
</linearGradient>
<linearGradient id="paint11_linear" x1="98.4624" y1="112.316" x2="27.0621" y2="-69.4863" gradientUnits="userSpaceOnUse">
<stop stop-color="#97C3F9"/>
<stop offset="1" stop-color="#93C1F9"/>
</linearGradient>
<linearGradient id="paint12_linear" x1="37.1113" y1="134.72" x2="-34.2903" y2="-47.0835" gradientUnits="userSpaceOnUse">
<stop/>
<stop offset="1" stop-color="white"/>
</linearGradient>
<linearGradient id="paint13_linear" x1="37.1113" y1="134.72" x2="-34.2903" y2="-47.0835" gradientUnits="userSpaceOnUse">
<stop stop-color="#97C3F9"/>
<stop offset="1" stop-color="#93C1F9"/>
</linearGradient>
<linearGradient id="paint14_linear" x1="63.3157" y1="124.429" x2="-8.0859" y2="-57.3751" gradientUnits="userSpaceOnUse">
<stop/>
<stop offset="1" stop-color="white"/>
</linearGradient>
<linearGradient id="paint15_linear" x1="63.3157" y1="124.429" x2="-8.0859" y2="-57.3751" gradientUnits="userSpaceOnUse">
<stop stop-color="#97C3F9"/>
<stop offset="1" stop-color="#93C1F9"/>
</linearGradient>
<linearGradient id="paint16_linear" x1="89.5201" y1="114.137" x2="18.1185" y2="-67.6665" gradientUnits="userSpaceOnUse">
<stop/>
<stop offset="1" stop-color="white"/>
</linearGradient>
<linearGradient id="paint17_linear" x1="89.5201" y1="114.137" x2="18.1185" y2="-67.6665" gradientUnits="userSpaceOnUse">
<stop stop-color="#97C3F9"/>
<stop offset="1" stop-color="#93C1F9"/>
</linearGradient>
<linearGradient id="paint18_linear" x1="28.169" y1="136.486" x2="-43.2327" y2="-45.3175" gradientUnits="userSpaceOnUse">
<stop/>
<stop offset="1" stop-color="white"/>
</linearGradient>
<linearGradient id="paint19_linear" x1="28.169" y1="136.486" x2="-43.2327" y2="-45.3175" gradientUnits="userSpaceOnUse">
<stop stop-color="#97C3F9"/>
<stop offset="1" stop-color="#93C1F9"/>
</linearGradient>
<linearGradient id="paint20_linear" x1="54.3734" y1="126.195" x2="-17.0283" y2="-55.609" gradientUnits="userSpaceOnUse">
<stop/>
<stop offset="1" stop-color="white"/>
</linearGradient>
<linearGradient id="paint21_linear" x1="54.3734" y1="126.195" x2="-17.0283" y2="-55.609" gradientUnits="userSpaceOnUse">
<stop stop-color="#97C3F9"/>
<stop offset="1" stop-color="#93C1F9"/>
</linearGradient>
<linearGradient id="paint22_linear" x1="80.5777" y1="115.903" x2="9.17609" y2="-65.9004" gradientUnits="userSpaceOnUse">
<stop/>
<stop offset="1" stop-color="white"/>
</linearGradient>
<linearGradient id="paint23_linear" x1="80.5777" y1="115.903" x2="9.17609" y2="-65.9004" gradientUnits="userSpaceOnUse">
<stop stop-color="#97C3F9"/>
<stop offset="1" stop-color="#93C1F9"/>
</linearGradient>
<linearGradient id="paint24_linear" x1="19.2266" y1="138.307" x2="-52.1751" y2="-43.4972" gradientUnits="userSpaceOnUse">
<stop/>
<stop offset="1" stop-color="white"/>
</linearGradient>
<linearGradient id="paint25_linear" x1="19.2266" y1="138.307" x2="-52.1751" y2="-43.4972" gradientUnits="userSpaceOnUse">
<stop stop-color="#97C3F9"/>
<stop offset="1" stop-color="#93C1F9"/>
</linearGradient>
<linearGradient id="paint26_linear" x1="45.431" y1="128.015" x2="-25.9706" y2="-53.7887" gradientUnits="userSpaceOnUse">
<stop/>
<stop offset="1" stop-color="white"/>
</linearGradient>
<linearGradient id="paint27_linear" x1="45.431" y1="128.015" x2="-25.9706" y2="-53.7887" gradientUnits="userSpaceOnUse">
<stop stop-color="#97C3F9"/>
<stop offset="1" stop-color="#93C1F9"/>
</linearGradient>
<linearGradient id="paint28_linear" x1="71.6353" y1="117.724" x2="0.233749" y2="-64.08" gradientUnits="userSpaceOnUse">
<stop/>
<stop offset="1" stop-color="white"/>
</linearGradient>
<linearGradient id="paint29_linear" x1="71.6353" y1="117.724" x2="0.233749" y2="-64.08" gradientUnits="userSpaceOnUse">
<stop stop-color="#97C3F9"/>
<stop offset="1" stop-color="#93C1F9"/>
</linearGradient>
</defs>
</svg>
