<svg width="354" height="387" viewBox="0 0 354 387" fill="none" xmlns="http://www.w3.org/2000/svg">
<g opacity="0.06">
<path d="M319.986 57.4453H1.01367C-17.7793 57.4453 -33 72.7605 -33 91.459V295.541C-33 314.351 -17.6674 329.555 1.01367 329.555H319.986C338.622 329.555 354 314.415 354 295.541V91.459C354 72.7938 338.84 57.4453 319.986 57.4453ZM315.223 80.1211C308.274 87.0334 188.681 205.997 184.551 210.104C178.127 216.529 169.585 220.066 160.5 220.066C151.415 220.066 142.873 216.528 136.427 210.083C133.65 207.32 15.3773 89.6706 5.7771 80.1211H315.223ZM-10.3242 290.926V96.0886L87.6639 193.56L-10.3242 290.926ZM5.79146 306.879L103.741 209.552L120.415 226.138C131.122 236.846 145.358 242.742 160.5 242.742C175.642 242.742 189.878 236.846 200.564 226.159L217.259 209.552L315.209 306.879H5.79146ZM331.324 290.926L233.336 193.56L331.324 96.0886V290.926Z" fill="#3BADEE"/>
</g>
</svg>
