<svg width="194" height="69" viewBox="0 0 194 69" fill="none" xmlns="http://www.w3.org/2000/svg">
<path d="M176.87 48.1895L160.43 64.5495L143.98 48.1895L127.54 64.5495L111.1 48.1895L96.6 62.6195L82.09 48.1895L65.65 64.5495L49.2 48.1895L32.76 64.5495L16.32 48.1895L0 64.4295L1.82 66.2495L16.32 51.8195L32.76 68.1795L49.2 51.8195L65.65 68.1795L82.09 51.8195L96.6 66.2595L111.1 51.8195L127.54 68.1795L143.98 51.8195L160.43 68.1795L176.87 51.8195L191.38 66.2495L193.19 64.4295L176.87 48.1895Z" fill="#0B315E"/>
<path d="M176.87 18.9395L160.43 35.2995L143.98 18.9395L127.54 35.2995L111.1 18.9395L98.06 31.9195L98.05 35.5595L111.1 22.5695L127.54 38.9295L143.98 22.5695L160.43 38.9295L176.87 22.5695L191.38 36.9995L193.19 35.1695L176.87 18.9395Z" fill="#FF9D00"/>
<path d="M21.3398 0L21.3198 19.14L37.8998 9.58L21.3398 0Z" fill="#FFC200"/>
</svg>
