<svg width="610" height="408" viewBox="0 0 610 408" fill="none" xmlns="http://www.w3.org/2000/svg">
<g clip-path="url(#clip0)">
<path opacity="0.1" d="M411.028 408C452.761 408 486.594 405.629 486.594 402.705C486.594 399.781 452.761 397.411 411.028 397.411C369.294 397.411 335.462 399.781 335.462 402.705C335.462 405.629 369.294 408 411.028 408Z" fill="#FF1949"/>
<path opacity="0.1" d="M610 240.427C609.947 318.786 546.035 382.321 467.276 382.268C459.72 382.268 452.216 381.686 444.766 380.468H218.76C210.033 381.686 201.252 382.268 192.419 382.268C186.086 382.268 179.86 381.951 173.687 381.368C75.2383 371.838 0.204595 289.507 0.311026 191.134C0.311026 85.5603 86.3072 0 192.419 0C277.883 0 350.256 55.4872 375.214 132.258C400.97 110.498 433.644 98.5321 467.436 98.585C546.195 98.585 610 162.067 610 240.427Z" fill="#3BADEE"/>
<path opacity="0.1" d="M555.241 352.195C523.951 376.497 483.933 386.716 444.766 380.521H218.76C210.033 381.739 201.252 382.321 192.419 382.321C186.086 382.321 179.86 382.003 173.687 381.421C97.1631 373.903 32.5064 321.804 9.25128 248.898C27.6638 209.771 74.9191 181.921 130.37 181.921C184.383 181.921 230.681 208.341 249.998 245.933C259.523 244.186 269.155 243.338 278.84 243.338C334.823 243.338 382.504 271.77 400.491 311.48C415.391 306.979 430.877 304.703 446.469 304.756C492.075 304.756 532.252 323.657 555.241 352.195Z" fill="#3BADEE"/>
<path d="M187.47 356.431C187.47 369.985 182.255 377.344 173.687 381.368C141.438 378.244 110.467 367.073 83.7529 348.754C84.4447 344.147 85.7751 339.647 87.6376 335.358L112.01 342.877L90.2984 330.17C93.2252 325.193 97.0035 320.745 101.42 316.986L142.343 329.64L110.254 310.897C135.531 297.131 167.195 306.344 181.031 331.44C182.308 333.823 183.425 336.258 184.383 338.8L184.49 339.117C184.596 339.382 184.649 339.594 184.756 339.859C185.022 340.706 185.288 341.553 185.554 342.4C185.66 342.718 185.714 343.035 185.82 343.353C185.926 343.671 185.98 343.935 186.033 344.253C186.086 344.571 186.139 344.783 186.193 345.047C186.246 345.206 186.246 345.365 186.299 345.524C186.352 345.789 186.405 346.053 186.459 346.318C186.512 346.689 186.618 347.059 186.671 347.43C186.725 347.8 186.831 348.224 186.884 348.595C186.938 348.965 186.991 349.442 187.044 349.865C187.097 350.289 187.15 350.66 187.204 351.03C187.204 351.136 187.204 351.295 187.257 351.401C187.31 351.718 187.31 352.089 187.363 352.407C187.363 352.46 187.363 352.513 187.363 352.566C187.416 352.989 187.416 353.413 187.416 353.836C187.416 354.26 187.47 354.683 187.47 355.054C187.47 355.107 187.47 355.16 187.47 355.16C187.47 355.584 187.47 356.007 187.47 356.431Z" fill="#3BADEE"/>
<path opacity="0.1" d="M187.47 356.431C187.47 369.985 182.255 377.345 173.687 381.368C152.826 379.357 132.445 373.956 113.341 365.379L114.192 364.796C118.13 362.202 122.228 359.555 126.857 358.655C130.955 357.861 135.159 358.549 139.31 358.284C146.547 357.861 153.305 354.737 158.361 349.601C161.341 346.53 163.682 342.824 167.195 340.494C171.026 338.006 175.922 337.424 180.445 338.059C181.776 338.271 183.106 338.535 184.383 338.853L184.49 339.171C184.596 339.435 184.649 339.647 184.756 339.912C185.022 340.759 185.288 341.606 185.554 342.453C185.66 342.771 185.714 343.089 185.82 343.406C185.926 343.724 185.98 343.989 186.033 344.306C186.086 344.624 186.139 344.836 186.193 345.101C186.246 345.259 186.246 345.418 186.299 345.577C186.352 345.842 186.405 346.107 186.459 346.371C186.512 346.742 186.618 347.113 186.671 347.483C186.725 347.854 186.831 348.277 186.884 348.648C186.938 349.019 186.991 349.495 187.044 349.919C187.097 350.342 187.15 350.713 187.204 351.084C187.204 351.189 187.204 351.348 187.257 351.454C187.31 351.772 187.31 352.142 187.363 352.46C187.363 352.513 187.363 352.566 187.363 352.619C187.416 353.043 187.416 353.466 187.416 353.89C187.416 354.313 187.47 354.737 187.47 355.107C187.47 355.16 187.47 355.213 187.47 355.213C187.47 355.584 187.47 356.007 187.47 356.431Z" fill="black"/>
<path d="M498.141 365.273C498.141 366.649 497.982 368.026 497.716 369.403C497.662 369.667 497.609 369.932 497.556 370.144C496.066 376.18 491.809 380.574 486.7 380.892C486.54 380.892 486.381 380.892 486.168 380.892C480.793 380.892 476.216 376.286 474.726 369.932C474.673 369.773 474.62 369.614 474.62 369.403C474.354 368.026 474.194 366.649 474.194 365.273C474.194 356.643 479.569 349.654 486.168 349.654C492.767 349.654 498.141 356.643 498.141 365.273Z" fill="#3F3D56"/>
<path opacity="0.1" d="M498.141 365.273C498.141 366.649 497.982 368.026 497.716 369.403C497.662 369.667 497.609 369.932 497.556 370.144C497.396 370.144 497.183 370.144 497.024 370.144C495.693 370.091 494.416 369.879 493.086 369.614C491.968 369.985 490.798 370.25 489.574 370.409C488.669 370.567 487.764 370.62 486.86 370.673C486.54 370.673 486.221 370.673 485.955 370.673C484.837 370.673 483.773 370.62 482.656 370.462C480.899 370.25 479.197 369.826 477.494 369.191C476.589 369.509 475.631 369.72 474.726 369.932C474.673 369.773 474.62 369.614 474.62 369.403C474.354 368.026 474.194 366.649 474.194 365.273C474.194 356.643 479.569 349.654 486.168 349.654C492.767 349.654 498.141 356.643 498.141 365.273Z" fill="black"/>
<path d="M523.685 336.206C523.685 332.393 522.78 328.687 521.077 325.299L506.975 329.64L519.321 322.387C515.117 316.351 508.412 312.539 501.015 312.009C500.43 311.162 499.791 310.315 499.099 309.521L478.877 315.768L495.48 306.079C484.837 297.926 469.565 299.938 461.369 310.527C459.454 313.068 458.017 315.927 457.165 318.998L474.46 338.853L455.675 325.352C444.713 333.082 442.105 348.224 449.928 359.131C456.154 367.814 467.33 371.467 477.494 368.079C482.496 369.932 487.977 370.038 493.086 368.502C506.23 371.361 519.215 363.102 522.088 350.024C522.461 348.33 522.674 346.583 522.674 344.836C522.674 344.306 522.674 343.777 522.62 343.247C523.312 340.971 523.685 338.588 523.685 336.206Z" fill="#3BADEE"/>
<path opacity="0.1" d="M523.259 340.706C515.809 339.329 508.199 339.224 500.749 340.441C492.288 341.818 483.667 344.889 475.365 342.665C470.522 341.341 466.318 338.324 461.582 336.629C457.006 335.041 452.057 334.723 447.321 335.782C442.159 348.118 448.012 362.308 460.411 367.497C465.839 369.773 471.906 369.985 477.494 368.132C482.496 369.985 487.977 370.091 493.086 368.556C506.23 371.415 519.214 363.155 522.088 350.077C522.461 348.383 522.673 346.636 522.673 344.889C522.673 344.359 522.673 343.83 522.62 343.3C522.886 342.4 523.099 341.553 523.259 340.706Z" fill="black"/>
<path d="M377.715 132.576H380.003C380.695 132.576 381.227 133.106 381.227 133.794V170.009C381.227 170.697 380.695 171.227 380.003 171.227H377.715C377.023 171.227 376.491 170.697 376.491 170.009V133.794C376.544 133.106 377.076 132.576 377.715 132.576Z" fill="#3A3768"/>
<path d="M221.049 102.291H221.261C221.953 102.291 222.485 102.82 222.485 103.509V113.833C222.485 114.521 221.953 115.051 221.261 115.051H221.049C220.357 115.051 219.825 114.521 219.825 113.833V103.509C219.825 102.82 220.357 102.291 221.049 102.291Z" fill="#3A3768"/>
<path d="M220.942 125.587H221.474C222.166 125.587 222.698 126.117 222.698 126.805V146.554C222.698 147.242 222.166 147.772 221.474 147.772H220.942C220.25 147.772 219.718 147.242 219.718 146.554V126.805C219.718 126.17 220.304 125.587 220.942 125.587Z" fill="#3A3768"/>
<path d="M220.995 155.501H221.368C222.06 155.501 222.592 156.031 222.592 156.719V176.627C222.592 177.315 222.06 177.845 221.368 177.845H220.995C220.304 177.845 219.771 177.315 219.771 176.627V156.719C219.771 156.031 220.304 155.501 220.995 155.501Z" fill="#3A3768"/>
<path d="M242.069 60.2524H358.291C369.732 60.2524 379.045 69.5179 379.045 80.9013V358.549C379.045 369.932 369.732 379.198 358.291 379.198H242.069C230.627 379.198 221.315 369.932 221.315 358.549V80.9013C221.315 69.465 230.627 60.2524 242.069 60.2524Z" fill="#3F3D56"/>
<path d="M287.036 69.7827H304.969C306.087 69.7827 307.045 70.6828 307.045 71.8476V72.2182C307.045 73.3301 306.14 74.2831 304.969 74.2831H287.036C285.918 74.2831 284.96 73.383 284.96 72.2182V71.8476C284.96 70.6828 285.918 69.7827 287.036 69.7827Z" fill="#E6E8EC"/>
<path d="M312.845 74.5476C314.256 74.5476 315.4 73.4098 315.4 72.0062C315.4 70.6027 314.256 69.4648 312.845 69.4648C311.434 69.4648 310.291 70.6027 310.291 72.0062C310.291 73.4098 311.434 74.5476 312.845 74.5476Z" fill="#E6E8EC"/>
<path d="M356.748 68.5649H338.708V70.7357C338.708 76.4009 334.078 81.0072 328.384 81.0072H270.858C265.164 81.0072 260.534 76.4009 260.534 70.7357V68.5649H243.612C236.694 68.5649 231.106 74.1242 231.106 81.0072V358.39C231.106 365.273 236.694 370.832 243.612 370.832H356.801C363.719 370.832 369.307 365.273 369.307 358.39V81.0072C369.307 74.1242 363.719 68.5649 356.748 68.5649Z" fill="#4B92E3"/>
<path opacity="0.1" d="M316.145 118.334H236.854V131.041H316.145V118.334Z" fill="black" stroke="#FF1949" stroke-miterlimit="10"/>
<path opacity="0.1" d="M256.064 205.165C265.469 205.165 273.093 197.579 273.093 188.222C273.093 178.865 265.469 171.279 256.064 171.279C246.66 171.279 239.035 178.865 239.035 188.222C239.035 197.579 246.66 205.165 256.064 205.165Z" fill="#FF1949" stroke="#FF1949" stroke-miterlimit="10.0002"/>
<path d="M251.222 185.046V191.399H255.479L260.8 196.958V179.486L255.479 185.046H251.222Z" fill="white"/>
<path opacity="0.1" d="M301.244 205.165C310.649 205.165 318.273 197.579 318.273 188.222C318.273 178.865 310.649 171.279 301.244 171.279C291.839 171.279 284.215 178.865 284.215 188.222C284.215 197.579 291.839 205.165 301.244 205.165Z" fill="#FF1949" stroke="#FF1949" stroke-miterlimit="10"/>
<path d="M301.244 195.264C300.127 195.264 299.222 196.164 299.222 197.276C299.222 198.388 300.127 199.288 301.244 199.288C302.362 199.288 303.266 198.388 303.266 197.276C303.266 196.164 302.362 195.264 301.244 195.264ZM295.284 177.104C294.167 177.104 293.262 178.004 293.262 179.115C293.262 180.227 294.167 181.127 295.284 181.127C296.402 181.127 297.306 180.227 297.306 179.115C297.306 178.004 296.402 177.104 295.284 177.104ZM295.284 183.139C294.167 183.139 293.262 184.039 293.262 185.151C293.262 186.263 294.167 187.163 295.284 187.163C296.402 187.163 297.306 186.263 297.306 185.151C297.306 184.039 296.402 183.139 295.284 183.139ZM295.284 189.228C294.167 189.228 293.262 190.128 293.262 191.24C293.262 192.352 294.167 193.252 295.284 193.252C296.402 193.252 297.306 192.352 297.306 191.24C297.306 190.128 296.402 189.228 295.284 189.228ZM307.204 181.127C308.322 181.127 309.227 180.227 309.227 179.115C309.227 178.004 308.322 177.104 307.204 177.104C306.087 177.104 305.182 178.004 305.182 179.115C305.182 180.227 306.087 181.127 307.204 181.127ZM301.244 189.228C300.127 189.228 299.222 190.128 299.222 191.24C299.222 192.352 300.127 193.252 301.244 193.252C302.362 193.252 303.266 192.352 303.266 191.24C303.266 190.128 302.362 189.228 301.244 189.228ZM307.204 189.228C306.087 189.228 305.182 190.128 305.182 191.24C305.182 192.352 306.087 193.252 307.204 193.252C308.322 193.252 309.227 192.352 309.227 191.24C309.227 190.128 308.322 189.228 307.204 189.228ZM307.204 183.139C306.087 183.139 305.182 184.039 305.182 185.151C305.182 186.263 306.087 187.163 307.204 187.163C308.322 187.163 309.227 186.263 309.227 185.151C309.227 184.039 308.322 183.139 307.204 183.139ZM301.244 183.139C300.127 183.139 299.222 184.039 299.222 185.151C299.222 186.263 300.127 187.163 301.244 187.163C302.362 187.163 303.266 186.263 303.266 185.151C303.266 184.039 302.362 183.139 301.244 183.139ZM301.244 177.104C300.127 177.104 299.222 178.004 299.222 179.115C299.222 180.227 300.127 181.127 301.244 181.127C302.362 181.127 303.266 180.227 303.266 179.115C303.266 178.004 302.362 177.104 301.244 177.104Z" fill="white"/>
<g opacity="0.4">
<path opacity="0.1" d="M256.064 255.993C265.469 255.993 273.093 248.407 273.093 239.05C273.093 229.693 265.469 222.107 256.064 222.107C246.66 222.107 239.035 229.693 239.035 239.05C239.035 248.407 246.66 255.993 256.064 255.993Z" fill="black" stroke="#FF1949" stroke-miterlimit="10.0002"/>
<path opacity="0.4" d="M263.993 240.109H257.075V246.992H254.947V240.109H248.029V237.991H254.947V231.108H257.075V237.991H263.993V240.109Z" fill="white"/>
</g>
<path opacity="0.1" d="M346.477 205.165C355.882 205.165 363.506 197.579 363.506 188.222C363.506 178.865 355.882 171.279 346.477 171.279C337.073 171.279 329.448 178.865 329.448 188.222C329.448 197.579 337.073 205.165 346.477 205.165Z" fill="black" stroke="#FF1949" stroke-miterlimit="10"/>
<path d="M346.477 177.898C341.103 177.951 336.845 182.345 336.899 187.693V195.317C336.899 197.117 338.282 198.547 340.091 198.6H343.284V189.864H339.027V187.746C339.027 183.669 342.38 180.333 346.477 180.333C350.575 180.333 353.927 183.669 353.927 187.746V189.864H349.67V198.547H352.863C354.672 198.547 356.056 197.064 356.056 195.317V187.693C356.163 182.345 351.852 177.951 346.477 177.898Z" fill="white"/>
<g opacity="0.4">
<path opacity="0.1" d="M301.244 255.993C310.649 255.993 318.273 248.407 318.273 239.05C318.273 229.693 310.649 222.107 301.244 222.107C291.839 222.107 284.215 229.693 284.215 239.05C284.215 248.407 291.839 255.993 301.244 255.993Z" fill="white" stroke="#FF1949" stroke-miterlimit="10"/>
<path opacity="0.4" d="M307.63 237.197V232.961C307.63 232.273 307.045 231.744 306.406 231.744H291.346C290.654 231.744 290.122 232.273 290.122 232.961V245.033C290.122 245.721 290.708 246.251 291.346 246.251H306.406C307.098 246.251 307.63 245.721 307.63 245.033V240.797L312.419 245.615V232.379L307.63 237.197Z" fill="white"/>
</g>
<path opacity="0.1" d="M346.477 255.993C355.882 255.993 363.506 248.407 363.506 239.05C363.506 229.693 355.882 222.107 346.477 222.107C337.073 222.107 329.448 229.693 329.448 239.05C329.448 248.407 337.073 255.993 346.477 255.993Z" fill="black" stroke="#FF1949" stroke-miterlimit="10"/>
<path d="M345.626 243.392C343.763 244.45 341.475 244.45 339.613 243.392C337.271 244.08 335.834 246.462 335.302 248.58H349.936C349.457 246.462 348.021 244.133 345.626 243.392ZM342.646 232.273C339.719 232.273 337.378 234.603 337.378 237.515C337.378 240.427 339.719 242.756 342.646 242.756C345.573 242.756 347.914 240.427 347.914 237.515C347.914 234.655 345.573 232.273 342.646 232.273ZM342.646 241.538C340.996 241.485 339.559 240.532 338.974 239.05H346.371C345.732 240.532 344.295 241.485 342.646 241.538Z" fill="white"/>
<path d="M349.83 245.403H357.706C357.227 243.18 355.577 241.38 353.395 240.638C352.491 241.168 351.426 241.433 350.362 241.433C349.67 241.433 348.978 241.327 348.287 241.062C347.914 241.697 347.435 242.28 346.903 242.809C348.074 243.339 349.085 244.239 349.83 245.403ZM349.032 236.244H354.034C353.395 237.726 351.958 238.732 350.362 238.732C349.936 238.732 349.511 238.679 349.085 238.521C349.032 238.944 348.925 239.368 348.766 239.738C351.533 240.638 354.513 239.103 355.417 236.35C356.322 233.597 354.779 230.632 352.012 229.732C351.48 229.573 350.947 229.467 350.415 229.467C348.606 229.467 346.956 230.367 345.945 231.902C347.488 232.855 348.659 234.444 349.032 236.244Z" fill="white"/>
<path d="M301.244 323.763C310.649 323.763 318.273 316.178 318.273 306.821C318.273 297.463 310.649 289.878 301.244 289.878C291.839 289.878 284.215 297.463 284.215 306.821C284.215 316.178 291.839 323.763 301.244 323.763Z" fill="#FF1949"/>
<path d="M292.517 311.003C293.475 310.103 294.486 309.415 295.657 308.833C296.029 308.674 296.242 308.303 296.242 307.932L296.348 304.65C299.595 303.697 303.107 303.803 306.3 304.915L306.193 308.197C306.193 308.568 306.406 308.938 306.725 309.15C307.896 309.733 308.907 310.527 309.812 311.48C310.238 311.903 310.876 311.903 311.302 311.533L314.016 308.991C314.442 308.568 314.442 307.932 314.069 307.509C307.204 300.308 295.763 299.991 288.473 306.821C288.047 307.244 288.047 307.879 288.419 308.303L290.974 311.003C291.399 311.374 292.091 311.374 292.517 311.003Z" fill="white"/>
<path opacity="0.1" d="M348.606 142.159C355.953 142.159 361.91 136.233 361.91 128.923C361.91 121.613 355.953 115.687 348.606 115.687C341.258 115.687 335.302 121.613 335.302 128.923C335.302 136.233 341.258 142.159 348.606 142.159Z" fill="black" stroke="#FF1949" stroke-miterlimit="10"/>
<path d="M351.639 131.888C349.777 132.947 347.488 132.947 345.626 131.888C343.284 132.629 341.848 134.959 341.315 137.076H356.003C355.417 134.959 353.981 132.576 351.639 131.888ZM348.606 120.769C345.679 120.769 343.338 123.099 343.338 126.011C343.338 128.923 345.679 131.252 348.606 131.252C351.533 131.252 353.874 128.923 353.874 126.011C353.874 123.099 351.533 120.769 348.606 120.769ZM348.606 130.035C347.009 129.982 345.519 129.029 344.934 127.546H352.331C351.692 128.976 350.256 129.982 348.606 130.035Z" fill="white"/>
<path opacity="0.1" d="M215.621 35.1558C214.397 34.4146 212.694 35.1029 211.842 36.2677C210.991 37.4325 210.778 38.915 210.512 40.2916C210.033 43.4154 209.714 47.0157 211.842 49.3982C208.383 38.915 198.379 30.9202 187.363 29.7554" stroke="#FF1949" stroke-width="3" stroke-miterlimit="10"/>
<path opacity="0.1" d="M430.611 207.865C429.813 207.389 428.748 207.865 428.216 208.606C427.737 209.4 427.418 210.301 427.365 211.201C427.045 213.213 426.833 215.542 428.216 217.025C425.821 210.195 419.755 205.271 412.518 204.371" stroke="#FF1949" stroke-width="3" stroke-miterlimit="10"/>
<path opacity="0.1" d="M159.478 139.459C158.68 138.983 157.616 139.459 157.084 140.201C156.605 140.995 156.285 141.895 156.232 142.795C155.913 144.807 155.7 147.136 157.084 148.619C154.689 141.789 148.569 136.865 141.385 135.965" stroke="#FF1949" stroke-width="3" stroke-miterlimit="10"/>
<path d="M371.116 387.033C371.648 388.039 372.659 388.622 373.617 389.204C380.322 393.016 387.347 396.193 394.69 398.628C395.382 398.999 396.234 398.787 396.606 398.099C396.659 397.993 396.713 397.94 396.713 397.834C397.564 396.405 398.469 394.128 398.256 392.275C398.948 391.851 399.427 391.216 399.64 390.422C399.906 389.469 400.385 388.569 400.917 387.775C401.928 386.292 403.099 384.757 403.258 382.956C403.258 382.321 403.311 381.686 403.418 381.05C403.684 380.203 404.429 379.674 405.014 378.986C405.919 377.927 406.291 376.55 406.717 375.226C408.367 369.72 410.017 364.161 411.4 358.549C411.826 356.748 412.252 354.895 412.89 353.148C413.422 351.613 414.114 350.13 414.753 348.648C417.147 343.3 419.968 338.111 423.161 333.135C423.64 334.776 424.278 336.417 424.97 338.006C425.343 338.8 425.715 339.647 426.088 340.441C427.471 343.512 427.205 347.483 428.908 350.395C429.6 351.613 430.292 352.777 430.983 353.995C431.356 354.578 431.675 355.213 431.888 355.901C431.994 356.378 431.994 356.854 432.101 357.331C432.473 359.449 434.176 360.931 435.134 362.837C436.039 364.584 436.198 366.543 436.731 368.449C438.008 372.844 441.094 376.656 441.414 381.262C441.467 382.48 441.414 383.751 441.307 384.968C441.254 387.139 441.36 389.31 441.733 391.428C441.786 391.64 441.839 391.851 441.893 392.063C439.179 396.087 434.975 398.946 430.185 399.952C429.28 400.111 428.216 400.323 427.79 401.17C427.205 402.176 427.844 403.499 428.855 404.029C429.866 404.558 430.983 404.505 432.048 404.4C439.657 403.764 447.214 402.388 454.611 400.27C454.984 400.217 455.303 400.005 455.569 399.74C455.835 399.37 455.941 398.893 455.888 398.417C455.888 396.722 455.462 395.028 454.717 393.493L455.25 393.334C455.569 391.216 454.451 389.151 453.6 387.192C452.11 383.751 451.312 380.044 450.141 376.497C447.906 369.614 444.234 363.208 443.383 356.007C443.116 354.048 442.531 352.036 442.425 350.024C442.159 345.947 441.893 341.871 440.988 337.953C440.243 334.723 439.072 331.599 438.327 328.316C437.582 325.034 437.369 321.592 438.434 318.416C438.753 317.516 439.179 316.668 439.445 315.768C440.509 312.274 439.498 308.462 438.487 304.967C438.167 303.856 437.848 302.744 437.529 301.632C437.103 300.149 436.677 298.72 436.198 297.29C436.252 297.237 436.305 297.184 436.358 297.131C437.316 296.073 437.263 294.431 437.955 293.161C438.274 292.525 438.806 291.996 439.125 291.36C439.764 289.984 439.977 288.448 439.604 286.966C439.338 285.483 438.753 284.054 438.327 282.624C437.156 278.653 437.103 274.471 438.061 270.447C438.487 268.753 439.125 267.058 439.232 265.311C439.285 264.146 439.179 262.928 438.912 261.817C438.114 257.369 436.465 252.869 433.165 249.904C431.409 248.315 429.068 246.939 428.855 244.503C428.589 244.397 428.269 244.397 427.95 244.45C427.79 243.921 427.684 243.339 427.631 242.756C427.79 242.756 427.95 242.756 428.11 242.756C428.269 242.756 428.376 242.703 428.482 242.65C428.535 242.597 428.589 242.544 428.695 242.491C428.908 242.28 429.068 242.068 429.227 241.803C429.44 241.433 429.653 241.062 429.813 240.797C429.972 240.532 430.238 240.109 430.451 239.738C431.09 238.679 431.675 237.62 432.207 236.509V236.456C432.261 236.35 432.314 236.244 432.367 236.138L432.42 235.979L432.527 235.767C432.527 235.714 432.58 235.661 432.58 235.608C432.58 235.556 432.633 235.45 432.686 235.397L432.739 235.238C432.739 235.185 432.793 235.132 432.793 235.026C432.793 234.973 432.846 234.92 432.846 234.867C432.846 234.814 432.899 234.761 432.899 234.655C432.899 234.55 432.952 234.55 432.952 234.444C432.952 234.338 433.006 234.338 433.006 234.232L433.059 234.02C433.059 233.967 433.112 233.914 433.112 233.808L433.165 233.597L433.218 233.385L433.272 233.173C433.272 233.12 433.272 233.067 433.325 233.014C433.378 232.961 433.325 232.855 433.378 232.802C433.431 232.749 433.378 232.696 433.378 232.644L433.431 232.432V232.273C433.431 232.22 433.431 232.114 433.431 232.061C433.431 232.008 433.431 231.955 433.431 231.902C433.431 231.849 433.431 231.743 433.431 231.69V231.585C433.431 231.532 433.431 231.426 433.431 231.373C433.431 231.32 433.431 231.267 433.431 231.214C433.431 231.161 433.431 231.055 433.431 231.002C433.431 230.949 433.431 230.896 433.431 230.843C433.431 230.632 433.378 230.42 433.325 230.208C432.952 228.99 432.261 227.878 431.249 227.084C430.292 226.29 429.227 225.655 428.057 225.178C427.79 225.072 427.524 224.913 427.312 224.702C427.045 224.331 426.833 223.907 426.673 223.537C426.194 222.743 425.289 222.372 424.385 222.16C423.48 221.948 422.575 221.79 421.83 221.26C421.777 221.207 421.671 221.154 421.617 221.154C421.511 221.154 421.405 221.154 421.298 221.207L419.223 222.107C419.116 221.578 418.637 221.207 418.105 221.313C417.626 221.419 417.147 221.684 416.775 222.054C416.668 221.948 416.615 221.737 416.668 221.578L415.072 222.637C414.859 222.743 414.54 222.796 414.54 222.531C413.635 223.484 412.89 224.543 412.252 225.708C412.039 226.078 411.879 226.449 411.773 226.819C411.773 226.872 411.719 226.978 411.719 227.084V227.137C411.719 227.19 411.666 227.296 411.666 227.349V227.402C411.666 227.508 411.666 227.614 411.666 227.667C411.666 227.773 411.666 227.878 411.666 227.984C411.719 228.567 412.039 229.096 412.571 229.414C412.784 229.467 412.997 229.52 413.209 229.52C413.688 229.467 414.114 229.361 414.54 229.255C414.699 229.202 414.806 229.202 414.966 229.202C415.019 229.202 415.125 229.202 415.178 229.202C415.444 229.202 415.711 229.308 415.923 229.467L415.977 229.52C413.635 231.214 412.252 233.914 412.252 236.826C412.252 238.203 412.571 239.632 413.209 240.85C412.784 241.115 412.518 241.538 412.518 242.068C412.358 241.644 412.305 241.221 412.305 240.797C411.453 240.638 410.815 241.644 410.495 242.491C409.857 244.45 409.325 246.462 409.005 248.527C408.739 249.904 408.473 251.227 408.207 252.604C407.941 253.981 407.675 255.41 407.462 256.84C406.983 260.493 407.143 264.252 407.941 267.852C407.888 267.958 407.835 268.117 407.781 268.223C407.622 268.647 407.143 269.017 407.09 269.441C406.824 272.141 408.526 274.577 410.123 276.694C410.229 276.906 410.442 277.118 410.655 277.224C410.868 277.33 411.134 277.33 411.4 277.33C412.039 277.277 412.677 277.224 413.316 277.118C413.369 277.489 413.422 277.806 413.422 278.177C413.901 281.989 414.646 285.801 414.646 289.613C414.646 293.425 413.901 297.343 415.391 300.732C415.657 301.314 416.083 301.791 416.136 302.373H416.243C415.338 304.226 414.593 306.079 414.061 308.038C413.476 310.315 413.369 312.75 412.677 315.027C412.145 316.986 411.187 318.733 410.442 320.639C409.218 323.71 408.526 326.94 408.314 330.223C408.314 331.758 407.994 333.24 407.409 334.617C406.558 336.311 405.812 338.006 405.174 339.806C404.11 342.929 402.3 345.947 401.981 349.283C401.821 351.189 402.087 353.201 401.289 354.895C400.97 355.584 400.544 356.113 400.172 356.748C399.64 357.754 399.214 358.813 398.948 359.925L393.679 377.291C393.467 378.244 393.041 379.144 392.402 379.886C391.923 380.362 391.285 380.627 390.806 381.103C390.061 381.845 389.848 382.956 389.848 384.068C389.263 384.174 388.73 384.333 388.198 384.598C383.675 386.504 378.619 386.504 374.096 384.598C373.245 384.227 372.287 383.804 371.435 384.227C370.744 384.545 370.584 386.027 371.116 387.033ZM413.103 255.357C413.422 253.928 414.008 252.551 414.859 251.333C416.03 249.374 417.307 247.468 418.425 245.456L418.744 245.139C418.85 245.403 418.903 245.668 419.01 245.933C419.223 246.621 419.382 247.309 419.489 247.998C419.649 248.845 419.702 249.745 419.649 250.645L419.595 250.698C419.17 250.963 418.797 251.333 418.584 251.81C418.425 252.286 418.425 252.763 418.584 253.186L418.531 253.239L418.584 253.186C418.744 253.928 419.116 254.669 419.01 255.41C418.903 256.31 418.158 256.946 417.733 257.74C416.668 259.593 416.988 262.399 415.232 263.511L415.178 263.564C414.433 263.405 413.795 262.876 413.476 262.134C413.582 259.911 412.731 257.634 413.103 255.357Z" fill="url(#paint0_linear)"/>
<path d="M456.793 398.417C456.846 398.893 456.74 399.317 456.474 399.741C456.207 400.005 455.835 400.217 455.462 400.27C447.799 402.388 439.924 403.712 431.994 404.347C430.877 404.453 429.653 404.506 428.642 403.976C427.631 403.447 426.939 402.123 427.578 401.17C428.057 400.376 429.174 400.164 430.079 400.005C435.081 399.052 439.498 396.193 442.425 392.063C442.797 391.481 443.223 390.952 443.755 390.528C444.766 389.84 446.15 389.999 447.32 390.263C449.449 390.687 452.27 391.216 454.185 392.275C456.101 393.334 456.74 396.405 456.793 398.417Z" fill="#3F3D56"/>
<path opacity="0.1" d="M456.793 398.417C456.846 398.893 456.74 399.317 456.474 399.741C456.207 400.005 455.835 400.217 455.462 400.27C447.799 402.388 439.924 403.712 431.994 404.347C430.877 404.453 429.653 404.506 428.642 403.976C427.631 403.447 426.939 402.123 427.578 401.17C428.057 400.376 429.174 400.164 430.079 400.005C435.081 399.052 439.498 396.193 442.425 392.063C442.797 391.481 443.223 390.952 443.755 390.528C444.766 389.84 446.15 389.999 447.32 390.263C449.449 390.687 452.27 391.216 454.185 392.275C456.101 393.334 456.74 396.405 456.793 398.417Z" fill="black"/>
<path d="M394.903 397.887C394.69 398.311 394.318 398.629 393.892 398.788C393.52 398.84 393.094 398.788 392.775 398.629C385.165 396.193 377.821 393.122 370.85 389.31C369.839 388.781 368.828 388.145 368.242 387.192C367.657 386.239 367.87 384.704 368.881 384.227C369.732 383.804 370.744 384.227 371.648 384.598C376.384 386.504 381.6 386.504 386.336 384.598C386.974 384.28 387.613 384.122 388.305 384.016C389.529 384.016 390.593 384.863 391.498 385.71C393.041 387.245 395.116 389.204 396.181 391.11C397.245 393.016 396.021 396.193 394.903 397.887Z" fill="#3F3D56"/>
<path opacity="0.1" d="M394.903 397.887C394.69 398.311 394.318 398.629 393.892 398.788C393.52 398.84 393.094 398.788 392.775 398.629C385.165 396.193 377.821 393.122 370.85 389.31C369.839 388.781 368.828 388.145 368.242 387.192C367.657 386.239 367.87 384.704 368.881 384.227C369.732 383.804 370.744 384.227 371.648 384.598C376.384 386.504 381.6 386.504 386.336 384.598C386.974 384.28 387.613 384.122 388.305 384.016C389.529 384.016 390.593 384.863 391.498 385.71C393.041 387.245 395.116 389.204 396.181 391.11C397.245 393.016 396.021 396.193 394.903 397.887Z" fill="black"/>
<path d="M435.507 296.496C436.305 298.614 436.944 300.732 437.635 302.85L438.646 306.132C439.711 309.574 440.775 313.333 439.657 316.774C439.391 317.674 438.912 318.521 438.593 319.422C437.476 322.545 437.742 325.987 438.487 329.164C439.232 332.34 440.456 335.464 441.254 338.694C442.212 342.612 442.478 346.636 442.744 350.607C442.904 352.566 443.489 354.578 443.755 356.537C444.66 363.631 448.438 369.985 450.833 376.762C452.057 380.256 452.908 383.91 454.451 387.298C455.356 389.257 456.474 391.269 456.154 393.334C451.844 394.869 447.054 394.816 442.957 392.751C442.425 392.54 442.052 392.063 442.052 391.534C441.68 389.416 441.52 387.298 441.626 385.18C441.733 383.962 441.733 382.745 441.733 381.527C441.414 377.027 438.167 373.267 436.89 368.926C436.358 367.073 436.092 365.114 435.187 363.42C434.176 361.566 432.367 360.084 431.994 357.966C431.888 357.49 431.888 357.013 431.782 356.537C431.569 355.848 431.249 355.266 430.824 354.683L428.642 351.136C426.886 348.277 427.099 344.359 425.662 341.288C425.289 340.494 424.864 339.7 424.491 338.853C423.746 337.264 423.161 335.676 422.629 334.035C419.329 338.906 416.402 344.041 413.848 349.336C413.103 350.765 412.464 352.248 411.879 353.783C411.241 355.531 410.815 357.331 410.336 359.131C408.899 364.69 407.143 370.091 405.44 375.544C405.014 376.868 404.589 378.191 403.684 379.25C403.099 379.886 402.3 380.468 402.034 381.262C401.875 381.898 401.821 382.533 401.821 383.168C401.662 384.968 400.385 386.451 399.373 387.933C398.788 388.728 398.309 389.628 398.043 390.581C397.564 392.222 395.861 393.175 394.212 392.699C394.052 392.646 393.946 392.593 393.786 392.54H393.733C393.307 392.328 392.881 392.116 392.509 391.798C391.498 391.163 390.54 390.475 389.635 389.681C388.837 388.939 388.145 388.092 387.506 387.192C387.134 386.663 387.24 385.869 387.826 385.498C387.932 385.445 388.039 385.392 388.145 385.339C388.039 383.857 387.985 382.162 389.05 381.156C389.529 380.68 390.22 380.415 390.753 379.992C391.391 379.303 391.87 378.403 392.083 377.45C393.892 371.785 395.702 366.067 397.511 360.402C397.83 359.29 398.256 358.231 398.788 357.278C399.161 356.642 399.64 356.06 399.959 355.425C400.757 353.73 400.491 351.771 400.704 349.918C401.076 346.636 402.886 343.671 404.003 340.6C404.695 338.853 405.44 337.158 406.345 335.464C406.93 334.088 407.249 332.605 407.303 331.123C407.515 327.893 408.26 324.663 409.538 321.645C410.336 319.792 411.294 318.045 411.879 316.139C412.571 313.915 412.677 311.533 413.316 309.256C413.901 307.297 414.7 305.444 415.604 303.644C416.402 302.055 417.147 300.414 418.425 299.196C420.5 297.184 423.586 296.496 426.513 296.443C429.44 296.39 432.58 296.814 435.507 296.496Z" fill="#3F3D56"/>
<path d="M417.626 255.304C421.351 253.081 425.076 250.804 428.748 248.474C427.897 247.31 427.365 245.88 427.365 244.398C427.365 244.345 427.365 244.292 427.365 244.239C427.312 242.809 427.844 241.591 426.034 241.75C424.278 241.962 422.575 242.333 420.926 242.809C420.447 242.915 416.296 244.451 416.136 244.292C417.041 245.404 417.733 246.674 418.158 248.051C418.371 248.739 418.531 249.375 418.637 250.063C419.01 251.916 419.01 254.034 417.626 255.304Z" fill="#A0616A"/>
<path d="M412.624 279.713C413.103 283.472 413.901 287.231 413.901 290.99C413.901 294.749 413.156 298.614 414.699 302.003C414.966 302.585 415.444 303.009 415.498 303.644C417.626 304.015 419.702 303.009 421.724 302.32C423.586 301.685 425.502 301.261 427.471 301.05C429.068 300.891 430.717 300.891 432.314 300.573C433.91 300.308 435.347 299.567 436.465 298.455C437.422 297.396 437.422 295.808 438.114 294.59C438.487 293.955 438.966 293.426 439.338 292.79C440.03 291.467 440.19 289.878 439.817 288.449C439.445 287.019 439.019 285.59 438.487 284.16C437.263 280.242 437.21 276.112 438.221 272.141C438.646 270.447 439.338 268.806 439.445 267.059C439.498 265.894 439.338 264.729 439.125 263.617C438.274 259.223 436.571 254.775 433.165 251.863C431.356 250.328 428.855 248.898 428.695 246.569C427.897 246.251 427.045 246.78 426.407 247.257L418.797 252.816C418.371 253.081 417.999 253.452 417.733 253.928C417.254 255.04 418.371 256.311 418.158 257.528C418.052 258.428 417.254 259.064 416.828 259.805C415.711 261.605 416.083 264.411 414.274 265.523C414.114 265.841 413.954 266.211 413.795 266.582C413.156 268.435 412.73 270.341 412.464 272.3C412.145 274.736 412.198 277.224 412.624 279.713Z" fill="#3F3D56"/>
<path opacity="0.1" d="M416.136 244.345C417.041 245.456 417.733 246.727 418.158 248.104C418.744 248.263 419.382 248.316 420.021 248.316C423.108 248.316 425.183 244.768 426.726 242.333C426.673 240.903 427.844 241.644 426.034 241.803C424.278 242.015 422.575 242.386 420.926 242.862C420.447 242.968 416.296 244.503 416.136 244.345Z" fill="black"/>
<path d="M420.021 247.574C424.841 247.574 428.748 243.687 428.748 238.891C428.748 234.096 424.841 230.208 420.021 230.208C415.201 230.208 411.294 234.096 411.294 238.891C411.294 243.687 415.201 247.574 420.021 247.574Z" fill="#A0616A"/>
<path d="M415.338 247.204L413.316 245.033C412.677 244.292 412.73 243.18 413.422 242.544L420.181 236.403C420.926 235.767 422.043 235.82 422.682 236.509L424.704 238.679C425.343 239.421 425.289 240.533 424.597 241.168L417.839 247.31C417.147 247.998 416.03 247.945 415.338 247.204Z" fill="#3F3D56"/>
<path opacity="0.1" d="M415.338 247.204L413.316 245.033C412.677 244.292 412.73 243.18 413.422 242.544L420.181 236.403C420.926 235.767 422.043 235.82 422.682 236.509L424.704 238.679C425.343 239.421 425.289 240.533 424.597 241.168L417.839 247.31C417.147 247.998 416.03 247.945 415.338 247.204Z" fill="black"/>
<path d="M420.553 241.221C420.965 241.221 421.298 240.889 421.298 240.48C421.298 240.07 420.965 239.738 420.553 239.738C420.142 239.738 419.808 240.07 419.808 240.48C419.808 240.889 420.142 241.221 420.553 241.221Z" fill="white"/>
<path opacity="0.1" d="M412.624 279.713C419.329 278.707 425.449 274.736 430.079 269.759C430.93 268.965 431.622 267.959 432.048 266.847C432.261 265.894 432.367 264.941 432.314 263.988L432.207 260.176C432.154 258.481 432.101 256.787 431.249 255.305C430.398 253.822 428.642 252.763 427.045 253.399C422.948 254.987 420.234 258.64 417.892 262.346C417.201 263.511 416.509 264.623 415.711 265.682C415.285 266.211 414.753 266.688 414.114 266.635C413.954 266.635 413.848 266.582 413.688 266.529C413.05 268.382 412.624 270.288 412.358 272.247C412.145 274.683 412.198 277.224 412.624 279.713Z" fill="black"/>
<path d="M411.985 257.369C412.305 255.94 412.943 254.563 413.795 253.398C416.402 249.322 419.329 245.404 420.713 240.797C418.691 241.168 418.371 244.662 416.296 244.768L416.456 242.28C416.456 241.856 416.456 241.327 416.083 241.115C415.711 240.903 415.125 241.168 414.912 241.592C414.699 242.015 414.646 242.545 414.433 242.968C414.221 243.392 413.742 243.762 413.263 243.603L413.103 242.756C412.411 242.598 411.719 243.074 411.613 243.762C411.613 243.868 411.56 243.974 411.613 244.08C411.453 243.656 411.4 243.286 411.4 242.862C410.495 242.703 409.804 243.709 409.484 244.557C408.793 246.516 408.314 248.475 407.941 250.539L407.09 254.563C406.824 255.94 406.504 257.369 406.291 258.746C405.813 262.452 405.972 266.264 406.877 269.918C407.994 269.282 409.059 268.647 410.123 267.906C410.921 267.217 411.826 266.476 412.145 265.417C412.89 262.717 411.56 260.017 411.985 257.369Z" fill="#A0616A"/>
<path d="M427.045 252.234C428.589 251.598 430.398 252.657 431.249 254.14C432.101 255.622 432.154 257.316 432.207 259.011L432.314 262.823C432.42 263.776 432.314 264.729 432.101 265.682C431.675 266.794 430.983 267.8 430.132 268.594C424.97 274.1 418.052 278.389 410.495 278.759C410.229 278.812 409.963 278.759 409.697 278.653C409.484 278.495 409.325 278.336 409.165 278.124C407.462 276.059 405.706 273.624 405.972 270.976C406.025 270.553 406.504 270.182 406.664 269.759C407.675 267.376 409.538 265.417 411.879 264.252L412.358 264.04C412.731 264.729 413.369 265.258 414.167 265.417C414.806 265.47 415.338 264.993 415.764 264.464C416.562 263.405 417.307 262.24 417.946 261.075C420.287 257.475 422.948 253.875 427.045 252.234Z" fill="#3F3D56"/>
<path d="M426.513 244.556C425.768 244.186 425.662 243.18 425.555 242.386C425.449 241.433 425.343 240.48 425.13 239.527C424.917 238.468 424.544 237.356 423.64 236.826C422.629 236.191 421.245 236.509 420.606 237.515C420.447 237.779 420.34 238.097 420.287 238.415C420.287 238.574 420.234 238.785 420.127 238.891C420.074 238.944 419.968 238.997 419.861 239.05C419.01 239.262 418.105 238.732 417.839 237.938C417.68 237.409 417.786 236.72 417.413 236.297C417.041 235.873 416.615 235.873 416.243 235.609C415.817 235.185 415.551 234.55 415.657 233.914C415.657 233.12 415.764 232.167 415.125 231.691C414.167 230.949 412.731 232.114 411.56 231.691C410.921 231.373 410.549 230.685 410.602 229.996C410.655 229.308 410.921 228.62 411.294 228.037C411.985 226.926 412.784 225.867 413.688 224.914C413.688 225.125 414.061 225.125 414.274 224.967L415.977 223.961C415.923 224.119 415.977 224.331 416.136 224.437C416.509 224.066 416.988 223.802 417.52 223.696C418.052 223.59 418.584 223.961 418.691 224.49L420.819 223.59C420.979 223.484 421.245 223.484 421.405 223.643C422.15 224.172 423.161 224.331 424.065 224.543C424.97 224.755 425.928 225.125 426.46 225.92C426.62 226.343 426.833 226.714 427.152 227.084C427.365 227.296 427.684 227.455 427.95 227.561C429.174 228.037 430.292 228.673 431.303 229.414C432.314 230.208 433.112 231.267 433.485 232.538C434.07 234.603 433.218 236.773 432.261 238.679C431.516 240.109 430.717 241.539 429.813 242.915C429.493 243.445 429.014 244.451 428.482 244.768C427.737 244.874 427.099 244.821 426.513 244.556Z" fill="#3F3D56"/>
<path opacity="0.1" d="M411.56 229.467C412.677 229.891 414.114 228.726 415.125 229.467C415.764 229.944 415.657 230.897 415.657 231.691C415.604 232.326 415.817 232.962 416.243 233.385C416.615 233.65 417.147 233.756 417.413 234.073C417.68 234.391 417.68 235.185 417.839 235.715C418.105 236.562 419.01 237.038 419.861 236.827C419.968 236.827 420.021 236.774 420.127 236.668C420.234 236.509 420.287 236.35 420.287 236.191C420.394 234.973 421.511 234.126 422.735 234.232C423.054 234.285 423.374 234.391 423.64 234.55C424.544 235.132 424.917 236.244 425.13 237.25C425.343 238.203 425.502 239.156 425.555 240.109C425.609 240.956 425.768 241.909 426.513 242.28C427.099 242.545 427.737 242.598 428.323 242.439C428.855 242.121 429.334 241.115 429.653 240.586C430.558 239.209 431.409 237.833 432.101 236.35C432.686 235.238 433.165 234.02 433.431 232.75C433.804 234.709 433.006 236.721 432.101 238.521C431.356 239.95 430.558 241.38 429.653 242.757C429.334 243.286 428.855 244.292 428.323 244.61C427.737 244.768 427.045 244.716 426.513 244.451C425.768 244.08 425.662 243.074 425.555 242.28C425.449 241.327 425.343 240.374 425.13 239.421C424.917 238.362 424.544 237.25 423.64 236.721C422.629 236.085 421.245 236.403 420.606 237.409C420.447 237.674 420.34 237.991 420.287 238.309C420.287 238.468 420.234 238.68 420.127 238.786C420.074 238.839 419.968 238.891 419.861 238.944C419.01 239.156 418.105 238.627 417.839 237.833C417.68 237.303 417.786 236.615 417.413 236.191C417.041 235.768 416.615 235.768 416.243 235.503C415.817 235.079 415.551 234.444 415.657 233.809C415.657 233.014 415.764 232.061 415.125 231.585C414.167 230.844 412.73 232.009 411.56 231.585C410.921 231.267 410.549 230.579 410.602 229.891C410.602 229.52 410.708 229.149 410.868 228.779C411.028 229.096 411.294 229.361 411.56 229.467Z" fill="black"/>
<path d="M202.104 233.12H181.137C180.339 233.12 179.753 232.485 179.753 231.744V210.883C179.753 210.089 180.392 209.506 181.137 209.506H202.104C202.902 209.506 203.488 210.142 203.488 210.883V231.744C203.541 232.432 202.902 233.12 202.104 233.12Z" fill="#E5E5E5"/>
<path d="M202.051 271.718H181.084C180.286 271.718 179.7 271.082 179.7 270.341V249.481C179.7 248.686 180.339 248.104 181.084 248.104H202.051C202.849 248.104 203.434 248.739 203.434 249.481V270.341C203.488 271.135 202.849 271.718 202.051 271.718Z" fill="#E5E5E5"/>
<path d="M202.264 358.125H181.297C180.498 358.125 179.913 357.49 179.913 356.748V335.888C179.913 335.094 180.552 334.511 181.297 334.511H202.264C203.062 334.511 203.647 335.147 203.647 335.888V356.748C203.7 357.437 203.062 358.125 202.264 358.125Z" fill="white"/>
<path d="M197.368 314.074C198.925 314.074 200.188 312.818 200.188 311.268C200.188 309.718 198.925 308.462 197.368 308.462C195.81 308.462 194.547 309.718 194.547 311.268C194.547 312.818 195.81 314.074 197.368 314.074Z" fill="#E5E5E5"/>
<path d="M207.585 314.074C209.143 314.074 210.406 312.818 210.406 311.268C210.406 309.718 209.143 308.462 207.585 308.462C206.027 308.462 204.765 309.718 204.765 311.268C204.765 312.818 206.027 314.074 207.585 314.074Z" fill="#E5E5E5"/>
<path d="M217.802 314.074C219.36 314.074 220.623 312.818 220.623 311.268C220.623 309.718 219.36 308.462 217.802 308.462C216.245 308.462 214.982 309.718 214.982 311.268C214.982 312.818 216.245 314.074 217.802 314.074Z" fill="#E5E5E5"/>
<path d="M168.472 293.267C170.707 291.043 170.707 287.39 168.472 285.166C168.259 284.954 167.993 284.742 167.674 284.531L173.208 264.994L163.097 268.17L159.425 286.225C157.775 288.925 158.68 292.472 161.394 294.114C163.629 295.49 166.609 295.12 168.472 293.267Z" fill="#FFB7B7"/>
<path d="M171.345 281.301C171.186 281.354 170.973 281.354 170.813 281.354L161.128 281.195C159.744 281.142 158.574 280.03 158.627 278.547C158.627 278.442 158.627 278.336 158.68 278.23L168.472 212.153C169.11 208.235 172.463 205.271 176.507 205.271C180.977 205.271 184.596 208.924 184.596 213.371C184.596 214.007 184.49 214.642 184.383 215.277L177.359 243.338L173.421 279.077C173.261 280.189 172.41 281.089 171.345 281.301Z" fill="#3F3D56"/>
<path d="M175.39 385.604H180.818L183.319 364.902H175.39V385.604Z" fill="#FFB7B7"/>
<path d="M174.006 383.857H184.596C188.321 383.857 191.354 386.875 191.354 390.581V390.793H174.006V383.857Z" fill="#2F2E41"/>
<path d="M198.379 383.857L203.754 384.439L208.596 364.161L200.667 363.261L198.379 383.857Z" fill="#FFB7B7"/>
<path d="M197.208 381.951L207.745 383.115C211.417 383.486 214.131 386.875 213.705 390.528L213.652 390.74L196.357 388.834L197.208 381.951Z" fill="#2F2E41"/>
<path d="M170.334 270.447C170.334 270.447 162.937 286.701 169.43 297.29L173.314 379.621H182.255L190.929 313.121L206.308 332.817L196.942 378.774L207.851 379.409L223.018 332.87C223.018 332.87 211.363 281.565 207.532 280.295L204.978 268.594L170.334 270.447Z" fill="#2F2E41"/>
<path d="M167.035 284.742C167.035 284.742 160.383 292.367 177.997 294.961C195.612 297.555 214.077 293.637 214.503 288.396C214.929 283.154 167.035 284.742 167.035 284.742Z" fill="#CBCBCB"/>
<path d="M255.213 190.446C255.106 193.252 252.765 195.423 249.945 195.37C249.625 195.37 249.306 195.317 249.04 195.264L242.388 204.794L235.576 202.147L245.155 188.805C245.953 186.105 248.774 184.516 251.488 185.31C253.776 185.946 255.319 188.064 255.213 190.446Z" fill="#FFB7B7"/>
<path d="M199.017 202.677L189.598 198.441L177.572 199.341C177.572 199.341 163.044 216.231 168.791 232.432L165.279 288.872C187.683 295.014 197.9 283.472 214.077 288.449L209.075 225.708L199.017 202.677Z" fill="#3F3D56"/>
<path d="M192.685 206.806L198.964 202.676C198.964 202.676 207.692 201.353 211.204 204.741C211.204 204.741 223.018 205.747 225.891 208.659L229.084 209.347L239.568 195.846L246.007 199.288L236.747 224.225L209.075 225.602L192.685 206.806Z" fill="#3F3D56"/>
<path d="M187.736 195.529C195.936 195.529 202.583 188.915 202.583 180.757C202.583 172.598 195.936 165.985 187.736 165.985C179.536 165.985 172.889 172.598 172.889 180.757C172.889 188.915 179.536 195.529 187.736 195.529Z" fill="#FFB7B7"/>
<path d="M174.911 169.214C177.572 164.502 180.871 161.431 186.299 161.537C191.727 161.643 196.463 161.431 198.911 166.249C199.55 165.032 199.869 163.655 199.816 162.332C201.306 163.285 202.104 165.085 201.785 166.832C202.742 166.249 203.381 165.244 203.434 164.132C205.244 164.767 205.723 167.308 204.818 168.95C203.913 170.591 202.104 171.597 200.401 172.391C198.698 173.238 199.496 177.58 198.326 179.062C197.527 180.174 197.208 181.445 196.676 182.716C196.623 182.769 196.623 182.822 196.57 182.822C195.346 183.457 194.601 184.728 194.813 186.051C194.867 186.157 194.813 186.263 194.813 186.369C193.27 189.281 191.62 192.299 188.8 194.046C186.565 195.423 183.851 195.793 181.35 195.158C178.476 194.47 176.028 192.564 174.219 190.234C172.41 187.904 171.292 185.151 170.441 182.345C169.696 179.857 169.11 177.209 169.749 174.668C170.388 172.126 172.41 169.797 175.017 169.585" fill="#2F2E41"/>
</g>
<defs>
<linearGradient id="paint0_linear" x1="413.35" y1="404.469" x2="413.35" y2="221.154" gradientUnits="userSpaceOnUse">
<stop stop-color="#808080" stop-opacity="0.25"/>
<stop offset="0.54" stop-color="#808080" stop-opacity="0.12"/>
<stop offset="1" stop-color="#808080" stop-opacity="0.1"/>
</linearGradient>
<clipPath id="clip0">
<rect width="609.689" height="408" fill="white" transform="translate(0.311096)"/>
</clipPath>
</defs>
</svg>
