<svg width="202" height="14" viewBox="0 0 202 14" fill="none" xmlns="http://www.w3.org/2000/svg">
<path d="M101 12.5L100.606 13.4191L100.992 13.5846L101.381 13.4247L101 12.5ZM151 12.5L150.606 13.4191L150.992 13.5846L151.381 13.4247L151 12.5ZM51 12.5L50.6061 13.4191L50.9923 13.5846L51.3807 13.4247L51 12.5ZM26.5 2L26.8939 1.08085L26.5077 0.915353L26.1192 1.07532L26.5 2ZM126.5 2L126.894 1.08085L126.508 0.915353L126.119 1.07532L126.5 2ZM176.5 2L176.894 1.08085L176.508 0.915353L176.119 1.07532L176.5 2ZM76.5 2L76.8939 1.08085L76.5077 0.915353L76.1192 1.07532L76.5 2ZM1.85297 13.2302C2.36366 13.02 2.60718 12.4355 2.3969 11.9248C2.18662 11.4141 1.60216 11.1706 1.09147 11.3809L1.85297 13.2302ZM8.64703 8.26977C8.13634 8.48005 7.89282 9.06451 8.1031 9.57519C8.31338 10.0859 8.89784 10.3294 9.40853 10.1191L8.64703 8.26977ZM10.353 9.73023C10.8637 9.51995 11.1072 8.93549 10.8969 8.42481C10.6866 7.91412 10.1022 7.6706 9.59147 7.88088L10.353 9.73023ZM17.147 4.76977C16.6363 4.98005 16.3928 5.56451 16.6031 6.07519C16.8134 6.58588 17.3978 6.8294 17.9085 6.61912L17.147 4.76977ZM18.853 6.23023C19.3637 6.01995 19.6072 5.43549 19.3969 4.92481C19.1866 4.41412 18.6022 4.1706 18.0915 4.38088L18.853 6.23023ZM25.647 1.26977C25.1363 1.48005 24.8928 2.06451 25.1031 2.57519C25.3134 3.08588 25.8978 3.32941 26.4085 3.11912L25.647 1.26977ZM26.5598 3.11359C27.0674 3.33115 27.6553 3.09599 27.8728 2.58836C28.0904 2.08073 27.8553 1.49286 27.3476 1.2753L26.5598 3.11359ZM34.6069 4.38641C34.0993 4.16885 33.5114 4.40401 33.2938 4.91164C33.0763 5.41927 33.3114 6.00714 33.819 6.2247L34.6069 4.38641ZM34.7265 6.61359C35.2341 6.83115 35.822 6.59599 36.0395 6.08836C36.2571 5.58073 36.0219 4.99286 35.5143 4.7753L34.7265 6.61359ZM42.7735 7.88641C42.2659 7.66886 41.678 7.90401 41.4605 8.41164C41.2429 8.91927 41.4781 9.50715 41.9857 9.7247L42.7735 7.88641ZM42.8931 10.1136C43.4007 10.3311 43.9886 10.096 44.2062 9.58836C44.4237 9.08073 44.1886 8.49286 43.681 8.2753L42.8931 10.1136ZM50.9402 11.3864C50.4326 11.1689 49.8447 11.404 49.6272 11.9116C49.4096 12.4193 49.6447 13.0071 50.1524 13.2247L50.9402 11.3864ZM51.853 13.2302C52.3637 13.02 52.6072 12.4355 52.3969 11.9248C52.1866 11.4141 51.6022 11.1706 51.0915 11.3809L51.853 13.2302ZM58.647 8.26977C58.1363 8.48005 57.8928 9.06451 58.1031 9.57519C58.3134 10.0859 58.8978 10.3294 59.4085 10.1191L58.647 8.26977ZM60.353 9.73023C60.8637 9.51995 61.1072 8.93549 60.8969 8.42481C60.6866 7.91412 60.1022 7.6706 59.5915 7.88088L60.353 9.73023ZM67.147 4.76977C66.6363 4.98005 66.3928 5.56451 66.6031 6.07519C66.8134 6.58588 67.3978 6.8294 67.9085 6.61912L67.147 4.76977ZM68.853 6.23023C69.3637 6.01995 69.6072 5.43549 69.3969 4.92481C69.1866 4.41412 68.6022 4.1706 68.0915 4.38088L68.853 6.23023ZM75.647 1.26977C75.1363 1.48005 74.8928 2.06451 75.1031 2.57519C75.3134 3.08588 75.8978 3.32941 76.4085 3.11912L75.647 1.26977ZM76.5598 3.11359C77.0674 3.33115 77.6553 3.09599 77.8728 2.58836C78.0904 2.08073 77.8553 1.49286 77.3476 1.2753L76.5598 3.11359ZM84.6069 4.38641C84.0993 4.16885 83.5114 4.40401 83.2938 4.91164C83.0763 5.41927 83.3114 6.00714 83.819 6.2247L84.6069 4.38641ZM84.7264 6.61359C85.2341 6.83115 85.822 6.59599 86.0395 6.08836C86.2571 5.58073 86.0219 4.99286 85.5143 4.7753L84.7264 6.61359ZM92.7736 7.88641C92.2659 7.66886 91.678 7.90401 91.4605 8.41164C91.2429 8.91927 91.4781 9.50715 91.9857 9.7247L92.7736 7.88641ZM92.8931 10.1136C93.4007 10.3311 93.9886 10.096 94.2062 9.58836C94.4237 9.08073 94.1886 8.49286 93.681 8.2753L92.8931 10.1136ZM100.94 11.3864C100.433 11.1689 99.8447 11.404 99.6272 11.9116C99.4096 12.4193 99.6447 13.0071 100.152 13.2247L100.94 11.3864ZM101.853 13.2302C102.364 13.02 102.607 12.4355 102.397 11.9248C102.187 11.4141 101.602 11.1706 101.091 11.3809L101.853 13.2302ZM108.647 8.26977C108.136 8.48005 107.893 9.06451 108.103 9.57519C108.313 10.0859 108.898 10.3294 109.409 10.1191L108.647 8.26977ZM110.353 9.73023C110.864 9.51995 111.107 8.93549 110.897 8.42481C110.687 7.91412 110.102 7.6706 109.591 7.88088L110.353 9.73023ZM117.147 4.76977C116.636 4.98005 116.393 5.56451 116.603 6.07519C116.813 6.58588 117.398 6.8294 117.909 6.61912L117.147 4.76977ZM118.853 6.23023C119.364 6.01995 119.607 5.43549 119.397 4.92481C119.187 4.41412 118.602 4.1706 118.091 4.38088L118.853 6.23023ZM125.647 1.26977C125.136 1.48005 124.893 2.06451 125.103 2.57519C125.313 3.08588 125.898 3.32941 126.409 3.11912L125.647 1.26977ZM126.56 3.11359C127.067 3.33115 127.655 3.09599 127.873 2.58836C128.09 2.08073 127.855 1.49286 127.348 1.2753L126.56 3.11359ZM134.607 4.38641C134.099 4.16885 133.511 4.40401 133.294 4.91164C133.076 5.41927 133.311 6.00714 133.819 6.2247L134.607 4.38641ZM134.726 6.61359C135.234 6.83115 135.822 6.59599 136.04 6.08836C136.257 5.58073 136.022 4.99286 135.514 4.7753L134.726 6.61359ZM142.774 7.88641C142.266 7.66886 141.678 7.90401 141.46 8.41164C141.243 8.91927 141.478 9.50715 141.986 9.7247L142.774 7.88641ZM142.893 10.1136C143.401 10.3311 143.989 10.096 144.206 9.58836C144.424 9.08073 144.189 8.49286 143.681 8.2753L142.893 10.1136ZM150.94 11.3864C150.433 11.1689 149.845 11.404 149.627 11.9116C149.41 12.4193 149.645 13.0071 150.152 13.2247L150.94 11.3864ZM151.853 13.2302C152.364 13.02 152.607 12.4355 152.397 11.9248C152.187 11.4141 151.602 11.1706 151.091 11.3809L151.853 13.2302ZM158.647 8.26977C158.136 8.48005 157.893 9.06451 158.103 9.57519C158.313 10.0859 158.898 10.3294 159.409 10.1191L158.647 8.26977ZM160.353 9.73023C160.864 9.51995 161.107 8.93549 160.897 8.42481C160.687 7.91412 160.102 7.6706 159.591 7.88088L160.353 9.73023ZM167.147 4.76977C166.636 4.98005 166.393 5.56451 166.603 6.07519C166.813 6.58588 167.398 6.8294 167.909 6.61912L167.147 4.76977ZM168.853 6.23023C169.364 6.01995 169.607 5.43549 169.397 4.92481C169.187 4.41412 168.602 4.1706 168.091 4.38088L168.853 6.23023ZM175.647 1.26977C175.136 1.48005 174.893 2.06451 175.103 2.57519C175.313 3.08588 175.898 3.32941 176.409 3.11912L175.647 1.26977ZM176.56 3.11359C177.067 3.33115 177.655 3.09599 177.873 2.58836C178.09 2.08073 177.855 1.49286 177.348 1.2753L176.56 3.11359ZM184.607 4.38641C184.099 4.16885 183.511 4.40401 183.294 4.91164C183.076 5.41927 183.311 6.00714 183.819 6.2247L184.607 4.38641ZM184.726 6.61359C185.234 6.83115 185.822 6.59599 186.04 6.08836C186.257 5.58073 186.022 4.99286 185.514 4.7753L184.726 6.61359ZM192.774 7.88641C192.266 7.66886 191.678 7.90401 191.46 8.41164C191.243 8.91927 191.478 9.50715 191.986 9.7247L192.774 7.88641ZM192.893 10.1136C193.401 10.3311 193.989 10.096 194.206 9.58836C194.424 9.08073 194.189 8.49286 193.681 8.2753L192.893 10.1136ZM200.94 11.3864C200.433 11.1689 199.845 11.404 199.627 11.9116C199.41 12.4193 199.645 13.0071 200.152 13.2247L200.94 11.3864ZM1.38075 13.4247L1.85297 13.2302L1.09147 11.3809L0.61925 11.5753L1.38075 13.4247ZM9.40853 10.1191L10.353 9.73023L9.59147 7.88088L8.64703 8.26977L9.40853 10.1191ZM17.9085 6.61912L18.853 6.23023L18.0915 4.38088L17.147 4.76977L17.9085 6.61912ZM26.4085 3.11912L26.8808 2.92468L26.1192 1.07532L25.647 1.26977L26.4085 3.11912ZM26.1061 2.91915L26.5598 3.11359L27.3476 1.2753L26.8939 1.08085L26.1061 2.91915ZM33.819 6.2247L34.7265 6.61359L35.5143 4.7753L34.6069 4.38641L33.819 6.2247ZM41.9857 9.7247L42.8931 10.1136L43.681 8.2753L42.7735 7.88641L41.9857 9.7247ZM50.1524 13.2247L50.6061 13.4191L51.3939 11.5809L50.9402 11.3864L50.1524 13.2247ZM51.3807 13.4247L51.853 13.2302L51.0915 11.3809L50.6193 11.5753L51.3807 13.4247ZM59.4085 10.1191L60.353 9.73023L59.5915 7.88088L58.647 8.26977L59.4085 10.1191ZM67.9085 6.61912L68.853 6.23023L68.0915 4.38088L67.147 4.76977L67.9085 6.61912ZM76.4085 3.11912L76.8808 2.92468L76.1192 1.07532L75.647 1.26977L76.4085 3.11912ZM76.1061 2.91915L76.5598 3.11359L77.3476 1.2753L76.8939 1.08085L76.1061 2.91915ZM83.819 6.2247L84.7264 6.61359L85.5143 4.7753L84.6069 4.38641L83.819 6.2247ZM91.9857 9.7247L92.8931 10.1136L93.681 8.2753L92.7736 7.88641L91.9857 9.7247ZM100.152 13.2247L100.606 13.4191L101.394 11.5809L100.94 11.3864L100.152 13.2247ZM101.381 13.4247L101.853 13.2302L101.091 11.3809L100.619 11.5753L101.381 13.4247ZM109.409 10.1191L110.353 9.73023L109.591 7.88088L108.647 8.26977L109.409 10.1191ZM117.909 6.61912L118.853 6.23023L118.091 4.38088L117.147 4.76977L117.909 6.61912ZM126.409 3.11912L126.881 2.92468L126.119 1.07532L125.647 1.26977L126.409 3.11912ZM126.106 2.91915L126.56 3.11359L127.348 1.2753L126.894 1.08085L126.106 2.91915ZM133.819 6.2247L134.726 6.61359L135.514 4.7753L134.607 4.38641L133.819 6.2247ZM141.986 9.7247L142.893 10.1136L143.681 8.2753L142.774 7.88641L141.986 9.7247ZM150.152 13.2247L150.606 13.4191L151.394 11.5809L150.94 11.3864L150.152 13.2247ZM151.381 13.4247L151.853 13.2302L151.091 11.3809L150.619 11.5753L151.381 13.4247ZM159.409 10.1191L160.353 9.73023L159.591 7.88088L158.647 8.26977L159.409 10.1191ZM167.909 6.61912L168.853 6.23023L168.091 4.38088L167.147 4.76977L167.909 6.61912ZM176.409 3.11912L176.881 2.92468L176.119 1.07532L175.647 1.26977L176.409 3.11912ZM176.106 2.91915L176.56 3.11359L177.348 1.2753L176.894 1.08085L176.106 2.91915ZM183.819 6.2247L184.726 6.61359L185.514 4.7753L184.607 4.38641L183.819 6.2247ZM191.986 9.7247L192.893 10.1136L193.681 8.2753L192.774 7.88641L191.986 9.7247ZM200.152 13.2247L200.606 13.4191L201.394 11.5809L200.94 11.3864L200.152 13.2247Z" fill="#3BADEE"/>
</svg>
