<svg width="708" height="638" viewBox="0 0 708 638" fill="none" xmlns="http://www.w3.org/2000/svg">
<path d="M60.3496 487.338L108.038 176.752C109.323 168.385 114.754 161.237 122.47 157.756L422.547 22.4146C434.36 17.0868 448.286 21.6685 454.627 32.9694L664.872 407.62C673.548 423.08 663.823 442.407 646.238 444.654L88.2277 515.931C71.7407 518.037 57.8272 503.766 60.3496 487.338Z" fill="#3BADEE"/>
<g filter="url(#filter0_d)">
<path d="M85.9481 298.997C91.5525 293.719 100.768 296.488 102.536 303.98L121.282 383.414C123.05 390.906 116.044 397.503 108.672 395.288L30.5074 371.805C23.1349 369.59 20.9248 360.225 26.5292 354.948L85.9481 298.997Z" fill="#7952B3"/>
</g>
<g filter="url(#filter1_d)">
<path d="M607.527 113.79C605.729 106.305 612.708 99.6801 620.089 101.865L669.446 116.478C676.827 118.664 679.075 128.02 673.492 133.32L636.158 168.758C630.575 174.058 621.348 171.326 619.55 163.841L607.527 113.79Z" fill="#0F69C9"/>
</g>
<g filter="url(#filter2_d)">
<rect x="180.855" y="113.681" width="402.725" height="307.016" rx="10" fill="white"/>
</g>
<g filter="url(#filter3_d)">
<path d="M112.492 437.163C115.325 429.378 123.933 425.364 131.718 428.198L216.29 458.98C224.075 461.813 228.088 470.421 225.255 478.205L197.893 553.381C195.06 561.165 186.452 565.179 178.668 562.346L94.0954 531.564C86.3107 528.73 82.2969 520.123 85.1303 512.338L112.492 437.163Z" fill="#E44D26"/>
</g>
<g filter="url(#filter4_d)">
<path d="M77.8542 44.4889C79.9983 36.4869 88.2234 31.7382 96.2254 33.8823L147.058 47.5028C155.06 49.6469 159.808 57.872 157.664 65.874L143.692 118.018C141.548 126.02 133.323 130.768 125.321 128.624L74.489 115.004C66.487 112.86 61.7382 104.635 63.8824 96.6325L77.8542 44.4889Z" fill="#A3A2B1"/>
</g>
<g clip-path="url(#clip0)">
<path d="M565.097 140.206H203.141V372.275H565.097V140.206Z" fill="#E6E6E6"/>
<path d="M365.805 171.365H235.139V305.785H365.805V171.365Z" fill="white"/>
<path d="M545.342 173.991H414.676V337.253H545.342V173.991Z" fill="white"/>
<path d="M543.593 389.167C556.52 389.167 567 387.669 567 385.82C567 383.971 556.52 382.472 543.593 382.472C530.666 382.472 520.187 383.971 520.187 385.82C520.187 387.669 530.666 389.167 543.593 389.167Z" fill="#E6E6E6"/>
<path d="M309.578 389.219C322.505 389.219 332.984 387.72 332.984 385.871C332.984 384.022 322.505 382.524 309.578 382.524C296.65 382.524 286.171 384.022 286.171 385.871C286.171 387.72 296.65 389.219 309.578 389.219Z" fill="#E6E6E6"/>
<path d="M162.707 385.099C192.368 385.099 216.414 383.946 216.414 382.524C216.414 381.101 192.368 379.949 162.707 379.949C133.045 379.949 109 381.101 109 382.524C109 383.946 133.045 385.099 162.707 385.099Z" fill="#E6E6E6"/>
<path d="M564.942 140H202.987V155.399H564.942V140Z" fill="#3BADEE"/>
<path d="M214.407 150.712C215.97 150.712 217.237 149.444 217.237 147.88C217.237 146.315 215.97 145.047 214.407 145.047C212.845 145.047 211.578 146.315 211.578 147.88C211.578 149.444 212.845 150.712 214.407 150.712Z" fill="#E6E6E6"/>
<path d="M225.211 150.712C226.773 150.712 228.04 149.444 228.04 147.88C228.04 146.315 226.773 145.047 225.211 145.047C223.648 145.047 222.381 146.315 222.381 147.88C222.381 149.444 223.648 150.712 225.211 150.712Z" fill="#E6E6E6"/>
<path d="M236.014 150.712C237.576 150.712 238.843 149.444 238.843 147.88C238.843 146.315 237.576 145.047 236.014 145.047C234.451 145.047 233.184 146.315 233.184 147.88C233.184 149.444 234.451 150.712 236.014 150.712Z" fill="#E6E6E6"/>
<path d="M516.534 217.768H515.762V196.034C515.762 189.082 510.155 183.468 503.21 183.468H457.271C450.326 183.468 444.719 189.082 444.719 196.034V315.107C444.719 322.06 450.326 327.674 457.271 327.674H503.21C510.155 327.674 515.762 322.06 515.762 315.107V233.219H516.534V217.768Z" fill="#3F3D56"/>
<path d="M503.159 186.764H497.14C498.066 189.03 496.986 191.657 494.722 192.584C494.208 192.79 493.642 192.893 493.025 192.893H466.686C464.216 192.893 462.21 190.884 462.21 188.412C462.21 187.846 462.313 187.279 462.519 186.712H456.911C451.716 186.712 447.549 190.936 447.549 196.086V315.004C447.549 320.206 451.767 324.378 456.911 324.378H503.056C508.252 324.378 512.419 320.155 512.419 315.004V196.137C512.573 190.987 508.355 186.764 503.159 186.764Z" fill="white"/>
<path d="M345.948 256.292H255.151V260.464H345.948V256.292Z" fill="#E6E6E6"/>
<path d="M345.948 269.682H255.151V273.854H345.948V269.682Z" fill="#3BADEE"/>
<path d="M345.948 283.073H255.151V287.245H345.948V283.073Z" fill="#E6E6E6"/>
<path d="M507.12 265.305H454.082V269.476H507.12V265.305Z" fill="#E6E6E6"/>
<path d="M507.12 278.18H454.082V282.352H507.12V278.18Z" fill="#E6E6E6"/>
<path d="M507.12 291.056H454.082V295.227H507.12V291.056Z" fill="#E6E6E6"/>
<path d="M512.676 346.627H503.828V355.485H512.676V346.627Z" fill="#3F3D56"/>
<path d="M498.426 346.627H489.578V355.485H498.426V346.627Z" fill="#3BADEE"/>
<path d="M484.228 346.627H475.379V355.485H484.228V346.627Z" fill="#3F3D56"/>
<path d="M469.978 346.627H461.13V355.485H469.978V346.627Z" fill="#3F3D56"/>
<path d="M455.728 346.627H446.88V355.485H455.728V346.627Z" fill="#3F3D56"/>
<path d="M494.825 211.588H465.348V241.099H494.825V211.588Z" fill="#3BADEE"/>
<path d="M288.846 281.94L288.486 282.712L287.354 276.996C287.354 276.996 285.811 270.867 288.897 270.867C291.984 270.867 291.161 276.996 291.161 276.996V281.219L288.846 281.94Z" fill="#A0616A"/>
<path d="M338.849 281.167L339.209 281.94L340.341 276.223C340.341 276.223 341.884 270.094 338.797 270.094C335.711 270.094 336.534 276.223 336.534 276.223V280.446L338.849 281.167Z" fill="#A0616A"/>
<path d="M305.616 324.841L301.038 353.116L303.353 380.567L308.652 378.3L307.931 357.7L313.23 341.27L314.413 360.738L312.098 380.979L318.992 381.751L323.93 340.137L323.519 326.026L305.616 324.841Z" fill="#2F2E41"/>
<path d="M305.616 377.167L302.941 381.391V390.764C302.941 391.33 303.353 391.794 303.919 391.897C305.205 392.103 307.52 392.257 308.291 390.918C309.423 389.013 308.652 384.79 308.652 384.79C308.652 384.79 310.195 381.751 309.423 379.433C308.652 377.116 307.88 376.755 307.88 376.755L305.616 377.167Z" fill="#2F2E41"/>
<path d="M317.037 380.979L317.808 382.112C317.808 382.112 318.94 383.245 318.169 384.017C317.603 384.635 317.088 385.253 316.625 385.923C316.625 385.923 312.407 387.056 312.407 385.562V380.618L317.037 380.979Z" fill="#2F2E41"/>
<path d="M315.699 293.785C318.484 293.785 320.741 291.526 320.741 288.738C320.741 285.951 318.484 283.691 315.699 283.691C312.915 283.691 310.658 285.951 310.658 288.738C310.658 291.526 312.915 293.785 315.699 293.785Z" fill="#A0616A"/>
<path d="M312.304 290.335L311.893 297.545L318.786 297.957L318.374 290.695L312.304 290.335Z" fill="#A0616A"/>
<path d="M319.712 298.163L318.632 295.537C318.632 295.537 313.59 293.579 312.098 295.537L311.327 297.803L305.205 296.258L301.758 303.88L304.793 325.614C304.793 325.614 312.819 335.914 323.467 325.974L326.502 305.373L324.239 297.339L319.712 298.163Z" fill="#575A89"/>
<path d="M323.519 298.884L324.29 297.391L331.955 292.807L336.585 279.004L340.186 280.549L336.122 296.979L325.062 307.279L323.519 298.884Z" fill="#575A89"/>
<path d="M306.028 296.979L305.256 296.258L297.231 291.262L291.521 279.828L286.943 281.373L291.881 295.485L304.125 305.373L306.028 296.979Z" fill="#575A89"/>
<path d="M319.455 281.013L320.278 280.601L319.043 280.189V279.777C319.043 279.777 312.87 277.305 311.995 281.425C309.783 284.36 309.783 288.429 311.995 291.365V292.601L318.632 293.425L319.455 290.953C319.455 290.901 323.57 283.485 319.455 281.013Z" fill="#2F2E41"/>
<path d="M168.211 325.305L166.719 326.026C166.719 326.026 160.855 328.704 162.552 330.197C164.25 331.691 168.931 328.704 168.931 328.704L169.909 327.468L168.211 325.305Z" fill="#FFB8B8"/>
<path d="M211.166 324.944L206.639 355.433L199.797 376.755L196.094 375.056L199.54 345.906L189.766 337.562L190.486 325.305L211.166 324.944Z" fill="#2F2E41"/>
<path d="M195.631 375.777C195.631 375.777 199.798 373.562 200.055 376.755L199.54 379.948C199.54 379.948 201.032 385.562 196.094 384.378C191.155 383.193 194.602 379.485 194.602 379.485L195.631 375.777Z" fill="#2F2E41"/>
<path d="M192.955 334.884L189.766 337.562C189.766 337.562 189.766 354.249 191.978 356.67C194.19 359.09 208.131 371.605 208.646 372.12C209.16 372.635 211.321 367.227 211.321 367.227L198.1 351.777L199.077 342.197L192.955 334.884Z" fill="#2F2E41"/>
<path d="M209.829 366.506C209.829 366.506 213.739 365.785 213.739 368.464C213.79 370.575 213.944 372.738 214.253 374.85C214.253 374.85 215.23 383.451 212.041 382.215C208.852 380.979 207.617 372.429 207.617 372.429C207.926 371.708 208.44 371.09 209.109 370.73C210.086 370.163 209.829 366.506 209.829 366.506Z" fill="#2F2E41"/>
<path d="M197.585 288.532L198.306 297.597L196.351 301.047L190.949 295.897L190.486 289.047L197.585 288.532Z" fill="#FFB8B8"/>
<path d="M193.161 291.468C196.4 291.468 199.026 288.839 199.026 285.597C199.026 282.354 196.4 279.725 193.161 279.725C189.922 279.725 187.297 282.354 187.297 285.597C187.297 288.839 189.922 291.468 193.161 291.468Z" fill="#FFB8B8"/>
<path d="M195.631 297.391L198.048 290.283L202.473 295.176L210.549 326.283L204.427 329.991L201.752 326.026L201.238 331.176L189.252 328.755L188.274 295.897L190.743 292.446L195.631 297.391Z" fill="#D0CDE1"/>
<path d="M192.184 332.154L190.743 292.446L187.554 294.918L181.689 298.833L185.599 312.79L186.834 327.519L192.184 332.154Z" fill="#2F2E41"/>
<path d="M183.387 299.09L181.689 298.833L176.751 313.305L166.977 325.562L170.629 329.476L181.895 318.455L186.062 309.391L183.387 299.09Z" fill="#2F2E41"/>
<path d="M210.138 325.511L209.829 327.107C209.829 327.107 208.286 333.391 210.498 332.979C212.71 332.567 213.276 327.056 213.276 327.056L212.916 325.511H210.138Z" fill="#FFB8B8"/>
<path d="M197.688 289.871L209.829 294.661L208.337 309.391L211.269 325.562L208.337 328.755L197.483 291.931L197.688 289.871Z" fill="#2F2E41"/>
<path d="M193.47 275.708L195.219 274.833V275.708L196.351 275.142V276.584C196.351 276.584 200.672 279.725 199.798 283.485C198.923 287.245 198.923 287.502 198.923 287.502C198.923 287.502 197.843 280.395 193.521 281.528C189.2 282.661 188.84 282.867 187.708 286.06L187.4 287.399C187.4 287.451 182.564 276.275 193.47 275.708Z" fill="#2F2E41"/>
<path d="M208.131 294.661H210.086L213.276 311.811V326.798L209.314 326.026L206.176 303.519L208.131 294.661Z" fill="#2F2E41"/>
<path d="M182.976 330.97H110.801V381.185H182.976V330.97Z" fill="#3BADEE"/>
<path d="M146.914 340.755C138.477 340.755 131.635 347.605 131.635 356.052C131.635 364.498 138.477 371.348 146.914 371.348C155.35 371.348 162.192 364.498 162.192 356.052C162.192 347.605 155.35 340.755 146.914 340.755ZM146.914 345.339C149.434 345.339 151.492 347.399 151.492 349.923C151.492 352.446 149.434 354.506 146.914 354.506C144.393 354.506 142.335 352.446 142.335 349.923C142.335 347.399 144.393 345.339 146.914 345.339ZM146.914 367.485C143.21 367.485 139.815 365.631 137.757 362.592C137.808 359.554 143.879 357.854 146.914 357.854C149.949 357.854 156.019 359.554 156.071 362.592C154.013 365.631 150.566 367.434 146.914 367.485Z" fill="white"/>
<path d="M345.742 186.815H255.202V238.833H345.742V186.815Z" fill="#E6E6E6"/>
<path d="M524.765 289.974L525.177 287.245C525.177 287.245 527.646 281.682 525.691 281.373C523.736 281.064 522.141 286.369 522.141 286.369L522.862 292.034L524.765 289.974Z" fill="#FFB8B8"/>
<path d="M544.571 305.373L527.286 301.871L525.279 289.253L520.187 288.893L520.444 305.167L535.465 313.047L544.571 305.373Z" fill="#575A89"/>
<path opacity="0.2" d="M544.571 305.373L527.286 301.871L525.279 289.253L520.187 288.893L520.444 305.167L535.465 313.047L544.571 305.373Z" fill="black"/>
<path d="M550.59 282.506H497.552V286.678H550.59V282.506Z" fill="#3BADEE"/>
<path d="M521.37 289.047V286.318C521.37 286.318 522.964 280.446 521.01 280.446C519.055 280.446 518.283 285.906 518.283 285.906L519.826 291.365L521.37 289.047Z" fill="#FFB8B8"/>
<path d="M543.902 296.927L546.268 296.361C549.664 296.361 552.39 293.631 552.39 290.283C552.39 289.871 552.339 289.459 552.287 289.047C552.287 284.618 548.738 281.064 544.313 281.064C539.889 281.064 536.34 284.618 536.34 289.047C535.362 292.395 537.317 295.949 540.661 296.876C541.69 297.133 542.822 297.185 543.902 296.927Z" fill="#2F2E41"/>
<path d="M529.961 336.481L531.864 357.597L535.362 378.352H541.227L540.455 358.009L537.369 333.339L529.961 336.481Z" fill="#2F2E41"/>
<path d="M536.134 377.219L532.224 379.588C532.224 379.588 525.948 380.36 527.131 382.318C528.315 384.275 541.999 383.142 541.999 382.318C541.999 381.494 541.638 377.219 540.815 377.219H536.134Z" fill="#2F2E41"/>
<path d="M547.246 334.627C547.246 334.627 547.143 337.665 544.416 342.352L544.776 356.824L558.821 374.85L553.728 379.176L536.546 359.554L532.276 336.069L537.78 330.609L547.246 334.627Z" fill="#2F2E41"/>
<path d="M557.637 374.85C557.637 374.85 562.319 375.622 561.547 377.579C560.775 379.537 558.821 388.549 553.728 387.365C553.728 387.365 551.361 387.365 552.184 385.82C552.647 384.893 553.162 383.966 553.728 383.09V377.991L557.637 374.85Z" fill="#2F2E41"/>
<path d="M541.33 297.288C544.569 297.288 547.194 294.659 547.194 291.416C547.194 288.174 544.569 285.545 541.33 285.545C538.091 285.545 535.465 288.174 535.465 291.416C535.465 294.659 538.091 297.288 541.33 297.288Z" fill="#FFB8B8"/>
<path d="M544.056 295.382V302.026H537.78L538.603 295.33L544.056 295.382Z" fill="#FFB8B8"/>
<path d="M536.237 299.657L538.14 299.193L544.056 299.657C544.056 299.657 547.194 302.798 546.783 303.571C546.371 304.343 544.416 323.554 544.416 323.554L547.914 337.253L535.414 338.026L529.138 337.253L530.321 312.584C530.321 312.584 527.594 305.94 531.093 303.983C533.15 302.901 534.899 301.459 536.237 299.657Z" fill="#575A89"/>
<path d="M543.285 301.253L525.691 300.429L521.781 288.275L516.688 288.687L519.415 304.704L535.465 310.215L543.285 301.253Z" fill="#575A89"/>
<path d="M552.647 287.142C554.75 287.142 556.454 285.435 556.454 283.33C556.454 281.226 554.75 279.519 552.647 279.519C550.545 279.519 548.841 281.226 548.841 283.33C548.841 285.435 550.545 287.142 552.647 287.142Z" fill="#2F2E41"/>
<path d="M549.149 281.27C549.149 279.159 550.847 277.459 552.956 277.511C553.213 277.511 553.47 277.511 553.676 277.562C551.773 276.687 549.509 277.459 548.635 279.365C547.76 281.27 548.532 283.537 550.435 284.412C550.692 284.567 551.001 284.618 551.31 284.721C550.024 284.103 549.149 282.764 549.149 281.27Z" fill="#2F2E41"/>
<path d="M545.908 283.434L540.815 282.506L536.906 284.979C534.951 286.215 533.87 288.481 534.179 290.798L538.089 289.82L538.963 287.605L539.992 289.305L544.262 296.773L548.583 294.403L551.31 290.077L545.908 283.434Z" fill="#2F2E41"/>
<path d="M255.427 186.36L254.915 187.254L345.443 239.262L345.955 238.369L255.427 186.36Z" fill="white"/>
<path d="M345.468 186.378L254.93 238.387L255.442 239.28L345.98 187.272L345.468 186.378Z" fill="white"/>
<path d="M465.963 211.173L465.236 211.901L494.555 241.253L495.282 240.525L465.963 211.173Z" fill="white"/>
<path d="M494.555 211.173L465.236 240.525L465.963 241.253L495.282 211.901L494.555 211.173Z" fill="white"/>
</g>
<defs>
<filter id="filter0_d" x="0.915955" y="282.077" width="163.438" height="156.093" filterUnits="userSpaceOnUse" color-interpolation-filters="sRGB">
<feFlood flood-opacity="0" result="BackgroundImageFix"/>
<feColorMatrix in="SourceAlpha" type="matrix" values="0 0 0 0 0 0 0 0 0 0 0 0 0 0 0 0 0 0 127 0" result="hardAlpha"/>
<feOffset dy="20"/>
<feGaussianBlur stdDeviation="10"/>
<feColorMatrix type="matrix" values="0 0 0 0 0.0588235 0 0 0 0 0.411765 0 0 0 0 0.788235 0 0 0 0.2 0"/>
<feBlend mode="normal" in2="BackgroundImageFix" result="effect1_dropShadow"/>
<feBlend mode="normal" in="SourceGraphic" in2="effect1_dropShadow" result="shape"/>
</filter>
<filter id="filter1_d" x="564.435" y="79.5873" width="136.32" height="136.065" filterUnits="userSpaceOnUse" color-interpolation-filters="sRGB">
<feFlood flood-opacity="0" result="BackgroundImageFix"/>
<feColorMatrix in="SourceAlpha" type="matrix" values="0 0 0 0 0 0 0 0 0 0 0 0 0 0 0 0 0 0 127 0" result="hardAlpha"/>
<feOffset dy="20"/>
<feGaussianBlur stdDeviation="10"/>
<feColorMatrix type="matrix" values="0 0 0 0 0.0588235 0 0 0 0 0.411765 0 0 0 0 0.788235 0 0 0 0.2 0"/>
<feBlend mode="normal" in2="BackgroundImageFix" result="effect1_dropShadow"/>
<feBlend mode="normal" in="SourceGraphic" in2="effect1_dropShadow" result="shape"/>
</filter>
<filter id="filter2_d" x="130.855" y="83.6812" width="502.725" height="407.016" filterUnits="userSpaceOnUse" color-interpolation-filters="sRGB">
<feFlood flood-opacity="0" result="BackgroundImageFix"/>
<feColorMatrix in="SourceAlpha" type="matrix" values="0 0 0 0 0 0 0 0 0 0 0 0 0 0 0 0 0 0 127 0" result="hardAlpha"/>
<feOffset dy="20"/>
<feGaussianBlur stdDeviation="25"/>
<feColorMatrix type="matrix" values="0 0 0 0 0.231373 0 0 0 0 0.678431 0 0 0 0 0.933333 0 0 0 1 0"/>
<feBlend mode="normal" in2="BackgroundImageFix" result="effect1_dropShadow"/>
<feBlend mode="normal" in="SourceGraphic" in2="effect1_dropShadow" result="shape"/>
</filter>
<filter id="filter3_d" x="30" y="393.067" width="250.385" height="244.409" filterUnits="userSpaceOnUse" color-interpolation-filters="sRGB">
<feFlood flood-opacity="0" result="BackgroundImageFix"/>
<feColorMatrix in="SourceAlpha" type="matrix" values="0 0 0 0 0 0 0 0 0 0 0 0 0 0 0 0 0 0 127 0" result="hardAlpha"/>
<feOffset dy="20"/>
<feGaussianBlur stdDeviation="25"/>
<feColorMatrix type="matrix" values="0 0 0 0 0.113725 0 0 0 0 0.207843 0 0 0 0 0.278431 0 0 0 0.1 0"/>
<feBlend mode="normal" in2="BackgroundImageFix" result="effect1_dropShadow"/>
<feBlend mode="normal" in="SourceGraphic" in2="effect1_dropShadow" result="shape"/>
</filter>
<filter id="filter4_d" x="10.0001" y="0" width="201.547" height="202.506" filterUnits="userSpaceOnUse" color-interpolation-filters="sRGB">
<feFlood flood-opacity="0" result="BackgroundImageFix"/>
<feColorMatrix in="SourceAlpha" type="matrix" values="0 0 0 0 0 0 0 0 0 0 0 0 0 0 0 0 0 0 127 0" result="hardAlpha"/>
<feOffset dy="20"/>
<feGaussianBlur stdDeviation="25"/>
<feColorMatrix type="matrix" values="0 0 0 0 0.113725 0 0 0 0 0.207843 0 0 0 0 0.278431 0 0 0 0.1 0"/>
<feBlend mode="normal" in2="BackgroundImageFix" result="effect1_dropShadow"/>
<feBlend mode="normal" in="SourceGraphic" in2="effect1_dropShadow" result="shape"/>
</filter>
<clipPath id="clip0">
<rect width="458" height="252" fill="white" transform="translate(109 140)"/>
</clipPath>
</defs>
</svg>
