<svg width="560" height="341" viewBox="0 0 560 341" fill="none" xmlns="http://www.w3.org/2000/svg">
<path opacity="0.2" d="M464.577 340.823L474.449 339.443L559.286 242.043L250.786 232.547L138.955 325.889L464.577 340.823Z" fill="url(#paint0_linear)"/>
<path opacity="0.2" d="M301.073 215.015L77.4101 219.804L0.285156 284.737L231.66 296.182L301.073 215.015Z" fill="url(#paint1_linear)"/>
<path d="M250.403 56.2535L247.241 50.7341L32.756 60.7988L23.4238 276.621L254.799 288.147L250.403 56.2535Z" fill="#B3C1C6"/>
<path d="M247.241 50.7336L250.403 56.253L250.558 70.2137L247.164 67.0481L247.241 50.7336Z" fill="#223138"/>
<path d="M32.91 61.691L32.293 75.7329L247.163 66.8857L247.317 50.6523L32.91 61.691Z" fill="url(#paint2_linear)"/>
<path d="M247.24 50.7341L33.6041 60.7988H32.7557V61.6916L32.293 75.2465L34.2211 75.4088L34.6067 62.7468L247.24 50.7341Z" fill="#485F68"/>
<path d="M32.0618 76.3821L23.4238 276.62L246.778 286.441L247.163 67.8596L32.0618 76.3821Z" fill="#F6F9F9"/>
<path d="M43.9393 88.0701L36.8438 262.335L231.584 269.721L232.433 81.658L43.9393 88.0701Z" fill="white"/>
<path d="M168.803 223.375L71.7023 222.32L76.3298 114.855H70.854L70.4683 123.784L63.2957 123.946L63.0643 130.196L70.237 130.033L69.62 145.617H62.4473L62.0617 151.786H69.2343L68.6173 167.208H61.4447L61.2133 173.458L68.386 173.295L67.6918 188.717H60.6735L60.4421 194.886H67.4605L66.8435 210.307H59.6708L59.4395 216.314L66.6121 216.476L66.1493 228.245L76.5612 228.407L76.1756 236.605H81.6515L82.0371 228.57L95.7653 228.732L95.3797 236.93H100.856L101.241 228.894L115.201 229.057L114.815 237.255L120.291 237.417L120.754 229.219L134.713 229.381L134.328 237.579L139.881 237.742L140.266 229.544L154.457 229.706L154.072 237.985H159.779L160.165 229.706L168.417 229.868L168.803 223.375Z" fill="#8499A0"/>
<path opacity="0.2" d="M87.4355 215.664H100.161L102.089 174.675L89.1323 174.837L87.4355 215.664ZM111.344 215.827L124.301 215.989L126.846 162.825H113.735L111.344 215.827ZM164.792 123.215L160.164 216.232L173.507 216.395L178.212 122.972L164.792 123.215ZM135.484 216.07L148.75 216.232L152.375 140.747L139.109 140.991L135.484 216.07Z" fill="#485F68"/>
<path d="M96.9213 211.525L82.1133 211.281L83.6558 174.351H98.3095L96.9213 211.525Z" fill="#FFD05B"/>
<path d="M82.1133 211.2L83.6558 174.269H98.3095L87.5891 178.652L82.1133 211.2Z" fill="#F7E3A1"/>
<path d="M120.599 211.768L105.791 211.525L107.719 162.094H122.681L120.599 211.768Z" fill="#1ED3A3"/>
<path d="M105.791 211.525L107.719 162.094H122.681L111.267 166.721L105.791 211.525Z" fill="#62E8C2"/>
<path d="M144.584 212.012L129.545 211.85L132.321 143.507H147.438L144.584 212.012Z" fill="#4E67B0"/>
<path d="M129.545 211.85L132.321 143.507H147.438L136.486 147.971L129.545 211.85Z" fill="#5C7CCC"/>
<path d="M168.879 212.255L153.686 212.093L157.465 118.67L172.658 118.508L168.879 212.255Z" fill="#FF3849"/>
<path d="M153.686 212.093L157.465 118.67L172.658 118.508L161.475 122.972L153.686 212.093Z" fill="#FF6E80"/>
<path opacity="0.2" d="M247.008 62.9897L32.6007 72.7297L23.3457 276.62L246.623 286.442L247.008 62.9897Z" fill="url(#paint3_linear)"/>
<path d="M465.504 6.98465L460.953 0.410156L174.434 15.1825L162.094 317.772L460.413 332.706H460.722L470.594 331.327L465.504 6.98465Z" fill="#B3C1C6"/>
<path d="M174.433 15.1814L162.17 317.121L460.567 329.215L460.952 0.490234L174.433 15.1814Z" fill="#F6F9F9"/>
<path d="M189.627 49.5159L180.141 298.535L440.36 308.519L441.44 40.9934L189.627 49.5159Z" fill="white"/>
<path d="M419.072 269.802L432.415 284.331L446.066 269.478L441.053 263.877L436.194 269.153L436.58 246.832L429.253 246.995L429.021 269.234L424.394 264.202L419.072 269.802Z" fill="#8499A0"/>
<path d="M429.021 269.234L424.394 264.202L419.072 269.802" fill="#8499A0"/>
<path d="M430.409 246.995L429.021 269.234L428.096 246.995H430.409Z" fill="#D0DBDE"/>
<path d="M403.417 292.773L196.182 287.578L197.801 233.115L404.188 234.332L403.417 292.773Z" fill="#F4F8F9"/>
<path d="M404.188 234.333C404.265 239.203 404.342 244.073 404.342 248.943L404.419 263.553C404.419 268.423 404.496 273.293 404.496 278.163V292.773V293.909H403.417C386.141 293.665 368.865 293.422 351.589 293.016L325.675 292.448L299.761 291.717L273.847 290.906L247.933 290.013C230.657 289.282 213.381 288.552 196.182 287.578C213.458 287.497 230.734 287.578 248.01 287.74L273.924 288.065L299.838 288.552L325.752 289.12L351.666 289.851C368.942 290.338 386.218 290.906 403.494 291.555L402.414 292.691L402.799 278.081C402.954 273.211 403.108 268.341 403.262 263.471L403.725 248.861C403.802 244.073 404.034 239.203 404.188 234.333Z" fill="#B3C1C6"/>
<path d="M207.936 242.785L207.807 250.901L321.632 252.917L321.762 244.801L207.936 242.785Z" fill="#405BAB"/>
<path d="M208.679 258.236L208.57 264.729L360.939 267.556L361.048 261.064L208.679 258.236Z" fill="#E1ECEF"/>
<path d="M208.734 270.39L208.578 276.881L376.352 281.331L376.507 274.84L208.734 270.39Z" fill="#E1ECEF"/>
<path d="M419.074 196.752L432.417 211.281L446.068 196.427L441.055 190.827L436.196 196.103L436.582 173.782L429.255 173.944L429.023 196.184L424.396 191.152L419.074 196.752Z" fill="#8499A0"/>
<path d="M429.023 196.184L424.396 191.152L419.074 196.752" fill="#8499A0"/>
<path d="M430.411 173.944L429.023 196.184L428.098 173.944H430.411Z" fill="#D0DBDE"/>
<path d="M405.116 220.453L197.881 219.317L199.5 164.854L405.887 162.013L405.116 220.453Z" fill="#F4F8F9"/>
<path d="M405.886 162.013C405.963 166.883 406.04 171.753 406.04 176.623L406.117 191.233C406.117 196.103 406.195 200.973 406.195 205.843V220.453V221.589H405.115C387.839 221.752 370.563 221.752 353.287 221.752L327.373 221.67L301.459 221.508L275.545 221.183L249.631 220.778C232.355 220.453 215.079 219.966 197.803 219.398C215.079 218.992 232.355 218.748 249.631 218.586L275.545 218.424H301.459L327.373 218.505L353.287 218.667C370.563 218.83 387.839 219.073 405.115 219.398L404.035 220.534L404.421 205.924C404.575 201.054 404.729 196.184 404.883 191.314L405.346 176.704C405.5 171.753 405.655 166.883 405.886 162.013Z" fill="#B3C1C6"/>
<path d="M209.525 174.565L209.49 182.682L292.477 183.074L292.511 174.957L209.525 174.565Z" fill="#405BAB"/>
<path d="M210.283 189.989L210.27 196.482L378.094 196.875L378.107 190.381L210.283 189.989Z" fill="#E1ECEF"/>
<path d="M210.3 202.157L210.262 208.651L393.511 209.855L393.549 203.362L210.3 202.157Z" fill="#E1ECEF"/>
<path opacity="0.25" d="M405.962 149.757L199.498 152.679L201.118 98.2161L407.504 91.3169L405.962 149.757Z" fill="url(#paint4_linear)"/>
<path opacity="0.25" d="M446.068 115.261L432.725 100.732L419.074 115.667L424.087 121.267L428.946 115.91L428.561 138.231L435.887 138.069L436.119 115.829L440.746 120.862L446.068 115.261Z" fill="url(#paint5_linear)"/>
<path d="M442.211 113.638L428.868 99.1089L415.217 114.044L420.23 119.644L425.089 114.287L424.703 136.608L432.03 136.446L432.261 114.206L436.889 119.238L442.211 113.638Z" fill="#405BAB"/>
<path d="M425.089 114.287L425.861 136.689L423.547 136.608L425.089 114.287Z" fill="#5173D4"/>
<path d="M428.869 99.1089L416.066 114.855L414.369 113.151L428.869 99.1089Z" fill="#5173D4"/>
<path d="M398.251 141.64L191.787 144.562L193.407 90.0994L399.793 83.2002L398.251 141.64Z" fill="#F4F8F9"/>
<path d="M399.792 83.2002C399.792 88.0702 399.792 92.9402 399.715 97.8102L399.638 112.42C399.638 117.29 399.561 122.16 399.484 127.03L399.329 141.64V142.695H398.25C381.051 143.182 363.852 143.588 346.653 143.832L320.816 144.238L294.979 144.562L269.142 144.725L243.306 144.806C226.107 144.806 208.908 144.725 191.709 144.4C208.908 143.669 226.107 143.02 243.306 142.533L269.142 141.884L294.979 141.316L320.816 140.91L346.653 140.585C363.852 140.423 381.051 140.342 398.25 140.26L397.17 141.316L397.787 126.706C397.941 121.836 398.173 116.966 398.404 112.096L399.098 97.4855C399.252 92.859 399.561 88.0702 399.792 83.2002Z" fill="#B3C1C6"/>
<path d="M332.607 96.9554L203.371 99.8115L203.533 107.927L332.769 105.07L332.607 96.9554Z" fill="#405BAB"/>
<path d="M387.369 111.556L204.156 115.228L204.274 121.72L387.486 118.048L387.369 111.556Z" fill="#E1ECEF"/>
<path d="M356.519 124.538L204.15 127.397L204.26 133.889L356.629 131.03L356.519 124.538Z" fill="#E1ECEF"/>
<path d="M199.498 79.6289L200.424 58.4444L402.877 51.4641V73.3791L199.498 79.6289ZM201.889 59.9866L201.118 77.9244L401.334 71.7558V53.0874L201.889 59.9866Z" fill="#E1ECEF"/>
<path d="M397.479 67.6162L395.088 64.9377C396.168 63.5578 396.553 61.691 395.936 59.9865C395.396 58.282 393.931 56.9022 392.157 56.6587C388.841 56.0905 385.987 59.0125 386.527 62.5027C386.835 64.6942 388.532 66.4799 390.615 66.8045C391.849 66.9669 393.083 66.6422 394.085 65.9117L396.553 68.5902C396.785 68.8337 397.17 68.8337 397.479 68.5902C397.71 68.2655 397.71 67.8597 397.479 67.6162ZM391.386 57.8762C393.391 57.8762 395.011 59.5807 395.011 61.691C395.011 63.8013 393.391 65.5058 391.386 65.5058C389.381 65.5058 387.761 63.8013 387.761 61.691C387.761 59.5807 389.381 57.8762 391.386 57.8762Z" fill="#B3C1C6"/>
<path opacity="0.25" d="M460.952 2.35815L174.433 15.1825L162.864 297.642L162.016 317.772L460.489 330.921V308.925L460.952 2.35815Z" fill="url(#paint6_linear)"/>
<path d="M174.432 15.1825L173.584 33.8508L460.875 22.5687V0.410156L174.432 15.1825Z" fill="url(#paint7_linear)"/>
<path d="M460.951 0.410156L465.502 6.90349L465.81 25.9777L461.028 22.4875V0.410156H460.951Z" fill="#223138"/>
<path d="M173.662 33.8514L174.356 15.1831V14.2091H175.282L460.953 0.491943V1.06011L175.282 16.4006L176.361 15.4266L175.822 33.9326H173.662V33.8514Z" fill="#485F68"/>
<path opacity="0.15" d="M337.012 74.5153C327.834 64.126 314.722 58.4443 301.148 58.8502C287.574 59.256 274.617 65.6682 265.285 76.2198C255.49 87.0962 250.015 101.382 249.629 116.316C249.089 129.059 252.637 141.64 259.655 152.03L252.097 160.633L246.004 153.409L211.375 192.207L225.797 209.982L228.805 213.716L264.283 174.513L259.424 168.993L266.982 160.633C275.62 168.993 286.88 173.62 298.603 173.62C312.64 173.62 326.137 167.37 335.623 156.575C345.804 145.455 351.588 130.683 351.743 115.18C351.897 100.083 346.806 85.4728 337.012 74.5153ZM327.988 147.971C320.43 156.494 309.864 161.445 298.681 161.607C287.96 161.607 277.625 156.656 270.607 147.971C263.357 139.124 259.501 127.842 259.887 116.154C260.195 104.303 264.668 93.0213 272.381 84.3365C279.785 75.9763 289.965 70.8628 300.994 70.6193C311.715 70.2947 322.204 74.84 329.453 83.0378C337.166 91.7227 341.253 103.33 340.868 115.18C340.636 127.436 336.086 139.124 327.988 147.971Z" fill="url(#paint8_linear)"/>
<path d="M215.85 154.059L230.58 171.591L230.735 169.237L196.26 209.414L196.414 209.577L234.051 170.535L218.395 151.705L215.85 154.059Z" fill="#2C3F49"/>
<path d="M231.814 170.373L221.094 158.279L189.781 201.379L196.337 209.577L231.814 170.373Z" fill="#63777C"/>
<path d="M225.49 163.474L213.535 149.27L178.906 188.067L193.329 205.843L225.49 163.474Z" fill="#8499A0"/>
<g opacity="0.2">
<path opacity="0.2" d="M244.617 74.4342L304.003 142.452C302.23 144.156 304.543 140.829 306.471 137.095L249.168 71.6745C246.005 73.866 244.617 74.4342 244.617 74.4342ZM255.877 68.1032L310.019 129.709C311.639 125.082 312.641 120.293 313.027 115.423L268.217 64.613C263.976 65.1 259.888 66.2364 255.877 68.1032Z" fill="white"/>
</g>
<path d="M306.163 70.457C296.985 60.0677 283.874 54.386 270.3 54.7918C256.726 55.1977 243.769 61.6098 234.437 72.1615C224.642 83.0378 219.166 97.3232 218.78 112.258C218.24 125.001 221.788 137.582 228.806 147.971L221.171 156.575L228.344 165.097L236.133 156.494C244.771 164.854 256.032 169.48 267.755 169.48C281.791 169.48 295.288 163.231 304.775 152.435C314.955 141.316 320.739 126.543 320.894 111.04C321.048 96.0245 315.958 81.4145 306.163 70.457ZM297.139 143.913C289.581 152.435 279.015 157.386 267.832 157.549C257.111 157.549 246.777 152.598 239.758 143.913C232.508 135.066 228.652 123.783 229.038 112.095C229.346 100.245 233.82 88.963 241.532 80.2782C248.936 71.918 259.117 66.8045 270.145 66.561C280.866 66.2363 291.355 70.7817 298.605 78.9795C306.317 87.6643 310.405 99.2712 310.019 111.121C309.788 123.378 305.237 135.066 297.139 143.913Z" fill="#2C3F49"/>
<path d="M302.769 66.2363C293.591 55.8469 280.479 50.1653 267.06 50.5711C253.486 51.1393 240.529 57.3891 231.351 67.9408C221.71 78.8171 216.08 92.9401 215.694 107.875C215.155 120.618 217.931 133.036 224.795 143.507L217.16 152.922L224.332 161.282L232.893 151.867C241.531 160.227 252.792 164.854 264.515 164.854C278.551 164.854 291.894 158.604 301.535 147.809C311.715 136.689 317.345 121.917 317.654 106.414C317.577 91.5603 312.409 77.1126 302.769 66.2363ZM293.668 139.449C286.11 147.971 275.543 152.922 264.515 153.085C253.794 153.085 243.459 148.133 236.441 139.773C229.191 130.926 225.335 119.644 225.721 107.956C226.029 96.1056 230.502 84.8234 238.215 76.1386C245.465 67.7785 255.799 62.6649 266.674 62.4214C277.394 62.0968 287.729 66.6421 294.979 74.8399C302.691 83.5248 306.779 95.1316 306.393 106.982C306.162 118.913 301.689 130.601 293.668 139.449Z" fill="#485F68"/>
<path opacity="0.5" d="M264.438 164.935C252.715 164.935 241.455 160.309 232.971 151.948L224.41 161.364L220.939 157.143L229.192 148.052L229.732 147.484L236.75 139.692C243.923 148.052 254.103 153.004 264.824 153.004C275.852 152.841 286.419 147.971 293.977 139.368C302.075 130.52 306.625 118.832 306.78 106.657C307.165 94.8071 303.078 83.2003 295.365 74.5154L303.078 65.9929C312.718 76.9504 317.963 91.4792 317.5 106.495C317.191 121.998 311.561 136.77 301.381 147.89C291.74 158.685 278.398 164.935 264.438 164.935Z" fill="url(#paint9_linear)"/>
<path opacity="0.5" d="M239.526 143.02C232.661 134.01 229.191 122.89 229.885 111.202C230.425 100.083 234.435 89.3686 241.608 80.9273C248.626 72.5671 258.498 67.2913 269.142 66.4796C279.862 65.5868 290.428 69.8075 298.295 77.7618C291.045 68.7523 280.248 63.72 268.987 64.1258C263.357 64.4505 257.881 65.8303 252.791 68.4277C247.701 71.025 243.15 74.6775 239.448 79.1417C232.044 88.1512 227.725 99.5145 227.725 111.446C227.571 117.209 228.651 123.053 230.579 128.491C232.661 133.929 235.669 138.88 239.526 143.02Z" fill="#8499A0"/>
<path opacity="0.5" d="M301.303 64.4504C310.48 75.5703 315.339 90.0991 314.877 104.709C314.568 119.319 309.401 133.361 300.146 144.237C291.045 155.195 278.165 161.85 264.283 162.743C257.418 163.068 250.554 161.85 244.076 159.091C237.597 156.331 231.736 152.11 226.877 146.753C235.978 158.604 249.86 165.259 264.283 165.016C271.455 164.854 278.551 163.149 285.029 159.821C291.508 156.493 297.292 151.867 302.074 146.185C311.714 134.741 317.036 119.968 316.959 104.79C316.959 97.2418 315.571 89.7744 312.948 82.7941C310.403 75.8949 306.393 69.6451 301.303 64.4504Z" fill="#8499A0"/>
<path d="M266.366 49.8406C259.347 50.0029 252.329 51.8697 246.005 55.1976C239.68 58.5254 234.05 63.1519 229.346 68.6712C219.859 79.7911 214.615 94.3199 214.46 109.173C214.306 116.56 215.54 123.783 218.008 130.764C219.474 134.741 221.402 138.556 223.638 142.127L216.697 150.893L214.538 148.133L213.843 147.241L212.995 148.133C209.987 151.299 206.979 154.464 204.049 157.711C201.195 160.877 198.11 164.042 195.256 167.37C192.403 170.698 189.472 173.863 186.618 177.191C183.765 180.519 180.834 183.847 178.057 187.175L177.363 187.905L177.903 188.636L181.374 192.532C182.454 193.83 183.61 195.129 184.844 196.428C187.158 199.025 189.549 201.622 192.017 204.22C189.935 201.298 187.929 198.538 185.847 195.697C184.767 194.236 183.765 192.937 182.685 191.476L180.14 188.067C181.374 186.769 182.685 185.389 183.919 184.09L197.956 199.025L185.847 182.061C186.695 181.087 187.621 180.194 188.469 179.22C191.323 176.055 194.408 172.889 197.262 169.561C200.115 166.234 203.046 163.068 205.9 159.74C206.979 158.442 208.059 157.224 209.139 155.925L222.944 170.292L210.913 153.896C211.838 152.841 212.764 151.705 213.689 150.65L216.466 153.734C217.7 155.033 218.779 156.331 220.013 157.63C222.481 160.227 224.795 162.825 227.263 165.26C225.181 162.338 223.021 159.578 220.939 156.575C220.168 155.438 219.319 154.383 218.471 153.328L225.181 144.643L225.027 144.4C226.183 146.104 227.495 147.646 228.883 149.189C220.245 137.906 215.849 123.702 216.389 109.417C216.928 95.1316 222.019 81.4956 231.119 70.7816C240.066 59.9052 252.714 53.2496 266.211 52.2756C273.075 51.8697 279.785 52.8437 286.11 55.2787C292.588 57.7137 298.372 61.6097 303.308 66.7232C294.131 55.5222 280.479 49.2724 266.366 49.8406Z" fill="#E6EDEF"/>
<defs>
<linearGradient id="paint0_linear" x1="215.559" y1="313.301" x2="495.889" y2="266.332" gradientUnits="userSpaceOnUse">
<stop stop-color="#2C3F49" stop-opacity="0.25"/>
<stop offset="1" stop-color="#2C3F49" stop-opacity="0.5"/>
</linearGradient>
<linearGradient id="paint1_linear" x1="55.4911" y1="276.379" x2="257.143" y2="242.593" gradientUnits="userSpaceOnUse">
<stop stop-color="#2C3F49" stop-opacity="0.25"/>
<stop offset="1" stop-color="#2C3F49" stop-opacity="0.5"/>
</linearGradient>
<linearGradient id="paint2_linear" x1="-33.3885" y1="21.5922" x2="293.639" y2="92.6364" gradientUnits="userSpaceOnUse">
<stop stop-color="#485F68"/>
<stop offset="1" stop-color="#253338"/>
</linearGradient>
<linearGradient id="paint3_linear" x1="75.8006" y1="129.584" x2="305.799" y2="270.162" gradientUnits="userSpaceOnUse">
<stop stop-color="#253338" stop-opacity="0"/>
<stop offset="1" stop-color="#253338"/>
</linearGradient>
<linearGradient id="paint4_linear" x1="256.502" y1="93.4096" x2="420.672" y2="183.473" gradientUnits="userSpaceOnUse">
<stop stop-color="#253338" stop-opacity="0.25"/>
<stop offset="1" stop-color="#253338" stop-opacity="0.5"/>
</linearGradient>
<linearGradient id="paint5_linear" x1="425.757" y1="114.328" x2="441.655" y2="129.434" gradientUnits="userSpaceOnUse">
<stop stop-color="#253338" stop-opacity="0.25"/>
<stop offset="1" stop-color="#253338" stop-opacity="0.5"/>
</linearGradient>
<linearGradient id="paint6_linear" x1="227.052" y1="108.718" x2="550.558" y2="286.193" gradientUnits="userSpaceOnUse">
<stop stop-color="#253338" stop-opacity="0"/>
<stop offset="1" stop-color="#253338" stop-opacity="0.25"/>
</linearGradient>
<linearGradient id="paint7_linear" x1="85.7237" y1="-38.5619" x2="523.24" y2="56.4874" gradientUnits="userSpaceOnUse">
<stop stop-color="#485F68"/>
<stop offset="1" stop-color="#253338"/>
</linearGradient>
<linearGradient id="paint8_linear" x1="281.457" y1="287.436" x2="281.457" y2="60.5781" gradientUnits="userSpaceOnUse">
<stop stop-color="#253338" stop-opacity="0"/>
<stop offset="1" stop-color="#253338" stop-opacity="0.5"/>
</linearGradient>
<linearGradient id="paint9_linear" x1="254.851" y1="80.8989" x2="276.528" y2="142.708" gradientUnits="userSpaceOnUse">
<stop stop-color="#253338" stop-opacity="0"/>
<stop offset="1" stop-color="#253338"/>
</linearGradient>
</defs>
</svg>
